{
.appVersion = "3506";
.formatVersion = 3;
axes = (
{
name = Weight;
tag = wght;
}
);
customParameters = (
{
name = "EditView Line Height";
value = 1200;
},
{
name = "Color Palettes";
value = (
(
(0,255),
(77,117,72,255),
(156,40,20,255),
(170,121,66,255),
(5,18,117,255),
(255,255)
)
);
},
{
name = glyphOrder;
value = (
.notdef,
space
);
},
{
name = "Disable Subroutines";
value = 1;
}
);
date = "2026-02-05 05:17:32 +0000";
familyName = "Riichi-Mahjong";
featurePrefixes = (
{
automatic = 1;
code = "languagesystem DFLT dflt;
";
name = Languagesystems;
}
);
features = (
{
automatic = 1;
code = "feature hwid;
";
tag = aalt;
},
{
code = "script DFLT;
language dflt;
lookup SUB_0 {
	sub space space space by space-han.double;
	sub space space by space-han;
	sub zero M hyphen by back-mahjong.hor;
	sub zero P hyphen by back-mahjong.hor;
	sub zero S hyphen by back-mahjong.hor;
	sub zero Z hyphen by back-mahjong.hor;
	sub zero m hyphen by back-mahjong.hor;
	sub zero p hyphen by back-mahjong.hor;
	sub zero s hyphen by back-mahjong.hor;
	sub zero z hyphen by back-mahjong.hor;
	sub zero M by back-mahjong;
	sub zero P by back-mahjong;
	sub zero S by back-mahjong;
	sub zero Z by back-mahjong;
	sub zero m by back-mahjong;
	sub zero p by back-mahjong;
	sub zero s by back-mahjong;
	sub zero z by back-mahjong;
	sub zero zero by back-mahjong;
	sub one M hyphen by oneOfCharacters-mahjong.hor;
	sub one M equal by oneOfCharacters-mahjong.h2;
	sub one P hyphen by oneOfCircles-mahjong.hor;
	sub one P equal by oneOfCircles-mahjong.h2;
	sub one S hyphen by oneOfBamboos-mahjong.hor;
	sub one S equal by oneOfBamboos-mahjong.h2;
	sub one Z hyphen by eastWind-mahjong.hor;
	sub one Z equal by eastWind-mahjong.h2;
	sub one m hyphen by oneOfCharacters-mahjong.hor;
	sub one m equal by oneOfCharacters-mahjong.h2;
	sub one p hyphen by oneOfCircles-mahjong.hor;
	sub one p equal by oneOfCircles-mahjong.h2;
	sub one s hyphen by oneOfBamboos-mahjong.hor;
	sub one s equal by oneOfBamboos-mahjong.h2;

glyphs = (
{
glyphname = A;
lastChange = "2026-02-05 09:00:31 +0000";
layers = (
{
layerId = m01;
shapes = (
{
closed = 1;
nodes = (
(143,233,l),
(128,170,l),
(360,170,l),
(343,233,l)
);
},
{
closed = 1;
nodes = (
(485,0,l),
(262,632,l),
(238,632,l),
(15,0,l),
(98,0,l),
(249,455,l),
(399,0,l)
);
}
);
userData = {
assembly = "NPUSHB[ ]	/* 13 values pushed */
4 6 2 1 1 6 7 3 114 10 6 8 114
SVTCA[0]	/* SetFreedomAndProjectionVectorToAxis */
CALL[ ]	/* CallFunction */
MDRP[00100]	/* MoveDirectRelPt */
CALL[ ]	/* CallFunction */
SRP1[ ]	/* SetRefPoint1 */
IP[ ]	/* InterpolatePts */
MDAP[1]	/* MoveDirectAbsPt */
SHP[1]	/* ShiftPointByLastPoint */
SRP1[ ]	/* SetRefPoint1 */
IP[ ]	/* InterpolatePts */
IUP[0]	/* InterpolateUntPts */
IUP[1]	/* InterpolateUntPts */";
};
width = 500;
},
{
layerId = m002;
shapes = (
{
closed = 1;
nodes = (
(143,233,l),
(128,170,l),
(360,170,l),
(343,233,l)
);
},
{
closed = 1;
nodes = (
(485,0,l),
(262,632,l),
(238,632,l),
(15,0,l),
(98,0,l),
(249,455,l),
(399,0,l)
);
}
);
width = 500;
}
);
note = A;
unicode = 65;
},
{
glyphname = B;
lastChange = "2026-02-05 09:00:31 +0000";
layers = (
{
layerId = m01;
shapes = (
{
closed = 1;
nodes = (
(285,0,o),
(375,25,o),
(433,72,o),
(462,137,o),
(462,177,qs),
(462,202,o),
(445,250,o),
(415,291,o),
(372,323,o),
(346,333,q),
(376,344,o),
(416,387,o),
(437,442,o),
(437,470,qs),
(437,504,o),
(412,560,o),
(360,601,o),
(280,623,o),
(226,623,qs),
(44,623,l),
(44,0,l),
(225,0,ls)
);
},
{
closed = 1;
nodes = (
(220,299,ls),
(277,299,o),
(343,268,o),
(373,215,o),
(373,180,qs),
(373,142,o),
(339,94,o),
(278,72,o),
(237,72,qs),
(128,72,l),
(128,299,l)
);
},
{
closed = 1;
nodes = (
(227,553,ls),
(261,553,o),
(309,539,o),
(338,514,o),
(352,481,o),
(352,461,qs),
(352,435,o),
(327,392,o),
(267,368,o),
(216,368,qs),
(128,368,l),
(128,553,l)
);
}
);
userData = {
assembly = "NPUSHB[ ]	/* 14 values pushed */
11 33 33 32 32 0 44 1 2 114 22 0 8 114
SVTCA[0]	/* SetFreedomAndProjectionVectorToAxis */
CALL[ ]	/* CallFunction */
SHP[0]	/* ShiftPointByLastPoint */
CALL[ ]	/* CallFunction */
SHP[0]	/* ShiftPointByLastPoint */
SRP1[ ]	/* SetRefPoint1 */
IP[ ]	/* InterpolatePts */
MDAP[1]	/* MoveDirectAbsPt */
SHP[1]	/* ShiftPointByLastPoint */
SRP2[ ]	/* SetRefPoint2 */
IP[ ]	/* InterpolatePts */
IUP[0]	/* InterpolateUntPts */
IUP[1]	/* InterpolateUntPts */";
};
width = 500;
},
{
layerId = m002;
shapes = (
{
closed = 1;
nodes = (
(285,0,o),
(375,25,o),
(433,72,o),
(462,137,o),
(462,177,qs),
(462,202,o),
(445,250,o),
(415,291,o),
(372,323,o),
(346,333,q),
(376,344,o),
(416,387,o),
(437,442,o),
(437,470,qs),
(437,504,o),
(412,560,o),
(360,601,o),
(280,623,o),
(226,623,qs),
(44,623,l),
(44,0,l),
(225,0,ls)
);
},
{
closed = 1;
nodes = (
(220,299,ls),
(277,299,o),
(343,268,o),
(373,215,o),
(373,180,qs),
(373,142,o),
(339,94,o),
(278,72,o),
(237,72,qs),
(128,72,l),
(128,299,l)
);
},
{
closed = 1;
nodes = (
(227,553,ls),
(261,553,o),
(309,539,o),
(338,514,o),
(352,481,o),
(352,461,qs),
(352,435,o),
(327,392,o),
(267,368,o),
(216,368,qs),
(128,368,l),
(128,553,l)
);
}
);
width = 500;
}
);
note = B;
unicode = 66;
},
{
glyphname = C;
lastChange = "2026-02-05 09:00:31 +0000";
layers = (
{
layerId = m01;
shapes = (
{
closed = 1;
nodes = (
(345,-10,o),
(433,40,o),
(464,92,q),
(404,134,l),
(390,111,o),
(352,77,o),
(307,61,o),
(282,61,qs),
(248,61,o),
(189,97,o),
(145,163,o),
(120,256,o),
(120,313,qs),
(120,372,o),
(143,465,o),
(187,529,o),
(247,562,o),
(282,562,qs),
(310,562,o),
(361,540,o),
(385,509,q),
(393,495,o),
(399,481,o),
(397,473,q),
(400,466,l),
(409,470,l),
(473,507,l),
(448,563,o),
(351,629,o),
(282,629,qs),
(247,629,o),
(178,609,o),
(115,565,o),
(66,490,o),
(38,381,o),
(38,308,qs),
(38,225,o),
(76,105,o),
(143,27,o),
(232,-10,o),
(283,-10,qs)
);
}
);
userData = {
assembly = "NPUSHB[ ]	/* 16 values pushed */
38 37 37 33 33 41 9 114 17 14 16 16 23 11 3 114
SVTCA[0]	/* SetFreedomAndProjectionVectorToAxis */
CALL[ ]	/* CallFunction */
SHP[0]	/* ShiftPointByLastPoint */
SHP[0]	/* ShiftPointByLastPoint */
SRP1[ ]	/* SetRefPoint1 */
SHP[1]	/* ShiftPointByLastPoint */
SHP[1]	/* ShiftPointByLastPoint */
CALL[ ]	/* CallFunction */
SHP[0]	/* ShiftPointByLastPoint */
SRP1[ ]	/* SetRefPoint1 */
SHP[1]	/* ShiftPointByLastPoint */
SRP1[ ]	/* SetRefPoint1 */
SHP[1]	/* ShiftPointByLastPoint */
IUP[0]	/* InterpolateUntPts */
IUP[1]	/* InterpolateUntPts */";
};
width = 500;
},
{
layerId = m002;
shapes = (
{
closed = 1;
nodes = (
(345,-10,o),
(433,40,o),
(464,92,q),
(404,134,l),
(390,111,o),
(352,77,o),
(307,61,o),
(282,61,qs),
(248,61,o),
(189,97,o),
(145,163,o),
(120,256,o),
(120,313,qs),
(120,372,o),
(143,465,o),
(187,529,o),
(247,562,o),
(282,562,qs),
(310,562,o),
(361,540,o),
(385,509,q),
(393,495,o),
(399,481,o),
(397,473,q),
(400,466,l),
(409,470,l),
(473,507,l),
(448,563,o),
(351,629,o),
(282,629,qs),
(247,629,o),
(178,609,o),
(115,565,o),
(66,490,o),
(38,381,o),
(38,308,qs),
(38,225,o),
(76,105,o),
(143,27,o),
(232,-10,o),
(283,-10,qs)
);
}
);
width = 500;
}
);
note = C;
unicode = 67;
},
{
glyphname = D;
lastChange = "2026-02-05 09:00:31 +0000";
layers = (
{
layerId = m01;
shapes = (
{
closed = 1;
nodes = (
(262,-1,o),
(364,42,o),
(429,122,o),
(462,236,o),
(464,308,qs),
(464,357,o),
(450,439,o),
(423,510,o),
(402,538,qs),
(381,566,o),
(329,603,o),
(255,623,o),
(200,623,qs),
(50,623,l),
(50,-1,l),
(188,-1,ls)
);
},
{
closed = 1;
nodes = (
(196,554,ls),
(264,554,o),
(344,494,o),
(381,382,o),
(381,305,qs),
(382,230,o),
(341,122,o),
(255,65,o),
(185,65,qs),
(131,65,l),
(131,554,l)
);
}
);
userData = {
assembly = "PUSHB[ ]	/* 8 values pushed */
26 1 2 114 16 0 8 114
SVTCA[0]	/* SetFreedomAndProjectionVectorToAxis */
CALL[ ]	/* CallFunction */
SHP[0]	/* ShiftPointByLastPoint */
CALL[ ]	/* CallFunction */
SHP[0]	/* ShiftPointByLastPoint */
IUP[0]	/* InterpolateUntPts */
IUP[1]	/* InterpolateUntPts */";
};
width = 500;
},
{
layerId = m002;
shapes = (
{
closed = 1;
nodes = (
(262,-1,o),
(364,42,o),
(429,122,o),
(462,236,o),
(464,308,qs),
(464,357,o),
(450,439,o),
(423,510,o),
(402,538,qs),
(381,566,o),
(329,603,o),
(255,623,o),
(200,623,qs),
(50,623,l),
(50,-1,l),
(188,-1,ls)
);
},
{
closed = 1;
nodes = (
(196,554,ls),
(264,554,o),
(344,494,o),
(381,382,o),
(381,305,qs),
(382,230,o),
(341,122,o),
(255,65,o),
(185,65,qs),
(131,65,l),
(131,554,l)
);
}
);
width = 500;
}
);
note = D;
unicode = 68;
},
{
glyphname = E;
lastChange = "2026-02-05 09:00:31 +0000";
layers = (
{
layerId = m01;
shapes = (
{
closed = 1;
nodes = (
(443,72,l),
(137,72,l),
(137,288,l),
(392,288,l),
(392,362,l),
(137,362,l),
(137,552,l),
(446,552,l),
(446,624,l),
(56,624,l),
(56,0,l),
(443,0,l)
);
}
);
userData = {
assembly = "NPUSHB[ ]	/* 12 values pushed */
5 8 8 0 4 1 2 114 9 0 8 114
SVTCA[0]	/* SetFreedomAndProjectionVectorToAxis */
CALL[ ]	/* CallFunction */
SHP[0]	/* ShiftPointByLastPoint */
CALL[ ]	/* CallFunction */
SHP[0]	/* ShiftPointByLastPoint */
SRP1[ ]	/* SetRefPoint1 */
IP[ ]	/* InterpolatePts */
MDAP[1]	/* MoveDirectAbsPt */
SHP[1]	/* ShiftPointByLastPoint */
IUP[0]	/* InterpolateUntPts */
IUP[1]	/* InterpolateUntPts */";
};
width = 500;
},
{
layerId = m002;
shapes = (
{
closed = 1;
nodes = (
(443,72,l),
(137,72,l),
(137,288,l),
(392,288,l),
(392,362,l),
(137,362,l),
(137,552,l),
(446,552,l),
(446,624,l),
(56,624,l),
(56,0,l),
(443,0,l)
);
}
);
width = 500;
}
);
note = E;
unicode = 69;
},
{
glyphname = F;
lastChange = "2026-02-05 09:00:31 +0000";
layers = (
{
layerId = m01;
shapes = (
{
closed = 1;
nodes = (
(154,301,l),
(387,301,l),
(387,372,l),
(154,372,l),
(154,553,l),
(443,553,l),
(443,624,l),
(74,624,l),
(74,0,l),
(154,0,l)
);
}
);
userData = {
assembly = "NPUSHB[ ]	/* 11 values pushed */
5 8 8 0 4 1 2 114 0 8 114
SVTCA[0]	/* SetFreedomAndProjectionVectorToAxis */
CALL[ ]	/* CallFunction */
CALL[ ]	/* CallFunction */
SHP[0]	/* ShiftPointByLastPoint */
SRP1[ ]	/* SetRefPoint1 */
IP[ ]	/* InterpolatePts */
MDAP[1]	/* MoveDirectAbsPt */
SHP[1]	/* ShiftPointByLastPoint */
IUP[0]	/* InterpolateUntPts */
IUP[1]	/* InterpolateUntPts */";
};
width = 500;
},
{
layerId = m002;
shapes = (
{
closed = 1;
nodes = (
(154,301,l),
(387,301,l),
(387,372,l),
(154,372,l),
(154,553,l),
(443,553,l),
(443,624,l),
(74,624,l),
(74,0,l),
(154,0,l)
);
}
);
width = 500;
}
);
note = F;
unicode = 70;
},
{
glyphname = G;
lastChange = "2026-02-05 09:00:31 +0000";
layers = (
{
layerId = m01;
shapes = (
{
closed = 1;
nodes = (
(325,-10,o),
(420,22,o),
(464,55,q),
(464,306,l),
(277,306,l),
(277,234,l),
(387,234,l),
(387,97,l),
(375,88,o),
(348,74,o),
(319,65,o),
(290,62,o),
(277,62,qs),
(240,62,o),
(181,95,o),
(138,160,o),
(116,256,o),
(116,319,qs),
(116,373,o),
(132,454,o),
(162,509,o),
(202,544,o),
(249,558,o),
(275,558,qs),
(298,558,o),
(335,548,o),
(365,527,o),
(379,511,qs),
(390,498,o),
(396,484,o),
(395,476,q),
(400,470,l),
(408,477,l),
(462,525,l),
(445,558,o),
(385,604,o),
(313,631,o),
(274,631,qs),
(247,631,o),
(182,615,o),
(117,573,o),
(63,499,o),
(32,386,o),
(32,306,qs),
(32,211,o),
(91,68,o),
(201,-10,o),
(277,-10,qs)
);
}
);
userData = {
assembly = "NPUSHB[ ]	/* 16 values pushed */
43 42 42 10 35 48 9 114 17 14 16 16 24 10 3 114
SVTCA[0]	/* SetFreedomAndProjectionVectorToAxis */
CALL[ ]	/* CallFunction */
SHP[0]	/* ShiftPointByLastPoint */
SHP[0]	/* ShiftPointByLastPoint */
SRP1[ ]	/* SetRefPoint1 */
SHP[1]	/* ShiftPointByLastPoint */
SHP[1]	/* ShiftPointByLastPoint */
CALL[ ]	/* CallFunction */
SHP[0]	/* ShiftPointByLastPoint */
SRP2[ ]	/* SetRefPoint2 */
IP[ ]	/* InterpolatePts */
MDAP[1]	/* MoveDirectAbsPt */
SHP[1]	/* ShiftPointByLastPoint */
IUP[0]	/* InterpolateUntPts */
IUP[1]	/* InterpolateUntPts */";
};
width = 500;
},
{
layerId = m002;
shapes = (
{
closed = 1;
nodes = (
(325,-10,o),
(420,22,o),
(464,55,q),
(464,306,l),
(277,306,l),
(277,234,l),
(387,234,l),
(387,97,l),
(375,88,o),
(348,74,o),
(319,65,o),
(290,62,o),
(277,62,qs),
(240,62,o),
(181,95,o),
(138,160,o),
(116,256,o),
(116,319,qs),
(116,373,o),
(132,454,o),
(162,509,o),
(202,544,o),
(249,558,o),
(275,558,qs),
(298,558,o),
(335,548,o),
(365,527,o),
(379,511,qs),
(390,498,o),
(396,484,o),
(395,476,q),
(400,470,l),
(408,477,l),
(462,525,l),
(445,558,o),
(385,604,o),
(313,631,o),
(274,631,qs),
(247,631,o),
(182,615,o),
(117,573,o),
(63,499,o),
(32,386,o),
(32,306,qs),
(32,211,o),
(91,68,o),
(201,-10,o),
(277,-10,qs)
);
}
);
width = 500;
}
);
note = G;
unicode = 71;
},
{
glyphname = H;
lastChange = "2026-02-05 09:00:31 +0000";
layers = (
{
layerId = m01;
shapes = (
{
closed = 1;
nodes = (
(133,0,l),
(133,291,l),
(359,291,l),
(359,0,l),
(446,0,l),
(446,578,ls),
(446,595,o),
(449,609,o),
(455,615,q),
(455,623,l),
(359,623,l),
(359,361,l),
(133,361,l),
(133,578,ls),
(133,595,o),
(136,609,o),
(142,615,q),
(142,623,l),
(46,623,l),
(46,0,l)
);
}
);
userData = {
assembly = "NPUSHB[ ]	/* 12 values pushed */
7 19 19 0 17 21 8 114 9 0 2 114
SVTCA[0]	/* SetFreedomAndProjectionVectorToAxis */
CALL[ ]	/* CallFunction */
SHP[0]	/* ShiftPointByLastPoint */
CALL[ ]	/* CallFunction */
SHP[0]	/* ShiftPointByLastPoint */
SRP2[ ]	/* SetRefPoint2 */
IP[ ]	/* InterpolatePts */
MDAP[1]	/* MoveDirectAbsPt */
SHP[1]	/* ShiftPointByLastPoint */
IUP[0]	/* InterpolateUntPts */
IUP[1]	/* InterpolateUntPts */";
};
width = 500;
},
{
layerId = m002;
shapes = (
{
closed = 1;
nodes = (
(133,0,l),
(133,291,l),
(359,291,l),
(359,0,l),
(446,0,l),
(446,578,ls),
(446,595,o),
(449,609,o),
(455,615,q),
(455,623,l),
(359,623,l),
(359,361,l),
(133,361,l),
(133,578,ls),
(133,595,o),
(136,609,o),
(142,615,q),
(142,623,l),
(46,623,l),
(46,0,l)
);
}
);
width = 500;
}
);
note = H;
unicode = 72;
},
{
glyphname = I;
lastChange = "2026-02-05 09:00:31 +0000";
layers = (
{
layerId = m01;
shapes = (
{
closed = 1;
nodes = (
(411,69,l),
(282,69,l),
(282,553,l),
(405,553,l),
(405,623,l),
(84,623,l),
(84,553,l),
(200,553,l),
(200,70,l),
(77,70,l),
(77,0,l),
(411,0,l)
);
}
);
userData = {
assembly = "NPUSHB[ ]	/* 12 values pushed */
8 4 4 5 2 114 1 9 9 0 8 114
SVTCA[0]	/* SetFreedomAndProjectionVectorToAxis */
CALL[ ]	/* CallFunction */
SHP[0]	/* ShiftPointByLastPoint */
SRP1[ ]	/* SetRefPoint1 */
SHP[1]	/* ShiftPointByLastPoint */
CALL[ ]	/* CallFunction */
SHP[0]	/* ShiftPointByLastPoint */
SRP1[ ]	/* SetRefPoint1 */
SHP[1]	/* ShiftPointByLastPoint */
IUP[0]	/* InterpolateUntPts */
IUP[1]	/* InterpolateUntPts */";
};
width = 500;
},
{
layerId = m002;
shapes = (
{
closed = 1;
nodes = (
(411,69,l),
(282,69,l),
(282,553,l),
(405,553,l),
(405,623,l),
(84,623,l),
(84,553,l),
(200,553,l),
(200,70,l),
(77,70,l),
(77,0,l),
(411,0,l)
);
}
);
width = 500;
}
);
note = I;
unicode = 73;
},
{
glyphname = J;
lastChange = "2026-02-05 09:00:31 +0000";
layers = (
{
layerId = m01;
shapes = (
{
closed = 1;
nodes = (
(229,-12,o),
(291,12,o),
(340,66,o),
(367,151,o),
(366,210,qs),
(366,553,l),
(460,553,l),
(460,623,l),
(164,623,l),
(164,553,l),
(282,553,l),
(282,212,ls),
(282,159,o),
(263,93,o),
(223,64,o),
(192,64,qs),
(171,64,o),
(137,77,o),
(121,89,qs),
(109,100,o),
(102,115,o),
(101,123,q),
(95,128,l),
(88,120,l),
(43,57,l),
(72,22,o),
(150,-12,o),
(195,-12,qs)
);
}
);
userData = {
assembly = "NPUSHB[ ]	/* 10 values pushed */
12 28 9 114 22 18 18 19 2 114
SVTCA[0]	/* SetFreedomAndProjectionVectorToAxis */
CALL[ ]	/* CallFunction */
SHP[0]	/* ShiftPointByLastPoint */
SRP1[ ]	/* SetRefPoint1 */
SHP[1]	/* ShiftPointByLastPoint */
CALL[ ]	/* CallFunction */
SHP[0]	/* ShiftPointByLastPoint */
IUP[0]	/* InterpolateUntPts */
IUP[1]	/* InterpolateUntPts */";
};
width = 500;
},
{
layerId = m002;
shapes = (
{
closed = 1;
nodes = (
(229,-12,o),
(291,12,o),
(340,66,o),
(367,151,o),
(366,210,qs),
(366,553,l),
(460,553,l),
(460,623,l),
(164,623,l),
(164,553,l),
(282,553,l),
(282,212,ls),
(282,159,o),
(263,93,o),
(223,64,o),
(192,64,qs),
(171,64,o),
(137,77,o),
(121,89,qs),
(109,100,o),
(102,115,o),
(101,123,q),
(95,128,l),
(88,120,l),
(43,57,l),
(72,22,o),
(150,-12,o),
(195,-12,qs)
);
}
);
width = 500;
}
);
note = J;
unicode = 74;
},
{
glyphname = K;
lastChange = "2026-02-05 09:00:31 +0000";
layers = (
{
layerId = m01;
shapes = (
{
closed = 1;
nodes = (
(478,0,l),
(236,357,l),
(463,623,l),
(429,623,ls),
(422,623,o),
(406,624,o),
(391,625,o),
(376,627,o),
(370,628,q),
(127,347,l),
(127,578,ls),
(127,595,o),
(130,609,o),
(136,615,q),
(136,623,l),
(40,623,l),
(40,0,l),
(127,0,l),
(127,248,l),
(174,302,l),
(375,-4,l)
);
}
);
userData = {
assembly = "NPUSHB[ ]	/* 14 values pushed */
1 0 11 19 4 3 18 4 2 114 20 3 8 114
SVTCA[0]	/* SetFreedomAndProjectionVectorToAxis */
CALL[ ]	/* CallFunction */
SHP[0]	/* ShiftPointByLastPoint */
CALL[ ]	/* CallFunction */
SHP[0]	/* ShiftPointByLastPoint */
SRP2[ ]	/* SetRefPoint2 */
SLOOP[ ]	/* SetLoopVariable */
IP[ ]	/* InterpolatePts */
IUP[0]	/* InterpolateUntPts */
IUP[1]	/* InterpolateUntPts */";
};
width = 500;
},
{
layerId = m002;
shapes = (
{
closed = 1;
nodes = (
(478,0,l),
(236,357,l),
(463,623,l),
(429,623,ls),
(422,623,o),
(406,624,o),
(391,625,o),
(376,627,o),
(370,628,q),
(127,347,l),
(127,578,ls),
(127,595,o),
(130,609,o),
(136,615,q),
(136,623,l),
(40,623,l),
(40,0,l),
(127,0,l),
(127,248,l),
(174,302,l),
(375,-4,l)
);
}
);
width = 500;
}
);
note = K;
unicode = 75;
},
{
glyphname = L;
lastChange = "2026-02-05 09:00:31 +0000";
layers = (
{
layerId = m01;
shapes = (
{
closed = 1;
nodes = (
(445,0,l),
(445,71,l),
(150,71,l),
(150,578,ls),
(150,595,o),
(153,609,o),
(159,615,q),
(159,623,l),
(63,623,l),
(63,0,l)
);
}
);
userData = {
assembly = "PUSHB[ ]	/* 7 values pushed */
7 10 8 114 0 2 114
SVTCA[0]	/* SetFreedomAndProjectionVectorToAxis */
CALL[ ]	/* CallFunction */
CALL[ ]	/* CallFunction */
SHP[0]	/* ShiftPointByLastPoint */
IUP[0]	/* InterpolateUntPts */
IUP[1]	/* InterpolateUntPts */";
};
width = 500;
},
{
layerId = m002;
shapes = (
{
closed = 1;
nodes = (
(445,0,l),
(445,71,l),
(150,71,l),
(150,578,ls),
(150,595,o),
(153,609,o),
(159,615,q),
(159,623,l),
(63,623,l),
(63,0,l)
);
}
);
width = 500;
}
);
note = L;
unicode = 76;
},
{
glyphname = M;
lastChange = "2026-02-05 09:00:31 +0000";
layers = (
{
layerId = m01;
shapes = (
{
closed = 1;
nodes = (
(114,456,l),
(228,215,l),
(265,215,l),
(387,458,l),
(387,0,l),
(464,0,l),
(464,624,l),
(396,624,l),
(251,324,l),
(108,623,l),
(38,623,l),
(38,0,l),
(114,0,l)
);
}
);
userData = {
assembly = "NPUSHB[ ]	/* 14 values pushed */
10 3 11 8 4 7 5 2 2 114 7 0 8 114
SVTCA[0]	/* SetFreedomAndProjectionVectorToAxis */
CALL[ ]	/* CallFunction */
SHP[0]	/* ShiftPointByLastPoint */
CALL[ ]	/* CallFunction */
SHP[0]	/* ShiftPointByLastPoint */
SRP2[ ]	/* SetRefPoint2 */
SLOOP[ ]	/* SetLoopVariable */
IP[ ]	/* InterpolatePts */
IUP[0]	/* InterpolateUntPts */
IUP[1]	/* InterpolateUntPts */";
};
width = 500;
},
{
layerId = m002;
shapes = (
{
closed = 1;
nodes = (
(114,456,l),
(228,215,l),
(265,215,l),
(387,458,l),
(387,0,l),
(464,0,l),
(464,624,l),
(396,624,l),
(251,324,l),
(108,623,l),
(38,623,l),
(38,0,l),
(114,0,l)
);
}
);
width = 500;
}
);
note = M;
unicode = 77;
},
{
glyphname = N;
lastChange = "2026-02-05 09:00:31 +0000";
layers = (
{
layerId = m01;
shapes = (
{
closed = 1;
nodes = (
(124,0,l),
(124,472,l),
(380,0,l),
(452,0,l),
(452,578,ls),
(452,595,o),
(455,609,o),
(461,615,q),
(461,623,l),
(373,623,l),
(375,178,l),
(130,623,l),
(46,623,l),
(46,0,l)
);
}
);
userData = {
assembly = "NPUSHB[ ]	/* 11 values pushed */
12 2 1 11 14 8 114 3 1 2 114
SVTCA[0]	/* SetFreedomAndProjectionVectorToAxis */
CALL[ ]	/* CallFunction */
SHP[0]	/* ShiftPointByLastPoint */
CALL[ ]	/* CallFunction */
SHP[0]	/* ShiftPointByLastPoint */
SRP1[ ]	/* SetRefPoint1 */
IP[ ]	/* InterpolatePts */
IP[ ]	/* InterpolatePts */
IUP[0]	/* InterpolateUntPts */
IUP[1]	/* InterpolateUntPts */";
};
width = 500;
},
{
layerId = m002;
shapes = (
{
closed = 1;
nodes = (
(124,0,l),
(124,472,l),
(380,0,l),
(452,0,l),
(452,578,ls),
(452,595,o),
(455,609,o),
(461,615,q),
(461,623,l),
(373,623,l),
(375,178,l),
(130,623,l),
(46,623,l),
(46,0,l)
);
}
);
width = 500;
}
);
note = N;
unicode = 78;
},
{
glyphname = O;
lastChange = "2026-02-05 09:00:31 +0000";
layers = (
{
layerId = m01;
shapes = (
{
closed = 1;
nodes = (
(424,63,o),
(477,207,o),
(477,309,qs),
(477,409,o),
(424,552,o),
(324,629,o),
(251,629,qs),
(178,629,o),
(77,552,o),
(24,409,o),
(24,309,qs),
(24,207,o),
(77,63,o),
(178,-11,o),
(251,-11,qs),
(324,-11,o)
);
},
{
closed = 1;
nodes = (
(143,117,o),
(110,228,o),
(110,309,qs),
(110,386,o),
(143,497,o),
(207,557,o),
(251,557,qs),
(295,557,o),
(358,497,o),
(391,386,o),
(391,309,qs),
(391,228,o),
(358,117,o),
(295,60,o),
(251,60,qs),
(207,60,o)
);
}
);
userData = {
assembly = "PUSHB[ ]	/* 8 values pushed */
24 8 3 114 16 0 9 114
SVTCA[0]	/* SetFreedomAndProjectionVectorToAxis */
CALL[ ]	/* CallFunction */
SHP[0]	/* ShiftPointByLastPoint */
CALL[ ]	/* CallFunction */
SHP[0]	/* ShiftPointByLastPoint */
IUP[0]	/* InterpolateUntPts */
IUP[1]	/* InterpolateUntPts */";
};
width = 500;
},
{
layerId = m002;
shapes = (
{
closed = 1;
nodes = (
(424,63,o),
(477,207,o),
(477,309,qs),
(477,409,o),
(424,552,o),
(324,629,o),
(251,629,qs),
(178,629,o),
(77,552,o),
(24,409,o),
(24,309,qs),
(24,207,o),
(77,63,o),
(178,-11,o),
(251,-11,qs),
(324,-11,o)
);
},
{
closed = 1;
nodes = (
(143,117,o),
(110,228,o),
(110,309,qs),
(110,386,o),
(143,497,o),
(207,557,o),
(251,557,qs),
(295,557,o),
(358,497,o),
(391,386,o),
(391,309,qs),
(391,228,o),
(358,117,o),
(295,60,o),
(251,60,qs),
(207,60,o)
);
}
);
width = 500;
}
);
note = O;
unicode = 79;
},
{
glyphname = P;
lastChange = "2026-02-05 09:00:31 +0000";
layers = (
{
layerId = m01;
shapes = (
{
closed = 1;
nodes = (
(142,270,l),
(264,270,ls),
(316,270,o),
(390,297,o),
(438,345,o),
(461,408,o),
(461,445,qs),
(461,494,o),
(419,574,o),
(330,623,o),
(259,623,qs),
(55,623,l),
(55,0,l),
(142,0,l)
);
},
{
closed = 1;
nodes = (
(257,546,ls),
(298,546,o),
(350,518,o),
(374,472,o),
(374,443,qs),
(374,414,o),
(350,368,o),
(298,343,o),
(256,343,qs),
(142,343,l),
(142,546,l)
);
}
);
userData = {
assembly = "NPUSHB[ ]	/* 11 values pushed */
14 12 12 0 24 1 2 114 0 8 114
SVTCA[0]	/* SetFreedomAndProjectionVectorToAxis */
CALL[ ]	/* CallFunction */
CALL[ ]	/* CallFunction */
SHP[0]	/* ShiftPointByLastPoint */
SRP1[ ]	/* SetRefPoint1 */
IP[ ]	/* InterpolatePts */
MDAP[1]	/* MoveDirectAbsPt */
SHP[1]	/* ShiftPointByLastPoint */
IUP[0]	/* InterpolateUntPts */
IUP[1]	/* InterpolateUntPts */";
};
width = 500;
},
{
layerId = m002;
shapes = (
{
closed = 1;
nodes = (
(142,270,l),
(264,270,ls),
(316,270,o),
(390,297,o),
(438,345,o),
(461,408,o),
(461,445,qs),
(461,494,o),
(419,574,o),
(330,623,o),
(259,623,qs),
(55,623,l),
(55,0,l),
(142,0,l)
);
},
{
closed = 1;
nodes = (
(257,546,ls),
(298,546,o),
(350,518,o),
(374,472,o),
(374,443,qs),
(374,414,o),
(350,368,o),
(298,343,o),
(256,343,qs),
(142,343,l),
(142,546,l)
);
}
);
width = 500;
}
);
note = P;
unicode = 80;
},
{
glyphname = Q;
lastChange = "2026-02-05 09:00:31 +0000";
layers = (
{
layerId = m01;
shapes = (
{
closed = 1;
nodes = (
(443,-69,l),
(361,-73,ls),
(336,-73,o),
(308,-57,o),
(296,-26,o),
(294,-6,q),
(337,4,o),
(405,52,o),
(451,131,o),
(475,241,o),
(475,311,qs),
(476,395,o),
(441,516,o),
(378,594,o),
(296,631,o),
(251,631,qs),
(212,631,o),
(133,598,o),
(66,524,o),
(26,400,o),
(26,309,qs),
(26,212,o),
(79,77,o),
(166,2,o),
(218,-6,q),
(218,-46,o),
(237,-100,o),
(278,-134,o),
(345,-147,o),
(393,-145,qs),
(441,-145,l)
);
},
{
closed = 1;
nodes = (
(144,128,o),
(108,244,o),
(108,322,qs),
(108,371,o),
(126,457,o),
(162,522,o),
(216,560,o),
(251,560,qs),
(275,560,o),
(325,536,o),
(368,477,o),
(394,376,o),
(394,298,qs),
(394,234,o),
(369,145,o),
(329,89,o),
(280,64,o),
(255,64,qs),
(210,64,o)
);
}
);
userData = {
assembly = "NPUSHB[ ]	/* 12 values pushed */
41 14 3 114 31 24 5 9 114 28 0 9
SVTCA[0]	/* SetFreedomAndProjectionVectorToAxis */
RUTG[ ]	/* RoundUpToGrid */
MIAP[1]	/* MoveIndirectAbsPt */
SHP[0]	/* ShiftPointByLastPoint */
CALL[ ]	/* CallFunction */
SHP[0]	/* ShiftPointByLastPoint */
SHP[0]	/* ShiftPointByLastPoint */
CALL[ ]	/* CallFunction */
SHP[0]	/* ShiftPointByLastPoint */
IUP[0]	/* InterpolateUntPts */
IUP[1]	/* InterpolateUntPts */";
};
width = 500;
},
{
layerId = m002;
shapes = (
{
closed = 1;
nodes = (
(443,-69,l),
(361,-73,ls),
(336,-73,o),
(308,-57,o),
(296,-26,o),
(294,-6,q),
(337,4,o),
(405,52,o),
(451,131,o),
(475,241,o),
(475,311,qs),
(476,395,o),
(441,516,o),
(378,594,o),
(296,631,o),
(251,631,qs),
(212,631,o),
(133,598,o),
(66,524,o),
(26,400,o),
(26,309,qs),
(26,212,o),
(79,77,o),
(166,2,o),
(218,-6,q),
(218,-46,o),
(237,-100,o),
(278,-134,o),
(345,-147,o),
(393,-145,qs),
(441,-145,l)
);
},
{
closed = 1;
nodes = (
(144,128,o),
(108,244,o),
(108,322,qs),
(108,371,o),
(126,457,o),
(162,522,o),
(216,560,o),
(251,560,qs),
(275,560,o),
(325,536,o),
(368,477,o),
(394,376,o),
(394,298,qs),
(394,234,o),
(369,145,o),
(329,89,o),
(280,64,o),
(255,64,qs),
(210,64,o)
);
}
);
width = 500;
}
);
note = Q;
unicode = 81;
},
{
glyphname = R;
lastChange = "2026-02-05 09:00:31 +0000";
layers = (
{
layerId = m01;
shapes = (
{
closed = 1;
nodes = (
(138,270,l),
(243,270,l),
(377,0,l),
(469,0,l),
(328,275,l),
(366,287,o),
(422,339,o),
(452,409,o),
(452,443,qs),
(452,498,o),
(409,579,o),
(316,623,o),
(241,623,qs),
(52,623,l),
(52,0,l),
(138,0,l)
);
},
{
closed = 1;
nodes = (
(249,546,ls),
(289,546,o),
(341,518,o),
(365,471,o),
(365,442,qs),
(365,397,o),
(309,342,o),
(249,342,qs),
(138,342,l),
(138,546,l)
);
}
);
userData = {
assembly = "NPUSHB[ ]	/* 14 values pushed */
10 16 16 14 14 0 25 1 2 114 12 0 8 114
SVTCA[0]	/* SetFreedomAndProjectionVectorToAxis */
CALL[ ]	/* CallFunction */
SHP[0]	/* ShiftPointByLastPoint */
CALL[ ]	/* CallFunction */
SHP[0]	/* ShiftPointByLastPoint */
SRP1[ ]	/* SetRefPoint1 */
IP[ ]	/* InterpolatePts */
MDAP[1]	/* MoveDirectAbsPt */
SHP[1]	/* ShiftPointByLastPoint */
SRP2[ ]	/* SetRefPoint2 */
IP[ ]	/* InterpolatePts */
IUP[0]	/* InterpolateUntPts */
IUP[1]	/* InterpolateUntPts */";
};
width = 500;
},
{
layerId = m002;
shapes = (
{
closed = 1;
nodes = (
(138,270,l),
(243,270,l),
(377,0,l),
(469,0,l),
(328,275,l),
(366,287,o),
(422,339,o),
(452,409,o),
(452,443,qs),
(452,498,o),
(409,579,o),
(316,623,o),
(241,623,qs),
(52,623,l),
(52,0,l),
(138,0,l)
);
},
{
closed = 1;
nodes = (
(249,546,ls),
(289,546,o),
(341,518,o),
(365,471,o),
(365,442,qs),
(365,397,o),
(309,342,o),
(249,342,qs),
(138,342,l),
(138,546,l)
);
}
);
width = 500;
}
);
note = R;
unicode = 82;
},
{
glyphname = S;
lastChange = "2026-02-05 09:00:31 +0000";
layers = (
{
layerId = m01;
shapes = (
{
closed = 1;
nodes = (
(320,-10,o),
(414,43,o),
(458,127,o),
(458,170,qs),
(458,201,o),
(442,250,o),
(407,293,o),
(345,331,o),
(298,351,qs),
(262,366,o),
(211,391,o),
(178,416,o),
(160,440,o),
(152,465,o),
(152,481,qs),
(152,497,o),
(167,526,o),
(193,550,o),
(230,562,o),
(253,562,qs),
(288,562,o),
(338,547,o),
(360,526,qs),
(371,514,o),
(377,498,o),
(378,490,q),
(385,485,l),
(391,493,l),
(439,553,l),
(417,579,o),
(361,613,o),
(296,632,o),
(260,632,qs),
(202,632,o),
(115,592,o),
(67,522,o),
(67,476,qs),
(67,438,o),
(99,372,o),
(174,314,o),
(238,288,qs),
(272,273,o),
(320,247,o),
(350,225,o),
(368,203,o),
(375,177,o),
(375,161,qs),
(375,140,o),
(357,104,o),
(324,78,o),
(280,63,o),
(253,63,qs),
(212,63,o),
(146,88,o),
(120,109,q),
(109,121,o),
(102,138,o),
(100,145,q),
(93,149,l),
(89,140,l),
(46,67,l),
(83,29,o),
(184,-10,o),
(245,-10,qs)
);
}
);
userData = {
assembly = "NPUSHB[ ]	/* 11 values pushed */
27 17 31 12 64 9 114 44 31 3 114
SVTCA[0]	/* SetFreedomAndProjectionVectorToAxis */
CALL[ ]	/* CallFunction */
SHP[0]	/* ShiftPointByLastPoint */
CALL[ ]	/* CallFunction */
SHP[0]	/* ShiftPointByLastPoint */
SRP1[ ]	/* SetRefPoint1 */
IP[ ]	/* InterpolatePts */
IP[ ]	/* InterpolatePts */
IUP[0]	/* InterpolateUntPts */
IUP[1]	/* InterpolateUntPts */";
};
width = 500;
},
{
layerId = m002;
shapes = (
{
closed = 1;
nodes = (
(320,-10,o),
(414,43,o),
(458,127,o),
(458,170,qs),
(458,201,o),
(442,250,o),
(407,293,o),
(345,331,o),
(298,351,qs),
(262,366,o),
(211,391,o),
(178,416,o),
(160,440,o),
(152,465,o),
(152,481,qs),
(152,497,o),
(167,526,o),
(193,550,o),
(230,562,o),
(253,562,qs),
(288,562,o),
(338,547,o),
(360,526,qs),
(371,514,o),
(377,498,o),
(378,490,q),
(385,485,l),
(391,493,l),
(439,553,l),
(417,579,o),
(361,613,o),
(296,632,o),
(260,632,qs),
(202,632,o),
(115,592,o),
(67,522,o),
(67,476,qs),
(67,438,o),
(99,372,o),
(174,314,o),
(238,288,qs),
(272,273,o),
(320,247,o),
(350,225,o),
(368,203,o),
(375,177,o),
(375,161,qs),
(375,140,o),
(357,104,o),
(324,78,o),
(280,63,o),
(253,63,qs),
(212,63,o),
(146,88,o),
(120,109,q),
(109,121,o),
(102,138,o),
(100,145,q),
(93,149,l),
(89,140,l),
(46,67,l),
(83,29,o),
(184,-10,o),
(245,-10,qs)
);
}
);
width = 500;
}
);
note = S;
unicode = 83;
},
{
glyphname = T;
lastChange = "2026-02-05 09:00:31 +0000";
layers = (
{
layerId = m01;
shapes = (
{
closed = 1;
nodes = (
(286,550,l),
(467,550,l),
(467,624,l),
(28,624,l),
(28,550,l),
(202,550,l),
(202,0,l),
(286,0,l)
);
}
);
userData = {
assembly = "NPUSHB[ ]	/* 9 values pushed */
6 2 2 3 2 114 0 8 114
SVTCA[0]	/* SetFreedomAndProjectionVectorToAxis */
CALL[ ]	/* CallFunction */
CALL[ ]	/* CallFunction */
SHP[0]	/* ShiftPointByLastPoint */
SRP1[ ]	/* SetRefPoint1 */
SHP[1]	/* ShiftPointByLastPoint */
IUP[0]	/* InterpolateUntPts */
IUP[1]	/* InterpolateUntPts */";
};
width = 500;
},
{
layerId = m002;
shapes = (
{
closed = 1;
nodes = (
(286,550,l),
(467,550,l),
(467,624,l),
(28,624,l),
(28,550,l),
(202,550,l),
(202,0,l),
(286,0,l)
);
}
);
width = 500;
}
);
note = T;
unicode = 84;
},
{
glyphname = U;
lastChange = "2026-02-05 09:00:31 +0000";
layers = (
{
layerId = m01;
shapes = (
{
closed = 1;
nodes = (
(313,-12,o),
(406,38,o),
(458,140,o),
(458,219,qs),
(458,623,l),
(376,623,l),
(376,218,ls),
(376,143,o),
(321,58,o),
(252,58,qs),
(183,58,o),
(129,143,o),
(129,215,qs),
(129,578,ls),
(129,595,o),
(132,609,o),
(138,615,q),
(138,623,l),
(45,623,l),
(45,216,ls),
(45,109,o),
(150,-12,o),
(251,-12,qs)
);
}
);
userData = {
assembly = "PUSHB[ ]	/* 8 values pushed */
14 24 9 114 19 4 2 114
SVTCA[0]	/* SetFreedomAndProjectionVectorToAxis */
CALL[ ]	/* CallFunction */
SHP[0]	/* ShiftPointByLastPoint */
CALL[ ]	/* CallFunction */
SHP[0]	/* ShiftPointByLastPoint */
IUP[0]	/* InterpolateUntPts */
IUP[1]	/* InterpolateUntPts */";
};
width = 500;
},
{
layerId = m002;
shapes = (
{
closed = 1;
nodes = (
(313,-12,o),
(406,38,o),
(458,140,o),
(458,219,qs),
(458,623,l),
(376,623,l),
(376,218,ls),
(376,143,o),
(321,58,o),
(252,58,qs),
(183,58,o),
(129,143,o),
(129,215,qs),
(129,578,ls),
(129,595,o),
(132,609,o),
(138,615,q),
(138,623,l),
(45,623,l),
(45,216,ls),
(45,109,o),
(150,-12,o),
(251,-12,qs)
);
}
);
width = 500;
}
);
note = U;
unicode = 85;
},
{
glyphname = V;
lastChange = "2026-02-05 09:00:31 +0000";
layers = (
{
layerId = m01;
shapes = (
{
closed = 1;
nodes = (
(482,623,l),
(400,623,l),
(258,158,l),
(108,624,l),
(22,624,l),
(230,-3,l),
(277,-3,l)
);
}
);
userData = {
assembly = "NPUSHB[ ]	/* 9 values pushed */
3 0 2 5 2 114 0 8 114
SVTCA[0]	/* SetFreedomAndProjectionVectorToAxis */
CALL[ ]	/* CallFunction */
CALL[ ]	/* CallFunction */
SHP[0]	/* ShiftPointByLastPoint */
SRP2[ ]	/* SetRefPoint2 */
IP[ ]	/* InterpolatePts */
IUP[0]	/* InterpolateUntPts */
IUP[1]	/* InterpolateUntPts */";
};
width = 500;
},
{
layerId = m002;
shapes = (
{
closed = 1;
nodes = (
(482,623,l),
(400,623,l),
(258,158,l),
(108,624,l),
(22,624,l),
(230,-3,l),
(277,-3,l)
);
}
);
width = 500;
}
);
note = V;
unicode = 86;
},
{
glyphname = W;
lastChange = "2026-02-05 09:00:31 +0000";
layers = (
{
layerId = m01;
shapes = (
{
closed = 1;
nodes = (
(255,399,l),
(356,0,l),
(397,0,l),
(490,623,l),
(420,623,l),
(371,211,l),
(277,576,l),
(243,576,l),
(149,212,l),
(91,623,l),
(15,623,l),
(109,0,l),
(152,0,l)
);
}
);
userData = {
assembly = "NPUSHB[ ]	/* 15 values pushed */
6 3 11 3 4 4 0 8 1 2 114 10 0 8 114
SVTCA[0]	/* SetFreedomAndProjectionVectorToAxis */
CALL[ ]	/* CallFunction */
SHP[0]	/* ShiftPointByLastPoint */
CALL[ ]	/* CallFunction */
SHP[0]	/* ShiftPointByLastPoint */
SRP2[ ]	/* SetRefPoint2 */
IP[ ]	/* InterpolatePts */
MDAP[1]	/* MoveDirectAbsPt */
SLOOP[ ]	/* SetLoopVariable */
IP[ ]	/* InterpolatePts */
IUP[0]	/* InterpolateUntPts */
IUP[1]	/* InterpolateUntPts */";
};
width = 500;
},
{
layerId = m002;
shapes = (
{
closed = 1;
nodes = (
(255,399,l),
(356,0,l),
(397,0,l),
(490,623,l),
(420,623,l),
(371,211,l),
(277,576,l),
(243,576,l),
(149,212,l),
(91,623,l),
(15,623,l),
(109,0,l),
(152,0,l)
);
}
);
width = 500;
}
);
note = W;
unicode = 87;
},
{
glyphname = X;
lastChange = "2026-02-05 09:00:31 +0000";
layers = (
{
layerId = m01;
shapes = (
{
closed = 1;
nodes = (
(252,236,l),
(381,0,l),
(473,0,l),
(299,319,l),
(454,624,l),
(371,624,l),
(251,397,l),
(128,624,l),
(40,624,l),
(205,318,l),
(37,0,l),
(126,0,l)
);
}
);
userData = {
assembly = "NPUSHB[ ]	/* 15 values pushed */
10 1 7 4 4 0 6 6 2 2 114 9 0 8 114
SVTCA[0]	/* SetFreedomAndProjectionVectorToAxis */
CALL[ ]	/* CallFunction */
SHP[0]	/* ShiftPointByLastPoint */
CALL[ ]	/* CallFunction */
SHP[0]	/* ShiftPointByLastPoint */
MDAP[1]	/* MoveDirectAbsPt */
SRP1[ ]	/* SetRefPoint1 */
SLOOP[ ]	/* SetLoopVariable */
IP[ ]	/* InterpolatePts */
IUP[0]	/* InterpolateUntPts */
IUP[1]	/* InterpolateUntPts */";
};
width = 500;
},
{
layerId = m002;
shapes = (
{
closed = 1;
nodes = (
(252,236,l),
(381,0,l),
(473,0,l),
(299,319,l),
(454,624,l),
(371,624,l),
(251,397,l),
(128,624,l),
(40,624,l),
(205,318,l),
(37,0,l),
(126,0,l)
);
}
);
width = 500;
}
);
note = X;
unicode = 88;
},
{
glyphname = Y;
lastChange = "2026-02-05 09:00:31 +0000";
layers = (
{
layerId = m01;
shapes = (
{
closed = 1;
nodes = (
(303,246,l),
(478,623,l),
(391,623,l),
(261,335,l),
(116,623,l),
(24,623,l),
(214,246,l),
(214,0,l),
(303,0,l)
);
}
);
userData = {
assembly = "NPUSHB[ ]	/* 14 values pushed */
8 8 114 7 1 4 3 0 6 2 2 114 0 8
SVTCA[0]	/* SetFreedomAndProjectionVectorToAxis */
MIAP[1]	/* MoveIndirectAbsPt */
CALL[ ]	/* CallFunction */
SHP[0]	/* ShiftPointByLastPoint */
SRP2[ ]	/* SetRefPoint2 */
SLOOP[ ]	/* SetLoopVariable */
IP[ ]	/* InterpolatePts */
CALL[ ]	/* CallFunction */
IUP[0]	/* InterpolateUntPts */
IUP[1]	/* InterpolateUntPts */";
};
width = 500;
},
{
layerId = m002;
shapes = (
{
closed = 1;
nodes = (
(303,246,l),
(478,623,l),
(391,623,l),
(261,335,l),
(116,623,l),
(24,623,l),
(214,246,l),
(214,0,l),
(303,0,l)
);
}
);
width = 500;
}
);
note = Y;
unicode = 89;
},
{
glyphname = Z;
lastChange = "2026-02-05 09:00:31 +0000";
layers = (
{
layerId = m01;
shapes = (
{
closed = 1;
nodes = (
(468,0,l),
(468,83,l),
(460,83,l),
(454,77,o),
(440,73,o),
(423,73,qs),
(151,73,l),
(452,566,l),
(452,623,l),
(58,623,l),
(58,549,l),
(352,549,l),
(46,57,l),
(46,0,l)
);
}
);
userData = {
assembly = "NPUSHB[ ]	/* 12 values pushed */
0 6 6 14 8 114 5 2 2 3 2 114
SVTCA[0]	/* SetFreedomAndProjectionVectorToAxis */
CALL[ ]	/* CallFunction */
SHP[0]	/* ShiftPointByLastPoint */
SRP1[ ]	/* SetRefPoint1 */
SHP[1]	/* ShiftPointByLastPoint */
CALL[ ]	/* CallFunction */
SHP[0]	/* ShiftPointByLastPoint */
SRP1[ ]	/* SetRefPoint1 */
SHP[1]	/* ShiftPointByLastPoint */
IUP[0]	/* InterpolateUntPts */
IUP[1]	/* InterpolateUntPts */";
};
width = 500;
},
{
layerId = m002;
shapes = (
{
closed = 1;
nodes = (
(468,0,l),
(468,83,l),
(460,83,l),
(454,77,o),
(440,73,o),
(423,73,qs),
(151,73,l),
(452,566,l),
(452,623,l),
(58,623,l),
(58,549,l),
(352,549,l),
(46,57,l),
(46,0,l)
);
}
);
width = 500;
}
);
note = Z;
unicode = 90;
},
{
glyphname = a;
lastChange = "2026-02-05 09:00:31 +0000";
layers = (
{
layerId = m01;
shapes = (
{
closed = 1;
nodes = (
(269,-4,o),
(308,12,o),
(343,41,o),
(356,63,q),
(356,0,l),
(447,0,l),
(447,251,ls),
(447,315,o),
(417,399,o),
(362,449,o),
(288,470,o),
(243,470,qs),
(196,470,o),
(108,438,o),
(73,404,q),
(117,351,l),
(144,378,o),
(205,401,o),
(238,401,qs),
(282,401,o),
(340,372,o),
(369,300,o),
(369,236,qs),
(369,191,o),
(349,124,o),
(310,78,o),
(255,55,o),
(219,55,qs),
(200,55,o),
(168,62,o),
(144,78,o),
(130,104,o),
(130,124,qs),
(130,147,o),
(152,182,o),
(192,205,o),
(251,217,o),
(288,217,qs),
(303,217,o),
(336,216,o),
(370,213,o),
(386,211,q),
(383,274,l),
(365,276,o),
(330,279,o),
(299,279,o),
(285,279,qs),
(232,279,o),
(144,256,o),
(80,214,o),
(45,153,o),
(45,116,qs),
(45,60,o),
(129,-11,o),
(207,-11,qs),
(227,-11,o)
);
}
);
userData = {
assembly = "NPUSHB[ ]	/* 20 values pushed */
49 10 114 12 8 8 13 17 17 0 36 43 7 114 51 27 27 0 11 114
SVTCA[0]	/* SetFreedomAndProjectionVectorToAxis */
CALL[ ]	/* CallFunction */
SHP[0]	/* ShiftPointByLastPoint */
SRP1[ ]	/* SetRefPoint1 */
SHP[1]	/* ShiftPointByLastPoint */
CALL[ ]	/* CallFunction */
SHP[0]	/* ShiftPointByLastPoint */
SRP1[ ]	/* SetRefPoint1 */
IP[ ]	/* InterpolatePts */
MDAP[1]	/* MoveDirectAbsPt */
SHP[1]	/* ShiftPointByLastPoint */
SHP[1]	/* ShiftPointByLastPoint */
SRP1[ ]	/* SetRefPoint1 */
SHP[1]	/* ShiftPointByLastPoint */
CALL[ ]	/* CallFunction */
IUP[0]	/* InterpolateUntPts */
IUP[1]	/* InterpolateUntPts */";
};
width = 500;
},
{
layerId = m002;
shapes = (
{
closed = 1;
nodes = (
(269,-4,o),
(308,12,o),
(343,41,o),
(356,63,q),
(356,0,l),
(447,0,l),
(447,251,ls),
(447,315,o),
(417,399,o),
(362,449,o),
(288,470,o),
(243,470,qs),
(196,470,o),
(108,438,o),
(73,404,q),
(117,351,l),
(144,378,o),
(205,401,o),
(238,401,qs),
(282,401,o),
(340,372,o),
(369,300,o),
(369,236,qs),
(369,191,o),
(349,124,o),
(310,78,o),
(255,55,o),
(219,55,qs),
(200,55,o),
(168,62,o),
(144,78,o),
(130,104,o),
(130,124,qs),
(130,147,o),
(152,182,o),
(192,205,o),
(251,217,o),
(288,217,qs),
(303,217,o),
(336,216,o),
(370,213,o),
(386,211,q),
(383,274,l),
(365,276,o),
(330,279,o),
(299,279,o),
(285,279,qs),
(232,279,o),
(144,256,o),
(80,214,o),
(45,153,o),
(45,116,qs),
(45,60,o),
(129,-11,o),
(207,-11,qs),
(227,-11,o)
);
}
);
width = 500;
}
);
note = a;
unicode = 97;
},
{
glyphname = b;
lastChange = "2026-02-05 09:00:31 +0000";
layers = (
{
layerId = m01;
shapes = (
{
closed = 1;
nodes = (
(307,-11,o),
(376,19,o),
(430,80,o),
(462,173,o),
(462,235,qs),
(462,294,o),
(435,382,o),
(385,441,o),
(316,471,o),
(274,471,qs),
(255,471,o),
(217,461,o),
(182,440,o),
(154,412,o),
(143,396,q),
(143,622,ls),
(143,639,o),
(146,653,o),
(152,659,q),
(152,667,l),
(56,667,l),
(56,0,l),
(115,0,l),
(138,57,l),
(154,36,o),
(195,5,o),
(243,-11,o),
(270,-11,qs)
);
},
{
closed = 1;
nodes = (
(226,61,o),
(183,84,o),
(156,129,o),
(143,191,o),
(143,230,qs),
(143,281,o),
(172,359,o),
(224,401,o),
(259,401,qs),
(285,401,o),
(328,380,o),
(358,337,o),
(375,272,o),
(375,229,qs),
(375,183,o),
(356,118,o),
(322,78,o),
(280,61,o),
(257,61,qs)
);
}
);
userData = {
assembly = "NPUSHB[ ]	/* 18 values pushed */
4 49 49 29 11 114 14 40 40 19 7 114 7 0 114 6 10 114
SVTCA[0]	/* SetFreedomAndProjectionVectorToAxis */
CALL[ ]	/* CallFunction */
CALL[ ]	/* CallFunction */
CALL[ ]	/* CallFunction */
SHP[0]	/* ShiftPointByLastPoint */
SRP1[ ]	/* SetRefPoint1 */
SHP[1]	/* ShiftPointByLastPoint */
CALL[ ]	/* CallFunction */
SHP[0]	/* ShiftPointByLastPoint */
SRP1[ ]	/* SetRefPoint1 */
SHP[1]	/* ShiftPointByLastPoint */
IUP[0]	/* InterpolateUntPts */
IUP[1]	/* InterpolateUntPts */";
};
width = 500;
},
{
layerId = m002;
shapes = (
{
closed = 1;
nodes = (
(307,-11,o),
(376,19,o),
(430,80,o),
(462,173,o),
(462,235,qs),
(462,294,o),
(435,382,o),
(385,441,o),
(316,471,o),
(274,471,qs),
(255,471,o),
(217,461,o),
(182,440,o),
(154,412,o),
(143,396,q),
(143,622,ls),
(143,639,o),
(146,653,o),
(152,659,q),
(152,667,l),
(56,667,l),
(56,0,l),
(115,0,l),
(138,57,l),
(154,36,o),
(195,5,o),
(243,-11,o),
(270,-11,qs)
);
},
{
closed = 1;
nodes = (
(226,61,o),
(183,84,o),
(156,129,o),
(143,191,o),
(143,230,qs),
(143,281,o),
(172,359,o),
(224,401,o),
(259,401,qs),
(285,401,o),
(328,380,o),
(358,337,o),
(375,272,o),
(375,229,qs),
(375,183,o),
(356,118,o),
(322,78,o),
(280,61,o),
(257,61,qs)
);
}
);
width = 500;
}
);
note = b;
unicode = 98;
},
{
glyphname = c;
lastChange = "2026-02-05 09:00:31 +0000";
layers = (
{
layerId = m01;
shapes = (
{
closed = 1;
nodes = (
(331,-11,o),
(419,25,o),
(454,63,q),
(405,119,l),
(389,100,o),
(351,75,o),
(309,63,o),
(287,63,qs),
(256,63,o),
(201,88,o),
(161,133,o),
(138,194,o),
(138,232,qs),
(138,270,o),
(161,332,o),
(200,375,o),
(250,398,o),
(277,398,qs),
(309,398,o),
(358,383,o),
(379,364,qs),
(391,352,o),
(397,337,o),
(397,329,q),
(403,323,l),
(409,330,l),
(460,383,l),
(432,423,o),
(341,469,o),
(282,469,qs),
(232,469,o),
(147,432,o),
(85,367,o),
(50,279,o),
(50,228,qs),
(50,176,o),
(85,89,o),
(147,25,o),
(232,-11,o),
(283,-11,qs)
);
}
);
userData = {
assembly = "NPUSHB[ ]	/* 9 values pushed */
32 40 22 10 7 114 40 11 114
SVTCA[0]	/* SetFreedomAndProjectionVectorToAxis */
CALL[ ]	/* CallFunction */
CALL[ ]	/* CallFunction */
SHP[0]	/* ShiftPointByLastPoint */
SRP1[ ]	/* SetRefPoint1 */
SHP[1]	/* ShiftPointByLastPoint */
IUP[0]	/* InterpolateUntPts */
IUP[1]	/* InterpolateUntPts */";
};
width = 500;
},
{
layerId = m002;
shapes = (
{
closed = 1;
nodes = (
(331,-11,o),
(419,25,o),
(454,63,q),
(405,119,l),
(389,100,o),
(351,75,o),
(309,63,o),
(287,63,qs),
(256,63,o),
(201,88,o),
(161,133,o),
(138,194,o),
(138,232,qs),
(138,270,o),
(161,332,o),
(200,375,o),
(250,398,o),
(277,398,qs),
(309,398,o),
(358,383,o),
(379,364,qs),
(391,352,o),
(397,337,o),
(397,329,q),
(403,323,l),
(409,330,l),
(460,383,l),
(432,423,o),
(341,469,o),
(282,469,qs),
(232,469,o),
(147,432,o),
(85,367,o),
(50,279,o),
(50,228,qs),
(50,176,o),
(85,89,o),
(147,25,o),
(232,-11,o),
(283,-11,qs)
);
}
);
width = 500;
}
);
note = c;
unicode = 99;
},
{
glyphname = d;
lastChange = "2026-02-05 09:00:31 +0000";
layers = (
{
layerId = m01;
shapes = (
{
closed = 1;
nodes = (
(259,-10,o),
(307,7,o),
(345,41,o),
(359,64,q),
(359,53,o),
(360,32,o),
(364,12,o),
(369,0,q),
(453,0,l),
(446,17,o),
(443,51,o),
(443,68,qs),
(442,622,ls),
(442,639,o),
(445,653,o),
(451,659,q),
(451,667,l),
(360,667,l),
(360,401,l),
(349,423,o),
(312,454,o),
(263,472,o),
(234,472,qs),
(197,472,o),
(129,444,o),
(74,385,o),
(41,296,o),
(41,234,qs),
(41,172,o),
(73,80,o),
(127,20,o),
(195,-10,o),
(231,-10,qs)
);
},
{
closed = 1;
nodes = (
(208,62,o),
(154,107,o),
(125,187,o),
(125,242,qs),
(125,279,o),
(140,338,o),
(168,381,o),
(212,403,o),
(240,403,qs),
(280,403,o),
(332,360,o),
(356,283,o),
(356,232,qs),
(356,195,o),
(343,132,o),
(317,86,o),
(275,62,o),
(245,62,qs)
);
}
);
userData = {
assembly = "NPUSHB[ ]	/* 18 values pushed */
30 53 53 34 11 114 26 10 114 15 0 114 14 44 44 10 7 114
SVTCA[0]	/* SetFreedomAndProjectionVectorToAxis */
CALL[ ]	/* CallFunction */
SHP[0]	/* ShiftPointByLastPoint */
SRP1[ ]	/* SetRefPoint1 */
SHP[1]	/* ShiftPointByLastPoint */
CALL[ ]	/* CallFunction */
CALL[ ]	/* CallFunction */
CALL[ ]	/* CallFunction */
SHP[0]	/* ShiftPointByLastPoint */
SRP1[ ]	/* SetRefPoint1 */
SHP[1]	/* ShiftPointByLastPoint */
IUP[0]	/* InterpolateUntPts */
IUP[1]	/* InterpolateUntPts */";
};
width = 500;
},
{
layerId = m002;
shapes = (
{
closed = 1;
nodes = (
(259,-10,o),
(307,7,o),
(345,41,o),
(359,64,q),
(359,53,o),
(360,32,o),
(364,12,o),
(369,0,q),
(453,0,l),
(446,17,o),
(443,51,o),
(443,68,qs),
(442,622,ls),
(442,639,o),
(445,653,o),
(451,659,q),
(451,667,l),
(360,667,l),
(360,401,l),
(349,423,o),
(312,454,o),
(263,472,o),
(234,472,qs),
(197,472,o),
(129,444,o),
(74,385,o),
(41,296,o),
(41,234,qs),
(41,172,o),
(73,80,o),
(127,20,o),
(195,-10,o),
(231,-10,qs)
);
},
{
closed = 1;
nodes = (
(208,62,o),
(154,107,o),
(125,187,o),
(125,242,qs),
(125,279,o),
(140,338,o),
(168,381,o),
(212,403,o),
(240,403,qs),
(280,403,o),
(332,360,o),
(356,283,o),
(356,232,qs),
(356,195,o),
(343,132,o),
(317,86,o),
(275,62,o),
(245,62,qs)
);
}
);
width = 500;
}
);
note = d;
unicode = 100;
},
{
glyphname = e;
lastChange = "2026-02-05 09:00:31 +0000";
layers = (
{
layerId = m01;
shapes = (
{
closed = 1;
nodes = (
(365,5,o),
(416,38,o),
(436,62,q),
(390,106,l),
(375,90,o),
(339,68,o),
(298,58,o),
(275,58,qs),
(246,58,o),
(195,76,o),
(155,113,o),
(130,172,o),
(128,213,q),
(447,213,l),
(448,221,o),
(449,242,o),
(449,251,qs),
(449,307,o),
(419,390,o),
(368,444,o),
(298,471,o),
(259,471,qs),
(215,471,o),
(137,438,o),
(79,376,o),
(46,286,o),
(46,228,qs),
(46,171,o),
(78,81,o),
(139,21,o),
(222,-10,o),
(272,-10,qs),
(306,-10,o)
);
},
{
closed = 1;
nodes = (
(158,358,o),
(191,390,o),
(231,405,o),
(254,405,qs),
(279,405,o),
(320,388,o),
(348,354,o),
(364,308,o),
(364,278,q),
(131,278,l),
(135,311,o)
);
}
);
userData = {
assembly = "NPUSHB[ ]	/* 13 values pushed */
24 0 19 33 33 0 39 10 7 114 0 11 114
SVTCA[0]	/* SetFreedomAndProjectionVectorToAxis */
CALL[ ]	/* CallFunction */
CALL[ ]	/* CallFunction */
SHP[0]	/* ShiftPointByLastPoint */
SRP1[ ]	/* SetRefPoint1 */
IP[ ]	/* InterpolatePts */
MDAP[1]	/* MoveDirectAbsPt */
SHP[1]	/* ShiftPointByLastPoint */
SRP1[ ]	/* SetRefPoint1 */
SHP[1]	/* ShiftPointByLastPoint */
IUP[0]	/* InterpolateUntPts */
IUP[1]	/* InterpolateUntPts */";
};
width = 500;
},
{
layerId = m002;
shapes = (
{
closed = 1;
nodes = (
(365,5,o),
(416,38,o),
(436,62,q),
(390,106,l),
(375,90,o),
(339,68,o),
(298,58,o),
(275,58,qs),
(246,58,o),
(195,76,o),
(155,113,o),
(130,172,o),
(128,213,q),
(447,213,l),
(448,221,o),
(449,242,o),
(449,251,qs),
(449,307,o),
(419,390,o),
(368,444,o),
(298,471,o),
(259,471,qs),
(215,471,o),
(137,438,o),
(79,376,o),
(46,286,o),
(46,228,qs),
(46,171,o),
(78,81,o),
(139,21,o),
(222,-10,o),
(272,-10,qs),
(306,-10,o)
);
},
{
closed = 1;
nodes = (
(158,358,o),
(191,390,o),
(231,405,o),
(254,405,qs),
(279,405,o),
(320,388,o),
(348,354,o),
(364,308,o),
(364,278,q),
(131,278,l),
(135,311,o)
);
}
);
width = 500;
}
);
note = e;
unicode = 101;
},
{
glyphname = f;
lastChange = "2026-02-05 09:00:31 +0000";
layers = (
{
layerId = m01;
shapes = (
{
closed = 1;
nodes = (
(238,0,l),
(238,392,l),
(384,392,l),
(384,460,l),
(238,460,l),
(238,495,ls),
(238,535,o),
(262,583,o),
(306,605,o),
(334,605,qs),
(358,605,o),
(390,594,o),
(407,580,qs),
(418,569,o),
(424,553,o),
(426,545,q),
(433,541,l),
(438,549,l),
(478,610,l),
(452,642,o),
(375,673,o),
(330,673,qs),
(281,673,o),
(201,635,o),
(154,556,o),
(154,494,qs),
(154,460,l),
(55,460,l),
(55,392,l),
(154,392,l),
(154,0,l)
);
}
);
userData = {
assembly = "NPUSHB[ ]	/* 14 values pushed */
30 10 114 1 28 28 2 25 6 114 20 8 1 114
SVTCA[0]	/* SetFreedomAndProjectionVectorToAxis */
CALL[ ]	/* CallFunction */
SHP[0]	/* ShiftPointByLastPoint */
CALL[ ]	/* CallFunction */
SHP[0]	/* ShiftPointByLastPoint */
SHP[0]	/* ShiftPointByLastPoint */
SRP1[ ]	/* SetRefPoint1 */
SHP[1]	/* ShiftPointByLastPoint */
CALL[ ]	/* CallFunction */
IUP[0]	/* InterpolateUntPts */
IUP[1]	/* InterpolateUntPts */";
};
width = 500;
},
{
layerId = m002;
shapes = (
{
closed = 1;
nodes = (
(238,0,l),
(238,392,l),
(384,392,l),
(384,460,l),
(238,460,l),
(238,495,ls),
(238,535,o),
(262,583,o),
(306,605,o),
(334,605,qs),
(358,605,o),
(390,594,o),
(407,580,qs),
(418,569,o),
(424,553,o),
(426,545,q),
(433,541,l),
(438,549,l),
(478,610,l),
(452,642,o),
(375,673,o),
(330,673,qs),
(281,673,o),
(201,635,o),
(154,556,o),
(154,494,qs),
(154,460,l),
(55,460,l),
(55,392,l),
(154,392,l),
(154,0,l)
);
}
);
width = 500;
}
);
note = f;
unicode = 102;
},
{
glyphname = g;
lastChange = "2026-02-05 09:00:31 +0000";
layers = (
{
layerId = m01;
shapes = (
{
closed = 1;
nodes = (
(378,-150,o),
(427,-110,o),
(450,-59,o),
(450,-31,qs),
(450,-6,o),
(435,37,o),
(399,70,o),
(335,88,o),
(285,88,qs),
(231,88,o),
(166,97,o),
(139,115,o),
(139,130,qs),
(139,139,o),
(145,153,o),
(158,168,o),
(168,179,q),
(128,207,l),
(102,185,o),
(69,137,o),
(69,109,qs),
(69,88,o),
(88,56,o),
(122,35,o),
(171,21,o),
(231,15,o),
(265,15,qs),
(311,15,o),
(359,3,o),
(375,-22,o),
(375,-42,qs),
(375,-61,o),
(347,-92,o),
(291,-109,o),
(248,-109,qs),
(216,-109,o),
(164,-100,o),
(128,-84,o),
(108,-59,o),
(108,-44,qs),
(108,-25,o),
(119,2,o),
(142,23,o),
(159,34,q),
(122,53,l),
(98,45,o),
(59,15,o),
(35,-28,o),
(35,-55,qs),
(35,-84,o),
(64,-128,o),
(118,-158,o),
(196,-174,o),
(244,-174,qs),
(300,-174,o)
);
},
{
closed = 1;
nodes = (
(350,198,o),
(391,271,o),
(391,316,qs),
(391,360,o),
(350,432,o),
(277,476,o),
(227,476,qs),
(178,476,o),
(104,432,o),
(63,360,o),
(63,316,qs),
(63,271,o),
(104,198,o),
(178,156,o),
(227,156,qs),
(277,156,o)
);
},
{
closed = 1;
nodes = (
(159,248,o),
(135,291,o),
(135,316,qs),
(135,341,o),
(159,383,o),
(201,408,o),
(227,408,qs),
(254,408,o),
(295,383,o),
(320,342,o),
(320,316,qs),
(320,290,o),
(295,248,o),
(254,223,o),
(227,223,qs),
(201,223,o)
);
},
{
closed = 1;
nodes = (
(446,410,o),
(478,406,q),
(468,472,l),
(426,475,o),
(360,449,o),
(331,422,q),
(364,382,l),
(388,400,o)
);
}
);
userData = {
assembly = "NPUSHB[ ]	/* 34 values pushed */
87 92 92 91 37 36 71 71 55 79 63 41 33 45 9 10 27 23 7 55 55 0 88 91 63 7 114 91 7 114 19 0 15 114
SVTCA[0]	/* SetFreedomAndProjectionVectorToAxis */
CALL[ ]	/* CallFunction */
SHP[0]	/* ShiftPointByLastPoint */
CALL[ ]	/* CallFunction */
CALL[ ]	/* CallFunction */
SRP1[ ]	/* SetRefPoint1 */
SHP[1]	/* ShiftPointByLastPoint */
SRP2[ ]	/* SetRefPoint2 */
IP[ ]	/* InterpolatePts */
MDAP[1]	/* MoveDirectAbsPt */
SLOOP[ ]	/* SetLoopVariable */
IP[ ]	/* InterpolatePts */
SRP1[ ]	/* SetRefPoint1 */
SHP[1]	/* ShiftPointByLastPoint */
SRP1[ ]	/* SetRefPoint1 */
SHP[1]	/* ShiftPointByLastPoint */
SRP2[ ]	/* SetRefPoint2 */
IP[ ]	/* InterpolatePts */
IP[ ]	/* InterpolatePts */
SRP1[ ]	/* SetRefPoint1 */
SHP[1]	/* ShiftPointByLastPoint */
SRP1[ ]	/* SetRefPoint1 */
SHP[1]	/* ShiftPointByLastPoint */
IUP[0]	/* InterpolateUntPts */
IUP[1]	/* InterpolateUntPts */";
};
width = 500;
},
{
layerId = m002;
shapes = (
{
closed = 1;
nodes = (
(378,-150,o),
(427,-110,o),
(450,-59,o),
(450,-31,qs),
(450,-6,o),
(435,37,o),
(399,70,o),
(335,88,o),
(285,88,qs),
(231,88,o),
(166,97,o),
(139,115,o),
(139,130,qs),
(139,139,o),
(145,153,o),
(158,168,o),
(168,179,q),
(128,207,l),
(102,185,o),
(69,137,o),
(69,109,qs),
(69,88,o),
(88,56,o),
(122,35,o),
(171,21,o),
(231,15,o),
(265,15,qs),
(311,15,o),
(359,3,o),
(375,-22,o),
(375,-42,qs),
(375,-61,o),
(347,-92,o),
(291,-109,o),
(248,-109,qs),
(216,-109,o),
(164,-100,o),
(128,-84,o),
(108,-59,o),
(108,-44,qs),
(108,-25,o),
(119,2,o),
(142,23,o),
(159,34,q),
(122,53,l),
(98,45,o),
(59,15,o),
(35,-28,o),
(35,-55,qs),
(35,-84,o),
(64,-128,o),
(118,-158,o),
(196,-174,o),
(244,-174,qs),
(300,-174,o)
);
},
{
closed = 1;
nodes = (
(350,198,o),
(391,271,o),
(391,316,qs),
(391,360,o),
(350,432,o),
(277,476,o),
(227,476,qs),
(178,476,o),
(104,432,o),
(63,360,o),
(63,316,qs),
(63,271,o),
(104,198,o),
(178,156,o),
(227,156,qs),
(277,156,o)
);
},
{
closed = 1;
nodes = (
(159,248,o),
(135,291,o),
(135,316,qs),
(135,341,o),
(159,383,o),
(201,408,o),
(227,408,qs),
(254,408,o),
(295,383,o),
(320,342,o),
(320,316,qs),
(320,290,o),
(295,248,o),
(254,223,o),
(227,223,qs),
(201,223,o)
);
},
{
closed = 1;
nodes = (
(446,410,o),
(478,406,q),
(468,472,l),
(426,475,o),
(360,449,o),
(331,422,q),
(364,382,l),
(388,400,o)
);
}
);
width = 500;
}
);
note = g;
unicode = 103;
},
{
glyphname = h;
lastChange = "2026-02-05 09:00:31 +0000";
layers = (
{
layerId = m01;
shapes = (
{
closed = 1;
nodes = (
(152,0,l),
(152,264,ls),
(152,290,o),
(166,332,o),
(191,365,o),
(223,388,o),
(259,400,o),
(277,400,qs),
(300,400,o),
(335,376,o),
(355,322,o),
(355,276,qs),
(355,0,l),
(439,0,l),
(439,278,ls),
(439,347,o),
(404,432,o),
(339,471,o),
(297,471,qs),
(270,471,o),
(217,450,o),
(169,412,o),
(152,385,q),
(152,622,ls),
(152,639,o),
(155,653,o),
(160,659,q),
(160,667,l),
(67,667,l),
(67,0,l)
);
}
);
userData = {
assembly = "NPUSHB[ ]	/* 13 values pushed */
17 30 10 114 7 22 22 11 7 114 0 0 114
SVTCA[0]	/* SetFreedomAndProjectionVectorToAxis */
CALL[ ]	/* CallFunction */
CALL[ ]	/* CallFunction */
SHP[0]	/* ShiftPointByLastPoint */
SRP1[ ]	/* SetRefPoint1 */
SHP[1]	/* ShiftPointByLastPoint */
CALL[ ]	/* CallFunction */
SHP[0]	/* ShiftPointByLastPoint */
IUP[0]	/* InterpolateUntPts */
IUP[1]	/* InterpolateUntPts */";
};
width = 500;
},
{
layerId = m002;
shapes = (
{
closed = 1;
nodes = (
(152,0,l),
(152,264,ls),
(152,290,o),
(166,332,o),
(191,365,o),
(223,388,o),
(259,400,o),
(277,400,qs),
(300,400,o),
(335,376,o),
(355,322,o),
(355,276,qs),
(355,0,l),
(439,0,l),
(439,278,ls),
(439,347,o),
(404,432,o),
(339,471,o),
(297,471,qs),
(270,471,o),
(217,450,o),
(169,412,o),
(152,385,q),
(152,622,ls),
(152,639,o),
(155,653,o),
(160,659,q),
(160,667,l),
(67,667,l),
(67,0,l)
);
}
);
width = 500;
}
);
note = h;
unicode = 104;
},
{
glyphname = i;
lastChange = "2026-02-05 09:00:31 +0000";
layers = (
{
layerId = m01;
shapes = (
{
closed = 1;
nodes = (
(403,68,l),
(297,68,l),
(297,460,l),
(101,460,l),
(101,391,l),
(211,391,l),
(211,68,l),
(95,68,l),
(95,0,l),
(403,0,l)
);
},
{
closed = 1;
nodes = (
(307,583,o),
(307,606,qs),
(307,629,o),
(272,663,o),
(249,663,qs),
(224,663,o),
(191,631,o),
(191,606,qs),
(191,583,o),
(225,549,o),
(249,549,qs),
(272,549,o)
);
}
);
userData = {
assembly = "PUSHB[ ]	/* 7 values pushed */
1 10 5 0 1 96 86
SVTCA[0]	/* SetFreedomAndProjectionVectorToAxis */
CALL[ ]	/* CallFunction */
SHC[0]	/* ShiftContourByLastPt */";
};
width = 500;
},
{
layerId = m002;
shapes = (
{
closed = 1;
nodes = (
(403,68,l),
(297,68,l),
(297,460,l),
(101,460,l),
(101,391,l),
(211,391,l),
(211,68,l),
(95,68,l),
(95,0,l),
(403,0,l)
);
},
{
closed = 1;
nodes = (
(307,583,o),
(307,606,qs),
(307,629,o),
(272,663,o),
(249,663,qs),
(224,663,o),
(191,631,o),
(191,606,qs),
(191,583,o),
(225,549,o),
(249,549,qs),
(272,549,o)
);
}
);
width = 500;
}
);
note = i;
unicode = 105;
},
{
glyphname = j;
lastChange = "2026-02-05 09:00:31 +0000";
layers = (
{
layerId = m01;
shapes = (
{
closed = 1;
nodes = (
(242,-175,o),
(323,-134,o),
(373,-46,o),
(373,24,qs),
(373,460,l),
(119,460,l),
(119,391,l),
(286,391,l),
(286,18,ls),
(286,-24,o),
(263,-77,o),
(221,-102,o),
(192,-102,qs),
(170,-102,o),
(135,-88,o),
(122,-77,q),
(111,-65,o),
(105,-50,o),
(103,-42,q),
(97,-37,l),
(44,-108,l),
(71,-141,o),
(149,-175,o),
(193,-175,qs)
);
},
{
closed = 1;
nodes = (
(381,583,o),
(381,606,qs),
(381,629,o),
(346,663,o),
(323,663,qs),
(298,663,o),
(265,631,o),
(265,606,qs),
(265,583,o),
(299,549,o),
(323,549,qs),
(346,549,o)
);
}
);
userData = {
assembly = "PUSHB[ ]	/* 7 values pushed */
1 26 19 1 1 96 86
SVTCA[0]	/* SetFreedomAndProjectionVectorToAxis */
CALL[ ]	/* CallFunction */
SHC[0]	/* ShiftContourByLastPt */";
};
width = 500;
},
{
layerId = m002;
shapes = (
{
closed = 1;
nodes = (
(242,-175,o),
(323,-134,o),
(373,-46,o),
(373,24,qs),
(373,460,l),
(119,460,l),
(119,391,l),
(286,391,l),
(286,18,ls),
(286,-24,o),
(263,-77,o),
(221,-102,o),
(192,-102,qs),
(170,-102,o),
(135,-88,o),
(122,-77,q),
(111,-65,o),
(105,-50,o),
(103,-42,q),
(97,-37,l),
(44,-108,l),
(71,-141,o),
(149,-175,o),
(193,-175,qs)
);
},
{
closed = 1;
nodes = (
(381,583,o),
(381,606,qs),
(381,629,o),
(346,663,o),
(323,663,qs),
(298,663,o),
(265,631,o),
(265,606,qs),
(265,583,o),
(299,549,o),
(323,549,qs),
(346,549,o)
);
}
);
width = 500;
}
);
note = j;
unicode = 106;
},
{
glyphname = k;
lastChange = "2026-02-05 09:00:31 +0000";
layers = (
{
layerId = m01;
shapes = (
{
closed = 1;
nodes = (
(483,0,l),
(264,276,l),
(454,457,l),
(418,457,ls),
(412,457,o),
(396,458,o),
(381,459,o),
(367,461,o),
(360,462,q),
(148,264,l),
(148,622,ls),
(148,639,o),
(151,653,o),
(157,659,q),
(157,667,l),
(61,667,l),
(61,0,l),
(148,0,l),
(148,173,l),
(201,223,l),
(378,-4,l)
);
}
);
userData = {
assembly = "NPUSHB[ ]	/* 16 values pushed */
1 0 11 19 4 3 18 6 114 4 0 114 20 3 10 114
SVTCA[0]	/* SetFreedomAndProjectionVectorToAxis */
CALL[ ]	/* CallFunction */
SHP[0]	/* ShiftPointByLastPoint */
CALL[ ]	/* CallFunction */
CALL[ ]	/* CallFunction */
SRP2[ ]	/* SetRefPoint2 */
SLOOP[ ]	/* SetLoopVariable */
IP[ ]	/* InterpolatePts */
IUP[0]	/* InterpolateUntPts */
IUP[1]	/* InterpolateUntPts */";
};
width = 500;
},
{
layerId = m002;
shapes = (
{
closed = 1;
nodes = (
(483,0,l),
(264,276,l),
(454,457,l),
(418,457,ls),
(412,457,o),
(396,458,o),
(381,459,o),
(367,461,o),
(360,462,q),
(148,264,l),
(148,622,ls),
(148,639,o),
(151,653,o),
(157,659,q),
(157,667,l),
(61,667,l),
(61,0,l),
(148,0,l),
(148,173,l),
(201,223,l),
(378,-4,l)
);
}
);
width = 500;
}
);
note = k;
unicode = 107;
},
{
glyphname = l;
lastChange = "2026-02-05 09:00:31 +0000";
layers = (
{
layerId = m01;
shapes = (
{
closed = 1;
nodes = (
(427,68,l),
(294,68,l),
(294,667,l),
(80,667,l),
(80,599,l),
(207,599,l),
(207,68,l),
(74,68,l),
(74,0,l),
(427,0,l)
);
}
);
userData = {
assembly = "NPUSHB[ ]	/* 10 values pushed */
4 5 0 114 7 1 1 0 10 114
SVTCA[0]	/* SetFreedomAndProjectionVectorToAxis */
CALL[ ]	/* CallFunction */
SHP[0]	/* ShiftPointByLastPoint */
SRP1[ ]	/* SetRefPoint1 */
SHP[1]	/* ShiftPointByLastPoint */
CALL[ ]	/* CallFunction */
SHP[0]	/* ShiftPointByLastPoint */
IUP[0]	/* InterpolateUntPts */
IUP[1]	/* InterpolateUntPts */";
};
width = 500;
},
{
layerId = m002;
shapes = (
{
closed = 1;
nodes = (
(427,68,l),
(294,68,l),
(294,667,l),
(80,667,l),
(80,599,l),
(207,599,l),
(207,68,l),
(74,68,l),
(74,0,l),
(427,0,l)
);
}
);
width = 500;
}
);
note = l;
unicode = 108;
},
{
glyphname = m;
lastChange = "2026-02-05 09:00:31 +0000";
layers = (
{
layerId = m01;
shapes = (
{
closed = 1;
nodes = (
(112,305,ls),
(112,329,o),
(123,368,o),
(140,393,o),
(161,407,o),
(172,407,qs),
(197,407,o),
(216,371,o),
(216,317,qs),
(216,0,l),
(291,0,l),
(291,301,ls),
(291,328,o),
(310,377,o),
(340,408,o),
(357,408,qs),
(369,408,o),
(386,397,o),
(395,360,o),
(395,322,qs),
(395,0,l),
(472,0,l),
(472,348,ls),
(473,375,o),
(463,421,o),
(440,453,o),
(406,471,o),
(382,471,qs),
(360,471,o),
(320,455,o),
(290,427,o),
(280,407,q),
(275,427,o),
(252,456,o),
(219,471,o),
(200,471,qs),
(183,471,o),
(150,458,o),
(122,435,o),
(111,418,q),
(111,460,l),
(35,460,l),
(35,0,l),
(112,0,l)
);
}
);
userData = {
assembly = "NPUSHB[ ]	/* 19 values pushed */
3 37 11 27 27 15 15 37 7 7 114 1 6 114 33 22 0 10 114
SVTCA[0]	/* SetFreedomAndProjectionVectorToAxis */
CALL[ ]	/* CallFunction */
SHP[0]	/* ShiftPointByLastPoint */
SHP[0]	/* ShiftPointByLastPoint */
CALL[ ]	/* CallFunction */
CALL[ ]	/* CallFunction */
SHP[0]	/* ShiftPointByLastPoint */
SHP[0]	/* ShiftPointByLastPoint */
SRP1[ ]	/* SetRefPoint1 */
SHP[1]	/* ShiftPointByLastPoint */
SRP1[ ]	/* SetRefPoint1 */
SHP[1]	/* ShiftPointByLastPoint */
SRP1[ ]	/* SetRefPoint1 */
SHP[1]	/* ShiftPointByLastPoint */
IUP[0]	/* InterpolateUntPts */
IUP[1]	/* InterpolateUntPts */";
};
width = 500;
},
{
layerId = m002;
shapes = (
{
closed = 1;
nodes = (
(112,305,ls),
(112,329,o),
(123,368,o),
(140,393,o),
(161,407,o),
(172,407,qs),
(197,407,o),
(216,371,o),
(216,317,qs),
(216,0,l),
(291,0,l),
(291,301,ls),
(291,328,o),
(310,377,o),
(340,408,o),
(357,408,qs),
(369,408,o),
(386,397,o),
(395,360,o),
(395,322,qs),
(395,0,l),
(472,0,l),
(472,348,ls),
(473,375,o),
(463,421,o),
(440,453,o),
(406,471,o),
(382,471,qs),
(360,471,o),
(320,455,o),
(290,427,o),
(280,407,q),
(275,427,o),
(252,456,o),
(219,471,o),
(200,471,qs),
(183,471,o),
(150,458,o),
(122,435,o),
(111,418,q),
(111,460,l),
(35,460,l),
(35,0,l),
(112,0,l)
);
}
);
width = 500;
}
);
note = m;
unicode = 109;
},
{
glyphname = n;
lastChange = "2026-02-05 09:00:31 +0000";
layers = (
{
layerId = m01;
shapes = (
{
closed = 1;
nodes = (
(151,268,ls),
(151,298,o),
(173,347,o),
(210,381,o),
(254,400,o),
(275,400,qs),
(298,400,o),
(334,375,o),
(354,321,o),
(354,276,qs),
(354,0,l),
(438,0,l),
(438,278,ls),
(438,348,o),
(400,432,o),
(338,471,o),
(299,471,qs),
(269,471,o),
(214,449,o),
(168,410,o),
(151,384,q),
(151,460,l),
(66,460,l),
(66,0,l),
(151,0,l)
);
}
);
userData = {
assembly = "NPUSHB[ ]	/* 13 values pushed */
3 18 18 7 7 114 1 6 114 13 0 10 114
SVTCA[0]	/* SetFreedomAndProjectionVectorToAxis */
CALL[ ]	/* CallFunction */
SHP[0]	/* ShiftPointByLastPoint */
CALL[ ]	/* CallFunction */
CALL[ ]	/* CallFunction */
SHP[0]	/* ShiftPointByLastPoint */
SRP1[ ]	/* SetRefPoint1 */
SHP[1]	/* ShiftPointByLastPoint */
IUP[0]	/* InterpolateUntPts */
IUP[1]	/* InterpolateUntPts */";
};
width = 500;
},
{
layerId = m002;
shapes = (
{
closed = 1;
nodes = (
(151,268,ls),
(151,298,o),
(173,347,o),
(210,381,o),
(254,400,o),
(275,400,qs),
(298,400,o),
(334,375,o),
(354,321,o),
(354,276,qs),
(354,0,l),
(438,0,l),
(438,278,ls),
(438,348,o),
(400,432,o),
(338,471,o),
(299,471,qs),
(269,471,o),
(214,449,o),
(168,410,o),
(151,384,q),
(151,460,l),
(66,460,l),
(66,0,l),
(151,0,l)
);
}
);
width = 500;
}
);
note = n;
unicode = 110;
},
{
glyphname = o;
lastChange = "2026-02-05 09:00:31 +0000";
layers = (
{
layerId = m01;
shapes = (
{
closed = 1;
nodes = (
(409,52,o),
(465,160,o),
(465,230,qs),
(465,300,o),
(409,408,o),
(312,470,o),
(250,470,qs),
(188,470,o),
(91,408,o),
(35,300,o),
(35,230,qs),
(35,160,o),
(91,52,o),
(188,-9,o),
(250,-9,qs),
(312,-9,o)
);
},
{
closed = 1;
nodes = (
(156,105,o),
(124,181,o),
(124,231,qs),
(124,281,o),
(157,357,o),
(214,400,o),
(250,400,qs),
(287,400,o),
(343,357,o),
(376,281,o),
(376,231,qs),
(376,181,o),
(343,105,o),
(287,61,o),
(250,61,qs),
(213,61,o)
);
}
);
userData = {
assembly = "NPUSHB[ ]	/* 9 values pushed */
16 0 24 8 7 114 0 11 114
SVTCA[0]	/* SetFreedomAndProjectionVectorToAxis */
CALL[ ]	/* CallFunction */
CALL[ ]	/* CallFunction */
SHP[0]	/* ShiftPointByLastPoint */
SRP1[ ]	/* SetRefPoint1 */
SHP[1]	/* ShiftPointByLastPoint */
IUP[0]	/* InterpolateUntPts */
IUP[1]	/* InterpolateUntPts */";
};
width = 500;
},
{
layerId = m002;
shapes = (
{
closed = 1;
nodes = (
(409,52,o),
(465,160,o),
(465,230,qs),
(465,300,o),
(409,408,o),
(312,470,o),
(250,470,qs),
(188,470,o),
(91,408,o),
(35,300,o),
(35,230,qs),
(35,160,o),
(91,52,o),
(188,-9,o),
(250,-9,qs),
(312,-9,o)
);
},
{
closed = 1;
nodes = (
(156,105,o),
(124,181,o),
(124,231,qs),
(124,281,o),
(157,357,o),
(214,400,o),
(250,400,qs),
(287,400,o),
(343,357,o),
(376,281,o),
(376,231,qs),
(376,181,o),
(343,105,o),
(287,61,o),
(250,61,qs),
(213,61,o)
);
}
);
width = 500;
}
);
note = o;
unicode = 111;
},
{
glyphname = p;
lastChange = "2026-02-05 09:00:31 +0000";
layers = (
{
layerId = m01;
shapes = (
{
closed = 1;
nodes = (
(144,53,l),
(159,33,o),
(200,3,o),
(250,-12,o),
(276,-12,qs),
(312,-12,o),
(380,19,o),
(435,79,o),
(467,171,o),
(467,232,qs),
(467,292,o),
(436,381,o),
(384,440,o),
(316,470,o),
(278,470,qs),
(248,470,o),
(195,451,o),
(154,410,o),
(142,378,q),
(142,460,l),
(56,460,l),
(56,-167,l),
(144,-167,l)
);
},
{
closed = 1;
nodes = (
(201,73,o),
(174,97,o),
(154,135,o),
(144,185,o),
(143,217,qs),
(143,267,o),
(161,337,o),
(195,381,o),
(240,401,o),
(267,399,qs),
(303,397,o),
(353,357,o),
(379,284,o),
(379,232,qs),
(379,182,o),
(359,116,o),
(324,77,o),
(281,60,o),
(258,60,qs),
(237,60,o)
);
}
);
userData = {
assembly = "NPUSHB[ ]	/* 18 values pushed */
21 23 23 17 11 114 3 32 32 7 7 114 1 6 114 0 14 114
SVTCA[0]	/* SetFreedomAndProjectionVectorToAxis */
CALL[ ]	/* CallFunction */
CALL[ ]	/* CallFunction */
CALL[ ]	/* CallFunction */
SHP[0]	/* ShiftPointByLastPoint */
SRP1[ ]	/* SetRefPoint1 */
SHP[1]	/* ShiftPointByLastPoint */
CALL[ ]	/* CallFunction */
SHP[0]	/* ShiftPointByLastPoint */
SRP1[ ]	/* SetRefPoint1 */
SHP[1]	/* ShiftPointByLastPoint */
IUP[0]	/* InterpolateUntPts */
IUP[1]	/* InterpolateUntPts */";
};
width = 500;
},
{
layerId = m002;
shapes = (
{
closed = 1;
nodes = (
(144,53,l),
(159,33,o),
(200,3,o),
(250,-12,o),
(276,-12,qs),
(312,-12,o),
(380,19,o),
(435,79,o),
(467,171,o),
(467,232,qs),
(467,292,o),
(436,381,o),
(384,440,o),
(316,470,o),
(278,470,qs),
(248,470,o),
(195,451,o),
(154,410,o),
(142,378,q),
(142,460,l),
(56,460,l),
(56,-167,l),
(144,-167,l)
);
},
{
closed = 1;
nodes = (
(201,73,o),
(174,97,o),
(154,135,o),
(144,185,o),
(143,217,qs),
(143,267,o),
(161,337,o),
(195,381,o),
(240,401,o),
(267,399,qs),
(303,397,o),
(353,357,o),
(379,284,o),
(379,232,qs),
(379,182,o),
(359,116,o),
(324,77,o),
(281,60,o),
(258,60,qs),
(237,60,o)
);
}
);
width = 500;
}
);
note = p;
unicode = 112;
},
{
glyphname = q;
lastChange = "2026-02-05 09:00:31 +0000";
layers = (
{
layerId = m01;
shapes = (
{
closed = 1;
nodes = (
(446,460,l),
(364,460,l),
(364,400,l),
(355,416,o),
(331,443,o),
(299,462,o),
(262,471,o),
(239,471,qs),
(196,471,o),
(122,439,o),
(67,376,o),
(37,287,o),
(37,231,qs),
(37,177,o),
(65,88,o),
(117,25,o),
(188,-10,o),
(229,-10,qs),
(257,-10,o),
(307,7,o),
(347,41,o),
(360,63,q),
(360,-167,l),
(446,-167,l)
);
},
{
closed = 1;
nodes = (
(172,84,o),
(140,128,o),
(123,192,o),
(123,234,qs),
(123,279,o),
(143,343,o),
(177,384,o),
(224,403,o),
(250,403,qs),
(274,403,o),
(313,386,o),
(343,348,o),
(359,285,o),
(359,240,qs),
(359,192,o),
(342,123,o),
(310,81,o),
(268,61,o),
(244,61,qs),
(217,61,o)
);
}
);
userData = {
assembly = "NPUSHB[ ]	/* 18 values pushed */
23 14 114 22 6 114 20 34 34 15 7 114 1 24 24 5 11 114
SVTCA[0]	/* SetFreedomAndProjectionVectorToAxis */
CALL[ ]	/* CallFunction */
SHP[0]	/* ShiftPointByLastPoint */
SRP1[ ]	/* SetRefPoint1 */
SHP[1]	/* ShiftPointByLastPoint */
CALL[ ]	/* CallFunction */
SHP[0]	/* ShiftPointByLastPoint */
SRP1[ ]	/* SetRefPoint1 */
SHP[1]	/* ShiftPointByLastPoint */
CALL[ ]	/* CallFunction */
CALL[ ]	/* CallFunction */
IUP[0]	/* InterpolateUntPts */
IUP[1]	/* InterpolateUntPts */";
};
width = 500;
},
{
layerId = m002;
shapes = (
{
closed = 1;
nodes = (
(446,460,l),
(364,460,l),
(364,400,l),
(355,416,o),
(331,443,o),
(299,462,o),
(262,471,o),
(239,471,qs),
(196,471,o),
(122,439,o),
(67,376,o),
(37,287,o),
(37,231,qs),
(37,177,o),
(65,88,o),
(117,25,o),
(188,-10,o),
(229,-10,qs),
(257,-10,o),
(307,7,o),
(347,41,o),
(360,63,q),
(360,-167,l),
(446,-167,l)
);
},
{
closed = 1;
nodes = (
(172,84,o),
(140,128,o),
(123,192,o),
(123,234,qs),
(123,279,o),
(143,343,o),
(177,384,o),
(224,403,o),
(250,403,qs),
(274,403,o),
(313,386,o),
(343,348,o),
(359,285,o),
(359,240,qs),
(359,192,o),
(342,123,o),
(310,81,o),
(268,61,o),
(244,61,qs),
(217,61,o)
);
}
);
width = 500;
}
);
note = q;
unicode = 113;
},
{
glyphname = r;
lastChange = "2026-02-05 09:00:31 +0000";
layers = (
{
layerId = m01;
shapes = (
{
closed = 1;
nodes = (
(196,-1,l),
(196,243,ls),
(196,283,o),
(218,342,o),
(257,380,o),
(305,398,o),
(329,398,qs),
(347,398,o),
(375,390,o),
(390,379,qs),
(403,369,o),
(410,354,o),
(413,346,q),
(420,342,l),
(424,351,l),
(461,420,l),
(436,446,o),
(375,471,o),
(338,471,qs),
(311,471,o),
(261,453,o),
(220,419,o),
(191,371,o),
(185,340,q),
(196,328,l),
(198,460,l),
(109,460,l),
(109,-1,l)
);
}
);
userData = {
assembly = "NPUSHB[ ]	/* 14 values pushed */
27 10 114 3 2 2 20 20 8 7 114 0 6 114
SVTCA[0]	/* SetFreedomAndProjectionVectorToAxis */
CALL[ ]	/* CallFunction */
CALL[ ]	/* CallFunction */
SHP[0]	/* ShiftPointByLastPoint */
SRP1[ ]	/* SetRefPoint1 */
SHP[1]	/* ShiftPointByLastPoint */
SRP1[ ]	/* SetRefPoint1 */
SHP[1]	/* ShiftPointByLastPoint */
CALL[ ]	/* CallFunction */
IUP[0]	/* InterpolateUntPts */
IUP[1]	/* InterpolateUntPts */";
};
width = 500;
},
{
layerId = m002;
shapes = (
{
closed = 1;
nodes = (
(196,-1,l),
(196,243,ls),
(196,283,o),
(218,342,o),
(257,380,o),
(305,398,o),
(329,398,qs),
(347,398,o),
(375,390,o),
(390,379,qs),
(403,369,o),
(410,354,o),
(413,346,q),
(420,342,l),
(424,351,l),
(461,420,l),
(436,446,o),
(375,471,o),
(338,471,qs),
(311,471,o),
(261,453,o),
(220,419,o),
(191,371,o),
(185,340,q),
(196,328,l),
(198,460,l),
(109,460,l),
(109,-1,l)
);
}
);
width = 500;
}
);
note = r;
unicode = 114;
},
{
glyphname = s;
lastChange = "2026-02-05 09:00:31 +0000";
layers = (
{
layerId = m01;
shapes = (
{
closed = 1;
nodes = (
(317,-10,o),
(402,29,o),
(444,96,o),
(444,134,qs),
(444,168,o),
(412,218,o),
(342,256,o),
(286,273,qs),
(237,286,o),
(183,312,o),
(161,338,o),
(161,353,qs),
(161,380,o),
(216,406,o),
(254,406,qs),
(281,406,o),
(336,388,o),
(358,371,qs),
(370,360,o),
(377,345,o),
(378,337,q),
(383,332,l),
(390,340,l),
(436,399,l),
(419,417,o),
(380,444,o),
(335,462,o),
(283,471,o),
(252,471,qs),
(197,471,o),
(120,440,o),
(79,386,o),
(79,349,qs),
(79,314,o),
(121,260,o),
(198,221,o),
(249,206,qs),
(280,197,o),
(324,178,o),
(350,160,o),
(362,139,o),
(362,125,qs),
(362,105,o),
(337,76,o),
(290,59,o),
(256,59,qs),
(210,59,o),
(150,85,o),
(127,106,qs),
(116,118,o),
(111,135,o),
(108,143,q),
(102,147,l),
(96,138,l),
(53,62,l),
(80,38,o),
(142,5,o),
(214,-10,o),
(254,-10,qs)
);
}
);
userData = {
assembly = "NPUSHB[ ]	/* 14 values pushed */
17 55 26 47 4 59 44 30 7 114 13 59 11 114
SVTCA[0]	/* SetFreedomAndProjectionVectorToAxis */
CALL[ ]	/* CallFunction */
SHP[0]	/* ShiftPointByLastPoint */
CALL[ ]	/* CallFunction */
SHP[0]	/* ShiftPointByLastPoint */
SRP2[ ]	/* SetRefPoint2 */
SLOOP[ ]	/* SetLoopVariable */
IP[ ]	/* InterpolatePts */
IUP[0]	/* InterpolateUntPts */
IUP[1]	/* InterpolateUntPts */";
};
width = 500;
},
{
layerId = m002;
shapes = (
{
closed = 1;
nodes = (
(317,-10,o),
(402,29,o),
(444,96,o),
(444,134,qs),
(444,168,o),
(412,218,o),
(342,256,o),
(286,273,qs),
(237,286,o),
(183,312,o),
(161,338,o),
(161,353,qs),
(161,380,o),
(216,406,o),
(254,406,qs),
(281,406,o),
(336,388,o),
(358,371,qs),
(370,360,o),
(377,345,o),
(378,337,q),
(383,332,l),
(390,340,l),
(436,399,l),
(419,417,o),
(380,444,o),
(335,462,o),
(283,471,o),
(252,471,qs),
(197,471,o),
(120,440,o),
(79,386,o),
(79,349,qs),
(79,314,o),
(121,260,o),
(198,221,o),
(249,206,qs),
(280,197,o),
(324,178,o),
(350,160,o),
(362,139,o),
(362,125,qs),
(362,105,o),
(337,76,o),
(290,59,o),
(256,59,qs),
(210,59,o),
(150,85,o),
(127,106,qs),
(116,118,o),
(111,135,o),
(108,143,q),
(102,147,l),
(96,138,l),
(53,62,l),
(80,38,o),
(142,5,o),
(214,-10,o),
(254,-10,qs)
);
}
);
width = 500;
}
);
note = s;
unicode = 115;
},
{
glyphname = t;
lastChange = "2026-02-05 09:00:31 +0000";
layers = (
{
layerId = m01;
shapes = (
{
closed = 1;
nodes = (
(340,-8,o),
(413,17,o),
(447,42,q),
(425,107,l),
(399,88,o),
(348,62,o),
(315,62,qs),
(288,62,o),
(253,92,o),
(239,171,o),
(242,243,qs),
(249,405,l),
(246,419,l),
(255,541,ls),
(257,558,o),
(264,572,o),
(269,579,q),
(268,586,l),
(258,585,l),
(169,574,l),
(157,246,ls),
(155,178,o),
(166,82,o),
(199,21,o),
(256,-8,o),
(299,-8,qs)
);
},
{
closed = 1;
nodes = (
(405,391,l),
(405,460,l),
(66,460,l),
(66,391,l)
);
}
);
userData = {
assembly = "NPUSHB[ ]	/* 13 values pushed */
30 0 8 1 8 128 27 6 114 19 26 11 114
SVTCA[0]	/* SetFreedomAndProjectionVectorToAxis */
CALL[ ]	/* CallFunction */
SHP[0]	/* ShiftPointByLastPoint */
CALL[ ]	/* CallFunction */
SMD[ ]	/* SetMinimumDistance */
MDRP[01100]	/* MoveDirectRelPt */
DELTAP1[ ]	/* DeltaExceptionP1 */
SHP[1]	/* ShiftPointByLastPoint */
IUP[0]	/* InterpolateUntPts */
IUP[1]	/* InterpolateUntPts */";
};
width = 500;
},
{
layerId = m002;
shapes = (
{
closed = 1;
nodes = (
(340,-8,o),
(413,17,o),
(447,42,q),
(425,107,l),
(399,88,o),
(348,62,o),
(315,62,qs),
(288,62,o),
(253,92,o),
(239,171,o),
(242,243,qs),
(249,405,l),
(246,419,l),
(255,541,ls),
(257,558,o),
(264,572,o),
(269,579,q),
(268,586,l),
(258,585,l),
(169,574,l),
(157,246,ls),
(155,178,o),
(166,82,o),
(199,21,o),
(256,-8,o),
(299,-8,qs)
);
},
{
closed = 1;
nodes = (
(405,391,l),
(405,460,l),
(66,460,l),
(66,391,l)
);
}
);
width = 500;
}
);
note = t;
unicode = 116;
},
{
glyphname = u;
lastChange = "2026-02-05 09:00:31 +0000";
layers = (
{
layerId = m01;
shapes = (
{
closed = 1;
nodes = (
(279,-1,o),
(315,19,o),
(344,48,o),
(355,67,q),
(355,56,o),
(356,33,o),
(360,11,o),
(365,0,q),
(446,0,l),
(439,18,o),
(436,53,o),
(436,72,qs),
(436,460,l),
(351,460,l),
(351,203,ls),
(351,166,o),
(333,111,o),
(302,75,o),
(261,58,o),
(238,58,qs),
(219,58,o),
(184,72,o),
(158,105,o),
(144,160,o),
(144,199,qs),
(144,460,l),
(60,460,l),
(59,199,ls),
(59,155,o),
(74,86,o),
(103,37,o),
(142,4,o),
(191,-11,o),
(218,-11,qs),
(240,-11,o)
);
}
);
userData = {
assembly = "NPUSHB[ ]	/* 13 values pushed */
26 10 114 21 7 6 114 30 14 14 0 11 114
SVTCA[0]	/* SetFreedomAndProjectionVectorToAxis */
CALL[ ]	/* CallFunction */
SHP[0]	/* ShiftPointByLastPoint */
SRP1[ ]	/* SetRefPoint1 */
SHP[1]	/* ShiftPointByLastPoint */
CALL[ ]	/* CallFunction */
SHP[0]	/* ShiftPointByLastPoint */
CALL[ ]	/* CallFunction */
IUP[0]	/* InterpolateUntPts */
IUP[1]	/* InterpolateUntPts */";
};
width = 500;
},
{
layerId = m002;
shapes = (
{
closed = 1;
nodes = (
(279,-1,o),
(315,19,o),
(344,48,o),
(355,67,q),
(355,56,o),
(356,33,o),
(360,11,o),
(365,0,q),
(446,0,l),
(439,18,o),
(436,53,o),
(436,72,qs),
(436,460,l),
(351,460,l),
(351,203,ls),
(351,166,o),
(333,111,o),
(302,75,o),
(261,58,o),
(238,58,qs),
(219,58,o),
(184,72,o),
(158,105,o),
(144,160,o),
(144,199,qs),
(144,460,l),
(60,460,l),
(59,199,ls),
(59,155,o),
(74,86,o),
(103,37,o),
(142,4,o),
(191,-11,o),
(218,-11,qs),
(240,-11,o)
);
}
);
width = 500;
}
);
note = u;
unicode = 117;
},
{
glyphname = v;
lastChange = "2026-02-05 09:00:31 +0000";
layers = (
{
layerId = m01;
shapes = (
{
closed = 1;
nodes = (
(394,262,ls),
(417,318,o),
(451,417,o),
(458,460,q),
(377,460,l),
(372,419,o),
(345,326,o),
(322,273,qs),
(247,99,l),
(262,99,l),
(124,460,l),
(36,460,l),
(215,0,l),
(282,0,l)
);
}
);
userData = {
assembly = "NPUSHB[ ]	/* 10 values pushed */
4 3 0 9 1 6 114 0 10 114
SVTCA[0]	/* SetFreedomAndProjectionVectorToAxis */
CALL[ ]	/* CallFunction */
CALL[ ]	/* CallFunction */
SHP[0]	/* ShiftPointByLastPoint */
SRP2[ ]	/* SetRefPoint2 */
IP[ ]	/* InterpolatePts */
IP[ ]	/* InterpolatePts */
IUP[0]	/* InterpolateUntPts */
IUP[1]	/* InterpolateUntPts */";
};
width = 500;
},
{
layerId = m002;
shapes = (
{
closed = 1;
nodes = (
(394,262,ls),
(417,318,o),
(451,417,o),
(458,460,q),
(377,460,l),
(372,419,o),
(345,326,o),
(322,273,qs),
(247,99,l),
(262,99,l),
(124,460,l),
(36,460,l),
(215,0,l),
(282,0,l)
);
}
);
width = 500;
}
);
note = v;
unicode = 118;
},
{
glyphname = w;
lastChange = "2026-02-05 09:00:31 +0000";
layers = (
{
layerId = m01;
shapes = (
{
closed = 1;
nodes = (
(253,281,l),
(331,-1,l),
(409,-1,l),
(425,74,o),
(452,228,o),
(474,384,o),
(483,460,q),
(406,460,l),
(406,441,ls),
(406,417,o),
(404,368,o),
(396,298,o),
(381,192,o),
(369,110,q),
(278,414,l),
(229,414,l),
(155,109,l),
(88,460,l),
(14,460,l),
(104,-1,l),
(180,-1,l)
);
}
);
userData = {
assembly = "NPUSHB[ ]	/* 14 values pushed */
3 6 19 3 0 13 4 1 6 114 18 0 10 114
SVTCA[0]	/* SetFreedomAndProjectionVectorToAxis */
CALL[ ]	/* CallFunction */
SHP[0]	/* ShiftPointByLastPoint */
CALL[ ]	/* CallFunction */
MDRP[01100]	/* MoveDirectRelPt */
SHP[1]	/* ShiftPointByLastPoint */
SRP2[ ]	/* SetRefPoint2 */
SLOOP[ ]	/* SetLoopVariable */
IP[ ]	/* InterpolatePts */
IUP[0]	/* InterpolateUntPts */
IUP[1]	/* InterpolateUntPts */";
};
width = 500;
},
{
layerId = m002;
shapes = (
{
closed = 1;
nodes = (
(253,281,l),
(331,-1,l),
(409,-1,l),
(425,74,o),
(452,228,o),
(474,384,o),
(483,460,q),
(406,460,l),
(406,441,ls),
(406,417,o),
(404,368,o),
(396,298,o),
(381,192,o),
(369,110,q),
(278,414,l),
(229,414,l),
(155,109,l),
(88,460,l),
(14,460,l),
(104,-1,l),
(180,-1,l)
);
}
);
width = 500;
}
);
note = w;
unicode = 119;
},
{
glyphname = x;
lastChange = "2026-02-05 09:00:31 +0000";
layers = (
{
layerId = m01;
shapes = (
{
closed = 1;
nodes = (
(248,168,l),
(367,0,l),
(463,0,l),
(295,236,l),
(443,460,l),
(355,460,l),
(248,299,l),
(136,460,l),
(43,460,l),
(202,232,l),
(41,0,l),
(136,0,l)
);
}
);
userData = {
assembly = "NPUSHB[ ]	/* 14 values pushed */
10 1 7 4 4 0 6 2 6 114 9 0 10 114
SVTCA[0]	/* SetFreedomAndProjectionVectorToAxis */
CALL[ ]	/* CallFunction */
SHP[0]	/* ShiftPointByLastPoint */
CALL[ ]	/* CallFunction */
SHP[0]	/* ShiftPointByLastPoint */
SRP2[ ]	/* SetRefPoint2 */
SLOOP[ ]	/* SetLoopVariable */
IP[ ]	/* InterpolatePts */
IUP[0]	/* InterpolateUntPts */
IUP[1]	/* InterpolateUntPts */";
};
width = 500;
},
{
layerId = m002;
shapes = (
{
closed = 1;
nodes = (
(248,168,l),
(367,0,l),
(463,0,l),
(295,236,l),
(443,460,l),
(355,460,l),
(248,299,l),
(136,460,l),
(43,460,l),
(202,232,l),
(41,0,l),
(136,0,l)
);
}
);
width = 500;
}
);
note = x;
unicode = 120;
},
{
glyphname = y;
lastChange = "2026-02-05 09:00:31 +0000";
layers = (
{
layerId = m01;
shapes = (
{
closed = 1;
nodes = (
(177,-175,o),
(253,-118,o),
(279,-48,qs),
(393,272,ls),
(410,318,o),
(441,414,o),
(447,460,q),
(364,460,l),
(360,415,o),
(335,328,o),
(320,283,qs),
(228,9,ls),
(215,-30,o),
(188,-82,o),
(154,-106,o),
(129,-106,qs),
(119,-106,o),
(100,-103,o),
(91,-100,q),
(78,-91,o),
(68,-79,o),
(66,-71,q),
(59,-67,l),
(53,-76,l),
(20,-134,l),
(41,-154,o),
(94,-175,o),
(127,-175,qs)
);
},
{
closed = 1;
nodes = (
(273,87,l),
(129,460,l),
(41,460,l),
(232,-12,l)
);
}
);
userData = {
assembly = "NPUSHB[ ]	/* 14 values pushed */
25 32 16 31 4 28 21 29 6 114 12 28 15 114
SVTCA[0]	/* SetFreedomAndProjectionVectorToAxis */
CALL[ ]	/* CallFunction */
SHP[0]	/* ShiftPointByLastPoint */
CALL[ ]	/* CallFunction */
SHP[0]	/* ShiftPointByLastPoint */
SRP2[ ]	/* SetRefPoint2 */
SLOOP[ ]	/* SetLoopVariable */
IP[ ]	/* InterpolatePts */
IUP[0]	/* InterpolateUntPts */
IUP[1]	/* InterpolateUntPts */";
};
width = 500;
},
{
layerId = m002;
shapes = (
{
closed = 1;
nodes = (
(177,-175,o),
(253,-118,o),
(279,-48,qs),
(393,272,ls),
(410,318,o),
(441,414,o),
(447,460,q),
(364,460,l),
(360,415,o),
(335,328,o),
(320,283,qs),
(228,9,ls),
(215,-30,o),
(188,-82,o),
(154,-106,o),
(129,-106,qs),
(119,-106,o),
(100,-103,o),
(91,-100,q),
(78,-91,o),
(68,-79,o),
(66,-71,q),
(59,-67,l),
(53,-76,l),
(20,-134,l),
(41,-154,o),
(94,-175,o),
(127,-175,qs)
);
},
{
closed = 1;
nodes = (
(273,87,l),
(129,460,l),
(41,460,l),
(232,-12,l)
);
}
);
width = 500;
}
);
note = y;
unicode = 121;
},
{
glyphname = z;
lastChange = "2026-02-05 09:00:31 +0000";
layers = (
{
layerId = m01;
shapes = (
{
closed = 1;
nodes = (
(453,0,l),
(453,82,l),
(446,82,l),
(440,76,o),
(426,72,o),
(409,72,qs),
(160,72,l),
(430,403,l),
(430,460,l),
(67,460,l),
(67,387,l),
(321,387,l),
(47,55,l),
(47,0,l)
);
}
);
userData = {
assembly = "NPUSHB[ ]	/* 12 values pushed */
0 6 6 14 10 114 5 2 2 3 6 114
SVTCA[0]	/* SetFreedomAndProjectionVectorToAxis */
CALL[ ]	/* CallFunction */
SHP[0]	/* ShiftPointByLastPoint */
SRP1[ ]	/* SetRefPoint1 */
SHP[1]	/* ShiftPointByLastPoint */
CALL[ ]	/* CallFunction */
SHP[0]	/* ShiftPointByLastPoint */
SRP1[ ]	/* SetRefPoint1 */
SHP[1]	/* ShiftPointByLastPoint */
IUP[0]	/* InterpolateUntPts */
IUP[1]	/* InterpolateUntPts */";
};
width = 500;
},
{
layerId = m002;
shapes = (
{
closed = 1;
nodes = (
(453,0,l),
(453,82,l),
(446,82,l),
(440,76,o),
(426,72,o),
(409,72,qs),
(160,72,l),
(430,403,l),
(430,460,l),
(67,460,l),
(67,387,l),
(321,387,l),
(47,55,l),
(47,0,l)
);
}
);
width = 500;
}
);
note = z;
unicode = 122;
},
{
glyphname = uni4E2D;
lastChange = "2026-02-05 09:00:31 +0000";
layers = (
{
layerId = m01;
shapes = (
{
closed = 1;
nodes = (
(522,26,o),
(522,72,qs),
(522,88,o),
(519,132,o),
(518,154,qs),
(518,159,o),
(518,165,qs),
(515,197,o),
(515,213,qs),
(515,219,o),
(515,247,o),
(517,266,q),
(517,292,o),
(518,342,o),
(518,353,q),
(551,352,o),
(586,347,o),
(596,346,q),
(605,342,o),
(617,341,o),
(623,341,qs),
(635,341,o),
(648,352,o),
(648,373,qs),
(648,380,o),
(668,408,o),
(681,424,qs),
(703,452,o),
(726,484,q),
(733,489,o),
(760,497,o),
(775,497,qs),
(780,497,o),
(788,508,o),
(788,511,qs),
(788,531,o),
(760,565,o),
(743,584,qs),
(732,595,o),
(723,606,qs),
(707,626,o),
(691,638,o),
(682,638,qs),
(670,638,o),
(625,622,o),
(596,610,qs),
(524,584,l),
(530,636,o),
(552,679,o),
(562,688,q),
(567,691,o),
(574,702,o),
(574,712,qs),
(574,735,o),
(511,821,o),
(472,840,q),
(471,836,o),
(468,835,q),
(455,826,o),
(427,802,o),
(406,770,o),
(406,750,qs),
(406,742,o),
(410,735,q),
(412,729,o),
(414,723,q),
(446,717,o),
(461,631,o),
(461,585,qs),
(461,575,o),
(461,565,q),
(455,559,o),
(393,533,o),
(329,511,o),
(321,511,qs),
(309,511,o),
(282,532,o),
(265,548,qs),
(248,562,o),
(227,577,q),
(212,554,o),
(212,517,qs),
(212,495,o),
(262,444,o),
(291,421,qs),
(314,402,o),
(347,368,o),
(347,357,qs),
(347,347,o),
(350,329,o),
(360,329,qs),
(375,329,o),
(403,336,o),
(414,340,q),
(416,340,o),
(421,341,q),
(421,341,o),
(422,342,q),
(443,352,o),
(461,352,q),
(461,331,o),
(463,308,qs),
(463,284,o),
(463,259,qs),
(466,212,o),
(466,184,qs),
(466,156,o),
(465,133,qs),
(463,115,o),
(463,100,qs),
(461,77,o),
(461,58,qs),
(461,17,o),
(470,-64,o),
(483,-79,q),
(498,-63,o)
);
},
{
closed = 1;
nodes = (
(541,396,qs),
(530,396,o),
(518,396,q),
(518,431,o),
(522,511,o),
(524,544,q),
(549,553,o),
(618,570,o),
(635,570,qs),
(644,570,o),
(662,560,o),
(662,549,qs),
(662,525,o),
(617,453,o),
(592,420,qs),
(583,406,o),
(574,395,q),
(555,395,o)
);
},
{
closed = 1;
nodes = (
(342,486,q),
(348,482,o),
(353,482,o),
(356,482,qs),
(365,482,o),
(392,492,o),
(406,499,qs),
(412,502,o),
(416,503,q),
(438,514,o),
(461,522,q),
(461,391,l),
(433,382,o),
(406,380,q),
(388,420,o)
);
}
);
vertWidth = 2048;
width = 1000;
},
{
layerId = m002;
shapes = (
{
closed = 1;
nodes = (
(522,26,o),
(522,72,qs),
(522,87,o),
(519,131,o),
(518,153,qs),
(518,159,o),
(518,164,qs),
(515,196,o),
(515,213,qs),
(515,218,o),
(515,246,o),
(517,266,qs),
(517,291,o),
(518,342,o),
(518,353,q),
(551,352,o),
(586,346,o),
(596,345,q),
(605,342,o),
(617,341,o),
(623,341,qs),
(635,341,o),
(648,352,o),
(648,373,qs),
(648,379,o),
(668,407,o),
(681,424,qs),
(703,451,o),
(726,483,q),
(733,489,o),
(760,496,o),
(775,496,qs),
(780,496,o),
(788,507,o),
(788,511,qs),
(788,530,o),
(760,565,o),
(743,583,qs),
(732,594,o),
(723,605,qs),
(707,625,o),
(691,637,o),
(682,637,qs),
(670,637,o),
(625,622,o),
(596,610,qs),
(524,583,l),
(530,635,o),
(552,678,o),
(562,687,q),
(567,690,o),
(574,701,o),
(574,711,qs),
(574,734,o),
(511,820,o),
(472,839,q),
(471,836,o),
(468,835,q),
(455,826,o),
(427,802,o),
(406,770,o),
(406,750,qs),
(406,741,o),
(410,734,qs),
(412,729,o),
(414,722,q),
(446,717,o),
(461,631,o),
(461,585,qs),
(461,575,o),
(461,565,q),
(455,558,o),
(393,533,o),
(329,511,o),
(321,511,qs),
(309,511,o),
(282,532,o),
(265,547,qs),
(248,561,o),
(227,577,q),
(212,554,o),
(212,516,qs),
(212,494,o),
(262,443,o),
(291,420,qs),
(314,401,o),
(347,367,o),
(347,356,qs),
(347,346,o),
(350,329,o),
(360,329,qs),
(375,329,o),
(403,335,o),
(414,340,q),
(416,340,o),
(421,341,q),
(421,341,o),
(422,342,q),
(443,352,o),
(461,352,q),
(461,331,o),
(463,308,qs),
(463,284,o),
(463,258,qs),
(466,212,o),
(466,183,qs),
(466,156,o),
(465,132,qs),
(463,115,o),
(463,99,qs),
(461,76,o),
(461,58,qs),
(461,17,o),
(470,-65,o),
(483,-79,q),
(498,-64,o)
);
},
{
closed = 1;
nodes = (
(541,396,qs),
(530,396,o),
(518,396,q),
(518,430,o),
(522,511,o),
(524,544,q),
(549,553,o),
(618,569,o),
(635,569,qs),
(644,569,o),
(662,559,o),
(662,548,qs),
(662,525,o),
(617,452,o),
(592,419,qs),
(583,406,o),
(574,395,q),
(555,395,o)
);
},
{
closed = 1;
nodes = (
(342,485,q),
(348,482,o),
(353,482,o),
(356,482,qs),
(365,482,o),
(392,492,o),
(406,499,qs),
(412,502,o),
(416,503,q),
(438,514,o),
(461,522,q),
(461,390,l),
(433,382,o),
(406,379,q),
(388,419,o)
);
}
);
vertWidth = 2048;
width = 1000;
}
);
note = uni4E2D;
unicode = 20013;
},
{
glyphname = uni51AC;
lastChange = "2026-02-05 09:00:31 +0000";
layers = (
{
layerId = m01;
shapes = (
{
closed = 1;
nodes = (
(415,754,o),
(420,731,qs),
(423,712,o),
(421,695,qs),
(416,655,o),
(380,591,qs),
(342,523,o),
(252,414,o),
(208,347,q),
(269,377,o),
(364,459,o),
(415,550,qs),
(473,652,o),
(483,690,qs),
(496,750,o),
(442,754,q)
);
},
{
closed = 1;
nodes = (
(449,480,o),
(534,403,o),
(573,348,q),
(611,302,o),
(636,274,o),
(645,258,qs),
(659,229,o),
(678,205,q),
(709,219,o),
(752,195,qs),
(786,175,o),
(838,150,o),
(856,150,q),
(819,205,o),
(796,223,o),
(731,312,o),
(716,320,qs),
(690,337,o),
(601,389,o),
(562,430,qs),
(545,447,o),
(515,476,qs),
(437,553,o),
(417,589,q),
(388,531,l)
);
},
{
closed = 1;
nodes = (
(552,571,q),
(527,518,o),
(498,480,qs),
(417,379,ls),
(320,263,o),
(144,144,q),
(243,162,o),
(377,244,o),
(443,331,qs),
(534,451,ls),
(566,495,o),
(577,510,qs),
(592,534,o),
(612,561,q),
(623,573,o),
(654,587,qs),
(670,595,o),
(673,607,o),
(673,617,qs),
(673,632,o),
(667,641,qs),
(659,652,o),
(656,669,q),
(642,709,o),
(630,709,qs),
(617,709,o),
(605,718,o),
(587,690,qs),
(574,669,o),
(541,666,o),
(501,656,qs),
(480,651,o),
(416,630,q),
(437,618,o),
(454,601,qs),
(462,594,o),
(479,591,o),
(494,598,qs),
(535,616,o),
(569,625,q),
(566,596,o)
);
},
{
closed = 1;
nodes = (
(573,23,o),
(596,55,o),
(596,78,qs),
(596,111,o),
(521,158,o),
(483,158,qs),
(473,158,o),
(432,155,o),
(395,148,o),
(389,143,q),
(444,124,o),
(501,74,o),
(506,50,q),
(509,43,o),
(516,23,o),
(524,10,q),
(527,10,o),
(528,8,qs),
(529,6,o),
(533,6,qs),
(544,6,o)
);
},
{
closed = 1;
nodes = (
(526,207,o),
(536,236,o),
(540,241,q),
(547,247,o),
(557,263,o),
(557,274,qs),
(557,287,o),
(534,314,o),
(524,323,q),
(518,326,o),
(501,327,o),
(487,325,o),
(483,320,q),
(477,315,o),
(471,307,qs),
(464,298,o),
(456,291,q),
(461,281,o),
(464,262,o),
(464,248,q),
(467,245,o),
(471,242,qs),
(477,237,o),
(488,228,o),
(494,219,qs),
(495,217,o),
(495,214,qs),
(495,211,o),
(460,179,q),
(507,200,ls)
);
}
);
vertWidth = 2048;
width = 1000;
},
{
layerId = m002;
shapes = (
{
closed = 1;
nodes = (
(415,754,o),
(420,731,qs),
(423,712,o),
(421,695,qs),
(416,655,o),
(380,591,qs),
(342,523,o),
(252,414,o),
(208,347,q),
(269,377,o),
(364,459,o),
(415,550,qs),
(473,652,o),
(483,690,qs),
(496,750,o),
(442,754,q)
);
},
{
closed = 1;
nodes = (
(449,480,o),
(534,403,o),
(573,348,q),
(611,302,o),
(636,274,o),
(645,258,qs),
(659,229,o),
(678,205,q),
(709,219,o),
(752,195,qs),
(786,175,o),
(838,150,o),
(856,150,q),
(819,205,o),
(796,223,o),
(731,312,o),
(716,320,qs),
(690,337,o),
(601,389,o),
(562,430,qs),
(545,447,o),
(515,476,qs),
(437,553,o),
(417,589,q),
(388,531,l)
);
},
{
closed = 1;
nodes = (
(552,571,q),
(527,518,o),
(498,480,qs),
(417,379,ls),
(320,263,o),
(144,144,q),
(243,162,o),
(377,244,o),
(443,331,qs),
(534,451,ls),
(566,495,o),
(577,510,qs),
(592,534,o),
(612,561,q),
(623,573,o),
(654,587,qs),
(670,595,o),
(673,607,o),
(673,617,qs),
(673,632,o),
(667,641,qs),
(659,652,o),
(656,669,q),
(642,709,o),
(630,709,qs),
(617,709,o),
(605,718,o),
(587,690,qs),
(574,669,o),
(541,666,o),
(501,656,qs),
(480,651,o),
(416,630,q),
(437,618,o),
(454,601,qs),
(462,594,o),
(479,591,o),
(494,598,qs),
(535,616,o),
(569,625,q),
(566,596,o)
);
},
{
closed = 1;
nodes = (
(573,23,o),
(596,55,o),
(596,78,qs),
(596,111,o),
(521,158,o),
(483,158,qs),
(473,158,o),
(432,155,o),
(395,148,o),
(389,143,q),
(444,124,o),
(501,74,o),
(506,50,q),
(509,43,o),
(516,23,o),
(524,10,q),
(527,10,o),
(528,8,qs),
(529,6,o),
(533,6,qs),
(544,6,o)
);
},
{
closed = 1;
nodes = (
(526,207,o),
(536,236,o),
(540,241,q),
(547,247,o),
(557,263,o),
(557,274,qs),
(557,287,o),
(534,314,o),
(524,323,q),
(518,326,o),
(501,327,o),
(487,325,o),
(483,320,q),
(477,315,o),
(471,307,qs),
(464,298,o),
(456,291,q),
(461,281,o),
(464,262,o),
(464,248,q),
(467,245,o),
(471,242,qs),
(477,237,o),
(488,228,o),
(494,219,qs),
(495,217,o),
(495,214,qs),
(495,211,o),
(460,179,q),
(507,200,ls)
);
}
);
vertWidth = 2048;
width = 1000;
}
);
note = uni51AC;
unicode = 20908;
},
{
glyphname = uni5317;
lastChange = "2026-02-05 09:00:31 +0000";
layers = (
{
layerId = m01;
shapes = (
{
closed = 1;
nodes = (
(277,93,o),
(308,121,qs),
(310,123,o),
(314,126,q),
(350,161,o),
(398,195,q),
(400,193,o),
(401,190,q),
(405,187,o),
(410,177,o),
(410,171,qs),
(410,162,o),
(423,151,o),
(429,151,qs),
(434,151,o),
(454,166,o),
(471,190,o),
(471,209,qs),
(471,219,o),
(467,227,q),
(466,233,o),
(466,243,q),
(505,277,o),
(540,303,q),
(540,294,o),
(541,283,qs),
(541,272,o),
(541,261,q),
(546,238,o),
(546,209,qs),
(546,193,o),
(545,179,qs),
(545,167,o),
(545,150,qs),
(545,117,o),
(601,77,o),
(647,77,qs),
(710,77,o),
(791,91,o),
(831,114,o),
(847,140,o),
(847,151,qs),
(847,160,o),
(830,167,o),
(822,167,qs),
(809,167,o),
(797,165,q),
(791,163,o),
(782,163,q),
(768,160,o),
(731,153,o),
(703,153,qs),
(658,153,o),
(613,176,o),
(596,247,o),
(596,322,qs),
(596,335,l),
(646,365,o),
(724,392,o),
(750,399,q),
(753,399,o),
(754,401,q),
(754,401,o),
(754,401,q),
(775,404,o),
(794,413,o),
(794,421,qs),
(794,444,o),
(739,477,o),
(718,477,qs),
(693,477,o),
(680,466,q),
(680,463,o),
(681,459,qs),
(681,455,o),
(681,453,qs),
(681,426,o),
(654,399,o),
(632,387,q),
(631,386,o),
(628,384,qs),
(612,376,o),
(592,363,q),
(592,465,ls),
(592,508,o),
(609,554,o),
(630,576,o),
(639,582,qs),
(645,586,o),
(653,594,o),
(653,599,qs),
(653,616,o),
(624,661,o),
(590,700,o),
(583,705,q),
(583,705,o),
(581,704,q),
(567,685,o),
(551,673,qs),
(519,650,o),
(504,609,q),
(507,606,o),
(512,604,q),
(523,597,o),
(541,578,o),
(555,548,o),
(555,517,qs),
(555,497,o),
(551,474,q),
(550,458,o),
(549,442,q),
(540,391,o),
(540,328,q),
(527,317,o),
(510,307,q),
(493,292,o),
(466,273,q),
(466,283,o),
(466,292,qs),
(469,404,o),
(485,499,o),
(514,516,q),
(504,551,o),
(474,572,o),
(444,578,q),
(437,582,o),
(426,584,qs),
(406,589,o),
(377,599,q),
(364,586,o),
(364,566,qs),
(364,554,o),
(372,538,o),
(377,531,qs),
(378,530,o),
(380,528,qs),
(389,519,o),
(407,491,o),
(421,438,o),
(421,395,qs),
(421,373,o),
(421,350,qs),
(422,328,o),
(422,308,qs),
(422,283,o),
(418,244,o),
(411,233,q),
(396,219,o),
(342,184,o),
(289,155,o),
(275,153,q),
(271,161,o),
(271,172,qs),
(271,178,o),
(275,189,q),
(276,196,o),
(279,209,q),
(291,244,o),
(311,359,q),
(320,359,o),
(345,362,o),
(369,373,o),
(369,384,qs),
(369,402,o),
(338,417,o),
(321,421,q),
(320,423,o),
(319,423,q),
(316,438,o),
(314,457,o),
(311,463,q),
(304,447,o),
(302,431,q),
(257,435,o),
(223,452,q),
(227,420,o),
(266,380,o),
(289,367,q),
(264,274,o),
(206,172,o),
(184,145,qs),
(181,142,o),
(179,139,qs),
(176,136,o),
(174,133,qs),
(164,121,o),
(153,101,o),
(153,92,qs),
(153,70,o),
(174,55,o),
(185,55,qs),
(223,55,o)
);
}
);
vertWidth = 2048;
width = 1000;
},
{
layerId = m002;
shapes = (
{
closed = 1;
nodes = (
(277,93,o),
(308,121,qs),
(310,123,o),
(314,126,q),
(350,161,o),
(398,195,q),
(400,193,o),
(401,190,q),
(405,187,o),
(410,177,o),
(410,171,qs),
(410,162,o),
(423,151,o),
(429,151,qs),
(434,151,o),
(454,166,o),
(471,190,o),
(471,209,qs),
(471,219,o),
(467,227,q),
(466,233,o),
(466,243,q),
(505,277,o),
(540,303,q),
(540,294,o),
(541,283,qs),
(541,272,o),
(541,261,q),
(546,238,o),
(546,209,qs),
(546,193,o),
(545,179,qs),
(545,167,o),
(545,150,qs),
(545,117,o),
(601,77,o),
(647,77,qs),
(710,77,o),
(791,91,o),
(831,114,o),
(847,140,o),
(847,151,qs),
(847,160,o),
(830,167,o),
(822,167,qs),
(809,167,o),
(797,165,q),
(791,163,o),
(782,163,q),
(768,160,o),
(731,153,o),
(703,153,qs),
(658,153,o),
(613,176,o),
(596,247,o),
(596,322,qs),
(596,335,l),
(646,365,o),
(724,392,o),
(750,399,q),
(753,399,o),
(754,401,q),
(754,401,o),
(754,401,q),
(775,404,o),
(794,413,o),
(794,421,qs),
(794,444,o),
(739,477,o),
(718,477,qs),
(693,477,o),
(680,466,q),
(680,463,o),
(681,459,qs),
(681,455,o),
(681,453,qs),
(681,426,o),
(654,399,o),
(632,387,q),
(631,386,o),
(628,384,qs),
(612,376,o),
(592,363,q),
(592,465,ls),
(592,508,o),
(609,554,o),
(630,576,o),
(639,582,qs),
(645,586,o),
(653,594,o),
(653,599,qs),
(653,616,o),
(624,661,o),
(590,700,o),
(583,705,q),
(583,705,o),
(581,704,q),
(567,685,o),
(551,673,qs),
(519,650,o),
(504,609,q),
(507,606,o),
(512,604,q),
(523,597,o),
(541,578,o),
(555,548,o),
(555,517,qs),
(555,497,o),
(551,474,q),
(550,458,o),
(549,442,q),
(540,391,o),
(540,328,q),
(527,317,o),
(510,307,q),
(493,292,o),
(466,273,q),
(466,283,o),
(466,292,qs),
(469,404,o),
(485,499,o),
(514,516,q),
(504,551,o),
(474,572,o),
(444,578,q),
(437,582,o),
(426,584,qs),
(406,589,o),
(377,599,q),
(364,586,o),
(364,566,qs),
(364,554,o),
(372,538,o),
(377,531,qs),
(378,530,o),
(380,528,qs),
(389,519,o),
(407,491,o),
(421,438,o),
(421,395,qs),
(421,373,o),
(421,350,qs),
(422,328,o),
(422,308,qs),
(422,283,o),
(418,244,o),
(411,233,q),
(396,219,o),
(342,184,o),
(289,155,o),
(275,153,q),
(271,161,o),
(271,172,qs),
(271,178,o),
(275,189,q),
(276,196,o),
(279,209,q),
(291,244,o),
(311,359,q),
(320,359,o),
(345,362,o),
(369,373,o),
(369,384,qs),
(369,402,o),
(338,417,o),
(321,421,q),
(320,423,o),
(319,423,q),
(316,438,o),
(314,457,o),
(311,463,q),
(304,447,o),
(302,431,q),
(257,435,o),
(223,452,q),
(227,420,o),
(266,380,o),
(289,367,q),
(264,274,o),
(206,172,o),
(184,145,qs),
(181,142,o),
(179,139,qs),
(176,136,o),
(174,133,qs),
(164,121,o),
(153,101,o),
(153,92,qs),
(153,70,o),
(174,55,o),
(185,55,qs),
(223,55,o)
);
}
);
vertWidth = 2048;
width = 1000;
}
);
note = uni5317;
unicode = 21271;
},
{
glyphname = uni5357;
lastChange = "2026-02-05 09:00:31 +0000";
layers = (
{
layerId = m01;
shapes = (
{
closed = 1;
nodes = (
(678,15,o),
(702,63,qs),
(718,93,o),
(740,132,q),
(741,135,o),
(742,138,q),
(770,184,o),
(809,261,o),
(809,286,qs),
(809,300,o),
(797,322,o),
(786,334,qs),
(776,346,o),
(765,365,qs),
(764,367,o),
(764,368,q),
(745,398,o),
(714,426,o),
(680,431,o),
(654,431,q),
(663,442,o),
(670,449,q),
(678,453,o),
(686,465,o),
(686,476,qs),
(686,487,o),
(664,510,o),
(650,521,q),
(609,496,o),
(573,467,qs),
(546,446,o),
(495,413,o),
(472,408,q),
(485,452,o),
(504,500,q),
(598,528,o),
(635,549,q),
(634,556,o),
(622,585,o),
(605,609,o),
(596,609,qs),
(590,609,o),
(572,594,o),
(561,587,q),
(544,566,o),
(521,554,q),
(527,577,o),
(533,601,qs),
(539,634,o),
(546,657,q),
(558,646,o),
(580,641,o),
(589,641,qs),
(594,641,o),
(602,643,o),
(602,643,q),
(602,648,o),
(602,651,q),
(603,654,o),
(603,657,qs),
(603,682,o),
(571,741,o),
(530,788,o),
(521,794,q),
(504,777,o),
(464,722,o),
(454,701,q),
(460,701,ls),
(470,701,o),
(479,677,o),
(479,648,qs),
(479,607,o),
(471,527,q),
(427,505,o),
(393,499,q),
(388,497,o),
(384,496,qs),
(365,489,o),
(358,483,q),
(366,474,o),
(377,474,qs),
(427,474,o),
(461,483,q),
(455,424,o),
(444,363,q),
(437,360,o),
(420,353,o),
(415,351,q),
(402,370,o),
(331,406,o),
(290,421,q),
(280,426,o),
(271,430,qs),
(268,431,o),
(259,421,o),
(259,415,qs),
(259,409,o),
(273,403,o),
(284,400,qs),
(303,395,o),
(355,368,o),
(386,339,q),
(365,329,o),
(332,317,qs),
(313,309,o),
(291,301,q),
(275,308,o),
(259,319,qs),
(258,320,o),
(257,320,q),
(252,323,o),
(249,324,q),
(237,331,o),
(213,341,o),
(202,341,qs),
(198,341,o),
(195,340,o),
(193,339,q),
(192,336,o),
(191,336,q),
(206,288,o),
(247,204,qs),
(249,200,o),
(252,194,qs),
(262,177,o),
(270,156,qs),
(282,126,o),
(310,71,o),
(338,37,o),
(353,37,qs),
(364,37,o),
(384,54,o),
(384,69,qs),
(384,88,o),
(364,138,o),
(350,164,qs),
(348,167,o),
(347,170,q),
(332,199,o),
(310,250,o),
(310,269,qs),
(310,277,o),
(343,300,o),
(386,319,o),
(402,324,q),
(411,313,o),
(434,274,o),
(439,252,q),
(422,247,o),
(387,233,o),
(376,224,q),
(376,223,o),
(376,223,q),
(380,217,o),
(391,210,o),
(402,210,qs),
(408,210,o),
(416,213,q),
(428,221,o),
(459,230,q),
(460,217,o),
(461,205,qs),
(462,193,o),
(465,181,q),
(434,170,o),
(418,166,qs),
(399,161,o),
(387,155,q),
(391,146,o),
(400,137,o),
(409,137,qs),
(418,137,o),
(437,144,qs),
(449,148,o),
(465,151,q),
(465,135,o),
(462,84,o),
(461,75,q),
(453,77,o),
(433,81,o),
(428,81,q),
(499,37,o),
(533,10,q),
(541,5,o),
(550,-1,qs),
(573,-19,o),
(601,-34,o),
(620,-34,qs),
(643,-34,o)
);
},
{
closed = 1;
nodes = (
(461,373,qs),
(462,386,o),
(467,400,q),
(509,413,o),
(538,427,qs),
(558,438,o),
(567,438,qs),
(572,438,o),
(582,432,o),
(582,429,qs),
(582,421,o),
(579,415,o),
(578,413,q),
(541,387,o),
(460,367,q),
(460,368,o)
);
},
{
closed = 1;
nodes = (
(530,49,o),
(515,55,q),
(507,60,o),
(499,63,q),
(505,81,o),
(512,140,o),
(513,168,q),
(541,175,o),
(578,181,o),
(605,181,qs),
(616,182,o),
(616,193,qs),
(616,204,o),
(603,221,o),
(592,221,qs),
(587,221,o),
(577,216,q),
(560,210,o),
(513,195,q),
(513,205,o),
(515,212,q),
(515,230,o),
(517,247,q),
(546,255,o),
(598,258,o),
(613,258,qs),
(620,258,o),
(634,263,o),
(634,269,qs),
(634,280,o),
(616,296,o),
(605,296,qs),
(598,296,o),
(574,293,o),
(555,289,q),
(571,324,o),
(590,350,qs),
(600,362,o),
(606,374,q),
(614,375,o),
(625,375,qs),
(633,375,o),
(641,374,q),
(642,371,o),
(643,370,qs),
(659,353,o),
(702,303,o),
(702,291,qs),
(702,271,o),
(689,237,o),
(675,210,q),
(673,204,o),
(670,200,q),
(665,189,o),
(659,178,qs),
(656,170,o),
(650,159,q),
(622,95,o),
(577,37,o),
(568,37,qs),
(560,37,o)
);
},
{
closed = 1;
nodes = (
(423,334,q),
(437,340,o),
(499,360,o),
(560,368,q),
(552,345,o),
(534,303,o),
(520,279,q),
(506,273,o),
(479,263,o),
(460,258,q),
(448,297,o)
);
}
);
vertWidth = 2048;
width = 1000;
},
{
layerId = m002;
shapes = (
{
closed = 1;
nodes = (
(678,15,o),
(702,63,qs),
(718,93,o),
(740,132,q),
(741,135,o),
(742,138,q),
(770,184,o),
(809,261,o),
(809,286,qs),
(809,300,o),
(797,322,o),
(786,334,qs),
(776,346,o),
(765,365,qs),
(764,367,o),
(764,368,q),
(745,398,o),
(714,426,o),
(680,431,o),
(654,431,q),
(663,442,o),
(670,449,q),
(678,453,o),
(686,465,o),
(686,476,qs),
(686,487,o),
(664,510,o),
(650,521,q),
(609,496,o),
(573,467,qs),
(546,446,o),
(495,413,o),
(472,408,q),
(485,452,o),
(504,500,q),
(598,528,o),
(635,549,q),
(634,556,o),
(622,585,o),
(605,609,o),
(596,609,qs),
(590,609,o),
(572,594,o),
(561,587,q),
(544,566,o),
(521,554,q),
(527,577,o),
(533,601,qs),
(539,634,o),
(546,657,q),
(558,646,o),
(580,641,o),
(589,641,qs),
(594,641,o),
(602,643,o),
(602,643,q),
(602,648,o),
(602,651,q),
(603,654,o),
(603,657,qs),
(603,682,o),
(571,741,o),
(530,788,o),
(521,794,q),
(504,777,o),
(464,722,o),
(454,701,q),
(460,701,ls),
(470,701,o),
(479,677,o),
(479,648,qs),
(479,607,o),
(471,527,q),
(427,505,o),
(393,499,q),
(388,497,o),
(384,496,qs),
(365,489,o),
(358,483,q),
(366,474,o),
(377,474,qs),
(427,474,o),
(461,483,q),
(455,424,o),
(444,363,q),
(437,360,o),
(420,353,o),
(415,351,q),
(402,370,o),
(331,406,o),
(290,421,q),
(280,426,o),
(271,430,qs),
(268,431,o),
(259,421,o),
(259,415,qs),
(259,409,o),
(273,403,o),
(284,400,qs),
(303,395,o),
(355,368,o),
(386,339,q),
(365,329,o),
(332,317,qs),
(313,309,o),
(291,301,q),
(275,308,o),
(259,319,qs),
(258,320,o),
(257,320,q),
(252,323,o),
(249,324,q),
(237,331,o),
(213,341,o),
(202,341,qs),
(198,341,o),
(195,340,o),
(193,339,q),
(192,336,o),
(191,336,q),
(206,288,o),
(247,204,qs),
(249,200,o),
(252,194,qs),
(262,177,o),
(270,156,qs),
(282,126,o),
(310,71,o),
(338,37,o),
(353,37,qs),
(364,37,o),
(384,54,o),
(384,69,qs),
(384,88,o),
(364,138,o),
(350,164,qs),
(348,167,o),
(347,170,q),
(332,199,o),
(310,250,o),
(310,269,qs),
(310,277,o),
(343,300,o),
(386,319,o),
(402,324,q),
(411,313,o),
(434,274,o),
(439,252,q),
(422,247,o),
(387,233,o),
(376,224,q),
(376,223,o),
(376,223,q),
(380,217,o),
(391,210,o),
(402,210,qs),
(408,210,o),
(416,213,q),
(428,221,o),
(459,230,q),
(460,217,o),
(461,205,qs),
(462,193,o),
(465,181,q),
(434,170,o),
(418,166,qs),
(399,161,o),
(387,155,q),
(391,146,o),
(400,137,o),
(409,137,qs),
(418,137,o),
(437,144,qs),
(449,148,o),
(465,151,q),
(465,135,o),
(462,84,o),
(461,75,q),
(453,77,o),
(433,81,o),
(428,81,q),
(499,37,o),
(533,10,q),
(541,5,o),
(550,-1,qs),
(573,-19,o),
(601,-34,o),
(620,-34,qs),
(643,-34,o)
);
},
{
closed = 1;
nodes = (
(461,373,qs),
(462,386,o),
(467,400,q),
(509,413,o),
(538,427,qs),
(558,438,o),
(567,438,qs),
(572,438,o),
(582,432,o),
(582,429,qs),
(582,421,o),
(579,415,o),
(578,413,q),
(541,387,o),
(460,367,q),
(460,368,o)
);
},
{
closed = 1;
nodes = (
(530,49,o),
(515,55,q),
(507,60,o),
(499,63,q),
(505,81,o),
(512,140,o),
(513,168,q),
(541,175,o),
(578,181,o),
(605,181,qs),
(616,182,o),
(616,193,qs),
(616,204,o),
(603,221,o),
(592,221,qs),
(587,221,o),
(577,216,q),
(560,210,o),
(513,195,q),
(513,205,o),
(515,212,q),
(515,230,o),
(517,247,q),
(546,255,o),
(598,258,o),
(613,258,qs),
(620,258,o),
(634,263,o),
(634,269,qs),
(634,280,o),
(616,296,o),
(605,296,qs),
(598,296,o),
(574,293,o),
(555,289,q),
(571,324,o),
(590,350,qs),
(600,362,o),
(606,374,q),
(614,375,o),
(625,375,qs),
(633,375,o),
(641,374,q),
(642,371,o),
(643,370,qs),
(659,353,o),
(702,303,o),
(702,291,qs),
(702,271,o),
(689,237,o),
(675,210,q),
(673,204,o),
(670,200,q),
(665,189,o),
(659,178,qs),
(656,170,o),
(650,159,q),
(622,95,o),
(577,37,o),
(568,37,qs),
(560,37,o)
);
},
{
closed = 1;
nodes = (
(423,334,q),
(437,340,o),
(499,360,o),
(560,368,q),
(552,345,o),
(534,303,o),
(520,279,q),
(506,273,o),
(479,263,o),
(460,258,q),
(448,297,o)
);
}
);
vertWidth = 2048;
width = 1000;
}
);
note = uni5357;
unicode = 21335;
},
{
glyphname = uni590F;
lastChange = "2026-02-05 09:00:31 +0000";
layers = (
{
layerId = m01;
shapes = (
{
closed = 1;
nodes = (
(444,667,o),
(466,675,qs),
(494,688,o),
(558,702,o),
(608,701,qs),
(650,700,o),
(693,684,o),
(706,678,q),
(717,671,o),
(725,671,qs),
(737,671,o),
(752,695,o),
(752,707,qs),
(752,728,o),
(735,745,o),
(703,747,qs),
(687,747,o),
(674,752,q),
(668,753,l),
(653,759,o),
(626,761,qs),
(608,761,o),
(564,747,o),
(540,734,q),
(535,733,l),
(510,722,o),
(442,701,o),
(342,688,o),
(271,689,qs),
(259,690,o),
(248,690,qs),
(238,691,o),
(231,691,qs),
(221,691,o),
(209,689,o),
(209,680,qs),
(209,672,o),
(240,662,o),
(277,657,o),
(291,657,qs),
(372,655,o)
);
},
{
closed = 1;
nodes = (
(386,582,o),
(439,600,o),
(456,609,q),
(460,609,o),
(465,611,qs),
(474,614,o),
(489,623,o),
(489,633,qs),
(489,646,o),
(463,667,o),
(444,667,qs),
(443,667,o),
(439,666,o),
(439,665,q),
(426,630,o),
(377,596,o),
(352,587,qs),
(332,578,o),
(319,567,q),
(320,567,o),
(324,566,o),
(325,566,qs),
(336,566,o)
);
},
{
closed = 1;
nodes = (
(450,403,qs),
(481,407,o),
(508,405,o),
(533,403,qs),
(544,401,o),
(544,410,qs),
(544,421,o),
(533,438,o),
(523,440,q),
(518,440,o),
(508,437,qs),
(493,432,o),
(460,427,qs),
(382,413,o),
(365,410,q),
(343,409,o),
(338,405,q),
(342,397,o),
(350,387,o),
(356,387,qs),
(365,386,o),
(381,388,q),
(394,392,o)
);
},
{
closed = 1;
nodes = (
(338,458,o),
(353,458,qs),
(371,456,o),
(478,464,o),
(494,470,qs),
(519,478,o),
(541,487,o),
(541,500,qs),
(541,505,o),
(537,512,o),
(532,512,qs),
(513,514,o),
(481,505,qs),
(466,502,o),
(449,499,qs),
(425,493,o),
(372,483,o),
(359,485,qs),
(348,486,o),
(341,487,o),
(334,489,q),
(329,489,o),
(316,483,q),
(316,461,l)
);
},
{
closed = 1;
nodes = (
(476,86,o),
(507,61,qs),
(539,37,o),
(640,-1,o),
(663,-1,qs),
(682,-1,o),
(693,6,o),
(706,15,qs),
(724,26,o),
(738,26,qs),
(758,26,o),
(780,16,qs),
(808,5,o),
(827,11,q),
(797,38,o),
(713,67,o),
(629,76,o),
(579,93,qs),
(529,112,o),
(358,236,q),
(321,220,l)
);
},
{
closed = 1;
nodes = (
(635,346,o),
(635,347,q),
(629,367,o),
(630,381,q),
(637,424,o),
(648,452,qs),
(662,491,o),
(674,504,qs),
(682,512,o),
(687,523,o),
(681,534,qs),
(673,553,o),
(630,592,o),
(562,611,o),
(543,611,qs),
(533,611,o),
(523,607,o),
(518,603,qs),
(513,599,o),
(511,588,o),
(489,583,qs),
(425,572,o),
(318,543,o),
(307,536,qs),
(296,530,o),
(292,525,q),
(303,510,l),
(334,522,o),
(386,536,o),
(437,549,qs),
(471,559,o),
(534,562,o),
(545,562,qs),
(561,562,o),
(564,538,o),
(569,525,q),
(575,515,o),
(575,441,o),
(569,404,qs),
(568,394,o),
(563,374,o),
(561,362,q),
(635,345,l)
);
},
{
closed = 1;
nodes = (
(358,329,o),
(359,335,qs),
(367,371,o),
(339,478,q),
(337,491,l),
(326,514,o),
(320,545,qs),
(319,556,o),
(313,565,q),
(307,571,o),
(298,576,qs),
(282,583,o),
(268,542,q),
(262,516,o),
(287,440,o),
(294,413,qs),
(304,378,o),
(307,357,qs),
(308,343,o),
(307,334,q),
(354,324,l)
);
},
{
closed = 1;
nodes = (
(405,287,o),
(353,250,qs),
(315,224,o),
(225,188,o),
(181,172,q),
(189,167,o),
(202,161,o),
(209,160,qs),
(223,156,ls),
(252,149,o),
(337,184,o),
(388,220,qs),
(465,274,o),
(438,314,q),
(393,317,l)
);
},
{
closed = 1;
nodes = (
(479,317,qs),
(523,331,o),
(556,338,qs),
(590,345,o),
(646,335,o),
(670,325,q),
(692,320,o),
(704,317,q),
(724,309,o),
(752,312,o),
(762,334,qs),
(765,341,o),
(763,352,o),
(752,357,q),
(749,357,o),
(712,374,o),
(668,387,o),
(647,384,qs),
(611,376,o),
(552,360,qs),
(513,349,o),
(460,341,qs),
(393,328,o),
(361,329,qs),
(342,330,o),
(299,336,q),
(293,338,o),
(227,351,o),
(187,335,q),
(225,314,o),
(332,297,o),
(350,297,qs),
(427,300,o)
);
},
{
closed = 1;
nodes = (
(455,116,q),
(367,59,o),
(173,20,q),
(264,0,o),
(381,22,o),
(446,62,qs),
(518,106,o),
(526,113,qs),
(583,156,o),
(626,189,o),
(640,202,q),
(646,210,o),
(650,213,q),
(652,216,o),
(658,224,o),
(658,230,qs),
(658,241,o),
(651,249,qs),
(646,256,o),
(640,268,qs),
(628,296,o),
(614,297,q),
(601,300,o),
(590,308,o),
(573,291,qs),
(561,279,o),
(528,280,o),
(485,279,qs),
(465,279,o),
(401,274,q),
(421,261,o),
(437,250,q),
(446,242,o),
(463,238,o),
(546,252,qs),
(580,257,o),
(586,239,q),
(541,178,o)
);
}
);
vertWidth = 2048;
width = 1000;
},
{
layerId = m002;
shapes = (
{
closed = 1;
nodes = (
(444,667,o),
(466,675,qs),
(494,688,o),
(558,702,o),
(608,701,qs),
(650,700,o),
(693,684,o),
(706,678,q),
(717,671,o),
(725,671,qs),
(737,671,o),
(752,695,o),
(752,707,qs),
(752,728,o),
(735,745,o),
(703,747,qs),
(687,747,o),
(674,752,q),
(668,753,l),
(653,759,o),
(626,761,qs),
(608,761,o),
(564,747,o),
(540,734,q),
(535,733,l),
(510,722,o),
(442,701,o),
(342,688,o),
(271,689,qs),
(259,690,o),
(248,690,qs),
(238,691,o),
(231,691,qs),
(221,691,o),
(209,689,o),
(209,680,qs),
(209,672,o),
(240,662,o),
(277,657,o),
(291,657,qs),
(372,655,o)
);
},
{
closed = 1;
nodes = (
(386,582,o),
(439,600,o),
(456,609,q),
(460,609,o),
(465,611,qs),
(474,614,o),
(489,623,o),
(489,633,qs),
(489,646,o),
(463,667,o),
(444,667,qs),
(443,667,o),
(439,666,o),
(439,665,q),
(426,630,o),
(377,596,o),
(352,587,qs),
(332,578,o),
(319,567,q),
(320,567,o),
(324,566,o),
(325,566,qs),
(336,566,o)
);
},
{
closed = 1;
nodes = (
(450,403,qs),
(481,407,o),
(508,405,o),
(533,403,qs),
(544,401,o),
(544,410,qs),
(544,421,o),
(533,438,o),
(523,440,q),
(518,440,o),
(508,437,qs),
(493,432,o),
(460,427,qs),
(382,413,o),
(365,410,q),
(343,409,o),
(338,405,q),
(342,397,o),
(350,387,o),
(356,387,qs),
(365,386,o),
(381,388,q),
(394,392,o)
);
},
{
closed = 1;
nodes = (
(338,458,o),
(353,458,qs),
(371,456,o),
(478,464,o),
(494,470,qs),
(519,478,o),
(541,487,o),
(541,500,qs),
(541,505,o),
(537,512,o),
(532,512,qs),
(513,514,o),
(481,505,qs),
(466,502,o),
(449,499,qs),
(425,493,o),
(372,483,o),
(359,485,qs),
(348,486,o),
(341,487,o),
(334,489,q),
(329,489,o),
(316,483,q),
(316,461,l)
);
},
{
closed = 1;
nodes = (
(476,86,o),
(507,61,qs),
(539,37,o),
(640,-1,o),
(663,-1,qs),
(682,-1,o),
(693,6,o),
(706,15,qs),
(724,26,o),
(738,26,qs),
(758,26,o),
(780,16,qs),
(808,5,o),
(827,11,q),
(797,38,o),
(713,67,o),
(629,76,o),
(579,93,qs),
(529,112,o),
(358,236,q),
(321,220,l)
);
},
{
closed = 1;
nodes = (
(635,346,o),
(635,347,q),
(629,367,o),
(630,381,q),
(637,424,o),
(648,452,qs),
(662,491,o),
(674,504,qs),
(682,512,o),
(687,523,o),
(681,534,qs),
(673,553,o),
(630,592,o),
(562,611,o),
(543,611,qs),
(533,611,o),
(523,607,o),
(518,603,qs),
(513,599,o),
(511,588,o),
(489,583,qs),
(425,572,o),
(318,543,o),
(307,536,qs),
(296,530,o),
(292,525,q),
(303,510,l),
(334,522,o),
(386,536,o),
(437,549,qs),
(471,559,o),
(534,562,o),
(545,562,qs),
(561,562,o),
(564,538,o),
(569,525,q),
(575,515,o),
(575,441,o),
(569,404,qs),
(568,394,o),
(563,374,o),
(561,362,q),
(635,345,l)
);
},
{
closed = 1;
nodes = (
(358,329,o),
(359,335,qs),
(367,371,o),
(339,478,q),
(337,491,l),
(326,514,o),
(320,545,qs),
(319,556,o),
(313,565,q),
(307,571,o),
(298,576,qs),
(282,583,o),
(268,542,q),
(262,516,o),
(287,440,o),
(294,413,qs),
(304,378,o),
(307,357,qs),
(308,343,o),
(307,334,q),
(354,324,l)
);
},
{
closed = 1;
nodes = (
(405,287,o),
(353,250,qs),
(315,224,o),
(225,188,o),
(181,172,q),
(189,167,o),
(202,161,o),
(209,160,qs),
(223,156,ls),
(252,149,o),
(337,184,o),
(388,220,qs),
(465,274,o),
(438,314,q),
(393,317,l)
);
},
{
closed = 1;
nodes = (
(479,317,qs),
(523,331,o),
(556,338,qs),
(590,345,o),
(646,335,o),
(670,325,q),
(692,320,o),
(704,317,q),
(724,309,o),
(752,312,o),
(762,334,qs),
(765,341,o),
(763,352,o),
(752,357,q),
(749,357,o),
(712,374,o),
(668,387,o),
(647,384,qs),
(611,376,o),
(552,360,qs),
(513,349,o),
(460,341,qs),
(393,328,o),
(361,329,qs),
(342,330,o),
(299,336,q),
(293,338,o),
(227,351,o),
(187,335,q),
(225,314,o),
(332,297,o),
(350,297,qs),
(427,300,o)
);
},
{
closed = 1;
nodes = (
(455,116,q),
(367,59,o),
(173,20,q),
(264,0,o),
(381,22,o),
(446,62,qs),
(518,106,o),
(526,113,qs),
(583,156,o),
(626,189,o),
(640,202,q),
(646,210,o),
(650,213,q),
(652,216,o),
(658,224,o),
(658,230,qs),
(658,241,o),
(651,249,qs),
(646,256,o),
(640,268,qs),
(628,296,o),
(614,297,q),
(601,300,o),
(590,308,o),
(573,291,qs),
(561,279,o),
(528,280,o),
(485,279,qs),
(465,279,o),
(401,274,q),
(421,261,o),
(437,250,q),
(446,242,o),
(463,238,o),
(546,252,qs),
(580,257,o),
(586,239,q),
(541,178,o)
);
}
);
vertWidth = 2048;
width = 1000;
}
);
note = uni590F;
unicode = 22799;
},
{
glyphname = uni6625;
lastChange = "2026-02-05 09:00:31 +0000";
layers = (
{
layerId = m01;
shapes = (
{
closed = 1;
nodes = (
(536,695,o),
(540,711,o),
(540,722,qs),
(540,740,o),
(520,760,o),
(509,760,qs),
(499,760,o),
(490,746,q),
(487,743,l),
(455,581,l),
(442,531,o),
(398,432,o),
(387,412,qs),
(357,358,ls),
(286,222,o),
(146,59,q),
(212,76,o),
(301,165,o),
(343,246,qs),
(404,366,ls),
(410,379,o),
(417,395,qs),
(423,409,o),
(431,425,qs),
(473,515,o),
(515,637,qs),
(534,688,ls)
);
},
{
closed = 1;
nodes = (
(854,79,q),
(852,92,o),
(815,119,o),
(774,160,o),
(743,201,qs),
(723,227,o),
(652,362,o),
(573,463,o),
(552,502,o),
(538,502,qs),
(524,502,o),
(524,482,o),
(524,468,qs),
(524,458,o),
(534,451,qs),
(544,442,o),
(551,429,qs),
(568,402,o),
(623,317,o),
(645,274,qs),
(657,250,o),
(676,184,o),
(718,125,qs),
(731,106,o),
(786,72,o),
(834,72,qs),
(838,72,o)
);
},
{
closed = 1;
nodes = (
(541,77,q),
(524,82,o),
(501,86,o),
(480,83,q),
(453,82,o),
(432,76,q),
(428,88,o),
(406,148,q),
(411,146,o),
(420,140,qs),
(433,132,o),
(516,149,o),
(529,154,qs),
(547,160,o),
(560,175,o),
(560,188,qs),
(560,192,o),
(555,199,o),
(549,200,qs),
(540,202,o),
(527,199,qs),
(513,194,o),
(493,189,qs),
(467,183,o),
(433,173,o),
(422,176,q),
(417,176,o),
(409,179,o),
(408,179,q),
(405,181,o),
(399,176,q),
(389,200,o),
(383,224,o),
(376,245,q),
(386,249,o),
(432,255,o),
(474,267,qs),
(502,275,o),
(545,278,o),
(552,278,qs),
(562,278,o),
(577,262,o),
(578,249,qs),
(579,238,o),
(573,150,o),
(556,95,o)
);
},
{
closed = 1;
nodes = (
(321,195,o),
(326,186,qs),
(347,149,o),
(359,121,qs),
(375,88,o),
(376,47,o),
(376,35,qs),
(376,24,o),
(397,8,o),
(402,8,qs),
(413,7,o),
(438,12,o),
(440,24,q),
(460,31,o),
(509,28,qs),
(528,28,o),
(560,-2,o),
(572,1,qs),
(587,4,o),
(609,14,o),
(609,42,qs),
(609,63,o),
(613,89,qs),
(624,167,o),
(639,202,qs),
(652,234,o),
(656,239,o),
(653,251,q),
(652,266,o),
(623,285,o),
(596,334,o),
(583,334,qs),
(574,334,o),
(552,317,o),
(530,312,o),
(516,310,qs),
(467,300,o),
(372,272,o),
(361,267,q),
(350,260,o),
(346,258,q),
(320,222,l)
);
},
{
closed = 1;
nodes = (
(491,572,qs),
(558,592,o),
(635,609,q),
(654,621,o),
(690,659,o),
(690,670,qs),
(690,677,o),
(680,683,o),
(674,683,qs),
(667,683,o),
(623,667,qs),
(567,649,o),
(426,609,o),
(383,605,qs),
(369,604,o),
(362,605,qs),
(355,606,o),
(346,606,qs),
(336,605,o),
(309,594,o),
(287,581,o),
(287,577,qs),
(287,570,o),
(313,555,o),
(350,545,o),
(366,545,q),
(413,549,o)
);
},
{
closed = 1;
nodes = (
(592,494,o),
(652,514,q),
(662,520,o),
(685,543,o),
(685,555,qs),
(685,560,o),
(675,566,o),
(669,566,q),
(638,561,o),
(573,541,qs),
(557,536,o),
(539,530,qs),
(490,515,o),
(397,491,o),
(369,487,qs),
(358,486,o),
(346,486,o),
(342,486,qs),
(335,486,ls),
(327,485,o),
(293,473,o),
(262,458,o),
(262,453,qs),
(262,447,o),
(301,440,o),
(347,438,o),
(365,440,qs),
(411,445,o)
);
},
{
closed = 1;
nodes = (
(822,322,o),
(832,350,o),
(832,356,qs),
(832,376,o),
(798,396,o),
(770,404,qs),
(761,407,o),
(753,409,qs),
(732,417,o),
(708,427,qs),
(696,432,o),
(687,437,qs),
(674,443,o),
(657,449,o),
(643,449,qs),
(631,449,o),
(598,441,o),
(571,431,q),
(434,396,ls),
(338,374,o),
(297,373,q),
(288,371,l),
(251,366,ls),
(234,363,o),
(195,352,o),
(166,340,o),
(166,335,q),
(169,328,o),
(193,319,o),
(225,317,o),
(235,317,qs),
(291,317,o),
(387,341,o),
(427,355,qs),
(429,356,ls),
(432,357,o),
(434,357,q),
(464,368,o),
(512,380,o),
(534,380,qs),
(551,380,o),
(602,379,o),
(622,376,q),
(662,366,o),
(712,336,qs),
(714,335,o),
(718,334,q),
(771,301,o),
(792,301,qs),
(804,301,o)
);
}
);
vertWidth = 2048;
width = 1000;
},
{
layerId = m002;
shapes = (
{
closed = 1;
nodes = (
(536,695,o),
(540,711,o),
(540,722,qs),
(540,740,o),
(520,760,o),
(509,760,qs),
(499,760,o),
(490,746,q),
(487,743,l),
(455,581,l),
(442,531,o),
(398,432,o),
(387,412,qs),
(357,358,ls),
(286,222,o),
(146,58,q),
(212,76,o),
(301,165,o),
(343,246,qs),
(404,366,ls),
(410,379,o),
(417,395,qs),
(423,409,o),
(431,424,qs),
(473,515,o),
(515,637,qs),
(534,688,ls)
);
},
{
closed = 1;
nodes = (
(854,79,q),
(852,91,o),
(815,119,o),
(774,160,o),
(743,201,qs),
(723,227,o),
(652,362,o),
(573,463,o),
(552,502,o),
(538,502,qs),
(524,502,o),
(524,482,o),
(524,467,qs),
(524,457,o),
(534,451,q),
(544,442,o),
(551,429,qs),
(568,402,o),
(623,316,o),
(645,273,qs),
(657,250,o),
(676,184,o),
(718,125,qs),
(731,106,o),
(786,72,o),
(834,72,qs),
(838,72,o)
);
},
{
closed = 1;
nodes = (
(541,77,q),
(524,82,o),
(501,86,o),
(480,83,q),
(453,82,o),
(432,76,q),
(428,88,o),
(406,148,q),
(411,145,o),
(420,140,qs),
(433,132,o),
(516,149,o),
(529,154,qs),
(547,160,o),
(560,175,o),
(560,187,qs),
(560,192,o),
(555,198,o),
(549,199,qs),
(540,202,o),
(527,198,qs),
(513,194,o),
(493,188,q),
(467,183,o),
(433,173,o),
(422,176,q),
(417,176,o),
(409,179,o),
(408,179,q),
(405,181,o),
(399,176,q),
(389,199,o),
(383,224,o),
(376,245,q),
(386,249,o),
(432,255,o),
(474,267,qs),
(502,274,o),
(545,278,o),
(552,278,qs),
(562,278,o),
(577,262,o),
(578,249,qs),
(579,238,o),
(573,150,o),
(556,95,o)
);
},
{
closed = 1;
nodes = (
(321,195,o),
(326,186,qs),
(347,149,o),
(359,121,qs),
(375,88,o),
(376,47,o),
(376,35,qs),
(376,24,o),
(397,8,o),
(402,8,qs),
(413,7,o),
(438,12,o),
(440,24,q),
(460,31,o),
(509,28,qs),
(528,28,o),
(560,-2,o),
(572,1,qs),
(587,4,o),
(609,14,o),
(609,42,qs),
(609,63,o),
(613,89,qs),
(624,166,o),
(639,202,qs),
(652,234,o),
(656,239,o),
(653,251,q),
(652,266,o),
(623,284,o),
(596,334,o),
(583,334,qs),
(574,334,o),
(552,316,o),
(530,312,o),
(516,310,qs),
(467,300,o),
(372,272,o),
(361,267,q),
(350,260,o),
(346,258,q),
(320,222,l)
);
},
{
closed = 1;
nodes = (
(491,572,qs),
(558,592,o),
(635,609,q),
(654,621,o),
(690,659,o),
(690,670,qs),
(690,677,o),
(680,682,o),
(674,682,qs),
(667,682,o),
(623,667,qs),
(567,649,o),
(426,609,o),
(383,605,qs),
(369,604,o),
(362,605,qs),
(355,606,o),
(346,606,qs),
(336,605,o),
(309,594,o),
(287,581,o),
(287,577,qs),
(287,570,o),
(313,555,o),
(350,545,o),
(366,545,q),
(413,549,o)
);
},
{
closed = 1;
nodes = (
(592,494,o),
(652,514,q),
(662,520,o),
(685,542,o),
(685,555,qs),
(685,560,o),
(675,566,o),
(669,566,q),
(638,561,o),
(573,541,qs),
(557,536,o),
(539,530,qs),
(490,515,o),
(397,491,o),
(369,487,qs),
(358,486,o),
(346,486,o),
(342,486,qs),
(335,486,ls),
(327,485,o),
(293,473,o),
(262,457,o),
(262,453,qs),
(262,446,o),
(301,440,o),
(347,438,o),
(365,440,qs),
(411,445,o)
);
},
{
closed = 1;
nodes = (
(822,322,o),
(832,349,o),
(832,356,qs),
(832,376,o),
(798,396,o),
(770,403,q),
(761,407,o),
(753,409,qs),
(732,417,o),
(708,427,qs),
(696,432,o),
(687,437,qs),
(674,443,o),
(657,449,o),
(643,449,qs),
(631,449,o),
(598,441,o),
(571,431,q),
(434,396,ls),
(338,374,o),
(297,373,q),
(288,370,l),
(251,366,ls),
(234,363,o),
(195,352,o),
(166,340,o),
(166,335,q),
(169,327,o),
(193,319,o),
(225,316,o),
(235,316,qs),
(291,316,o),
(387,341,o),
(427,355,qs),
(429,356,ls),
(432,357,o),
(434,357,q),
(464,368,o),
(512,380,o),
(534,380,qs),
(551,380,o),
(602,379,o),
(622,376,q),
(662,366,o),
(712,336,qs),
(714,335,o),
(718,334,q),
(771,301,o),
(792,301,qs),
(804,301,o)
);
}
);
vertWidth = 2048;
width = 1000;
}
);
note = uni6625;
unicode = 26149;
},
{
glyphname = uni6771;
lastChange = "2026-02-05 09:00:31 +0000";
layers = (
{
layerId = m01;
shapes = (
{
closed = 1;
nodes = (
(506,-35,o),
(510,2,o),
(510,19,qs),
(510,38,o),
(501,78,qs),
(499,87,o),
(498,95,qs),
(493,127,o),
(484,199,o),
(484,234,qs),
(484,257,o),
(485,275,qs),
(485,286,o),
(485,298,q),
(487,311,o),
(487,329,q),
(495,329,o),
(501,330,q),
(535,284,o),
(563,238,qs),
(584,206,o),
(623,153,o),
(662,121,o),
(680,121,qs),
(696,121,o),
(721,134,o),
(732,140,q),
(751,155,o),
(763,155,qs),
(779,155,o),
(794,145,qs),
(815,132,o),
(854,126,q),
(834,155,o),
(774,185,o),
(736,200,q),
(734,202,o),
(730,204,q),
(727,204,o),
(725,205,qs),
(678,222,o),
(574,278,o),
(529,334,q),
(536,335,o),
(551,340,o),
(563,341,o),
(563,341,q),
(569,336,o),
(583,329,o),
(591,329,qs),
(600,329,o),
(606,347,o),
(606,357,qs),
(606,367,o),
(616,384,o),
(624,393,qs),
(627,397,o),
(630,400,qs),
(652,425,o),
(670,472,q),
(684,474,o),
(710,482,o),
(710,494,qs),
(710,510,o),
(684,549,o),
(648,578,o),
(638,578,qs),
(623,578,o),
(584,569,qs),
(569,566,o),
(555,564,qs),
(488,550,l),
(488,559,o),
(490,570,qs),
(493,582,o),
(493,592,q),
(527,601,o),
(556,607,q),
(561,609,o),
(566,610,qs),
(585,614,o),
(607,622,o),
(607,631,qs),
(607,635,o),
(591,651,o),
(567,662,o),
(556,662,qs),
(550,662,o),
(544,657,o),
(539,654,q),
(534,648,o),
(515,634,o),
(494,629,q),
(499,678,o),
(529,712,o),
(545,718,qs),
(552,721,o),
(562,729,o),
(562,738,qs),
(562,758,o),
(535,773,o),
(506,780,qs),
(464,788,o),
(383,820,q),
(383,786,o),
(400,748,o),
(411,733,q),
(411,732,o),
(413,730,q),
(415,729,o),
(415,728,q),
(427,712,o),
(448,666,o),
(448,620,qs),
(448,615,l),
(410,601,o),
(380,600,q),
(344,594,l),
(350,583,o),
(369,570,o),
(388,570,qs),
(410,570,o),
(426,576,qs),
(437,579,o),
(450,581,q),
(450,572,o),
(450,550,o),
(451,543,q),
(376,521,o),
(297,504,q),
(290,507,o),
(282,511,qs),
(264,522,o),
(251,522,qs),
(241,522,o),
(236,513,q),
(243,497,o),
(286,443,o),
(310,416,qs),
(327,396,o),
(352,365,o),
(352,364,qs),
(352,360,o),
(348,357,q),
(348,356,o),
(347,352,o),
(348,351,qs),
(364,333,o),
(381,330,q),
(357,279,o),
(326,255,q),
(310,267,l),
(316,244,l),
(279,212,o),
(190,161,o),
(146,139,q),
(152,135,o),
(166,132,o),
(173,132,qs),
(186,132,ls),
(215,132,o),
(301,182,o),
(336,211,q),
(369,166,o),
(422,86,o),
(422,76,qs),
(422,53,o),
(438,-12,o),
(462,-60,o),
(477,-60,qs),
(491,-60,o)
);
},
{
closed = 1;
nodes = (
(485,489,qs),
(485,507,o),
(488,525,q),
(538,537,o),
(580,537,qs),
(598,537,o),
(623,530,o),
(623,523,qs),
(623,511,o),
(611,485,o),
(603,472,qs),
(601,469,o),
(600,464,q),
(592,470,o),
(587,475,qs),
(580,481,o),
(568,489,o),
(560,489,qs),
(545,489,o),
(530,483,o),
(526,480,qs),
(520,475,o),
(502,467,o),
(485,464,q),
(485,478,o)
);
},
{
closed = 1;
nodes = (
(330,471,o),
(320,480,q),
(380,505,o),
(451,519,q),
(451,503,o),
(453,487,qs),
(454,474,o),
(454,462,q),
(438,457,o),
(421,457,q),
(416,454,o),
(410,454,qs),
(405,453,o),
(399,452,qs),
(376,451,o),
(355,441,q),
(350,448,o)
);
},
{
closed = 1;
nodes = (
(485,403,qs),
(485,418,o),
(487,432,q),
(506,436,o),
(529,441,q),
(534,441,o),
(538,442,qs),
(557,448,o),
(568,448,qs),
(573,448,o),
(580,446,o),
(583,443,qs),
(584,442,o),
(587,441,q),
(579,426,o),
(569,408,qs),
(560,387,o),
(552,378,q),
(539,374,o),
(505,368,o),
(487,368,q),
(485,389,o)
);
},
{
closed = 1;
nodes = (
(433,365,qs),
(418,365,o),
(405,368,q),
(383,392,o),
(375,414,q),
(399,426,o),
(454,427,q),
(454,416,o),
(454,400,qs),
(455,384,o),
(455,365,q),
(443,365,o)
);
},
{
closed = 1;
nodes = (
(395,175,o),
(381,190,qs),
(378,193,o),
(376,196,q),
(376,199,o),
(375,200,qs),
(365,212,o),
(352,224,q),
(404,288,o),
(427,329,q),
(437,329,o),
(443,328,qs),
(449,328,o),
(455,328,q),
(455,322,o),
(454,311,qs),
(454,286,o),
(449,211,o),
(438,151,o),
(429,151,qs),
(420,151,o)
);
}
);
vertWidth = 2048;
width = 1000;
},
{
layerId = m002;
shapes = (
{
closed = 1;
nodes = (
(506,-35,o),
(510,2,o),
(510,19,qs),
(510,38,o),
(501,78,qs),
(499,87,o),
(498,95,qs),
(493,127,o),
(484,199,o),
(484,234,qs),
(484,257,o),
(485,275,qs),
(485,286,o),
(485,298,q),
(487,311,o),
(487,329,q),
(495,329,o),
(501,330,q),
(535,284,o),
(563,238,qs),
(584,206,o),
(623,153,o),
(662,121,o),
(680,121,qs),
(696,121,o),
(721,134,o),
(732,140,q),
(751,155,o),
(763,155,qs),
(779,155,o),
(794,145,qs),
(815,132,o),
(854,126,q),
(834,155,o),
(774,185,o),
(736,200,q),
(734,202,o),
(730,204,q),
(727,204,o),
(725,205,qs),
(678,222,o),
(574,278,o),
(529,334,q),
(536,335,o),
(551,340,o),
(563,341,o),
(563,341,q),
(569,336,o),
(583,329,o),
(591,329,qs),
(600,329,o),
(606,347,o),
(606,357,qs),
(606,367,o),
(616,384,o),
(624,393,qs),
(627,397,o),
(630,400,qs),
(652,425,o),
(670,472,q),
(684,474,o),
(710,482,o),
(710,494,qs),
(710,510,o),
(684,549,o),
(648,578,o),
(638,578,qs),
(623,578,o),
(584,569,qs),
(569,566,o),
(555,564,qs),
(488,550,l),
(488,559,o),
(490,570,qs),
(493,582,o),
(493,592,q),
(527,601,o),
(556,607,q),
(561,609,o),
(566,610,qs),
(585,614,o),
(607,622,o),
(607,631,qs),
(607,635,o),
(591,651,o),
(567,662,o),
(556,662,qs),
(550,662,o),
(544,657,o),
(539,654,q),
(534,648,o),
(515,634,o),
(494,629,q),
(499,678,o),
(529,712,o),
(545,718,qs),
(552,721,o),
(562,729,o),
(562,738,qs),
(562,758,o),
(535,773,o),
(506,780,qs),
(464,788,o),
(383,820,q),
(383,786,o),
(400,748,o),
(411,733,q),
(411,732,o),
(413,730,q),
(415,729,o),
(415,728,q),
(427,712,o),
(448,666,o),
(448,620,qs),
(448,615,l),
(410,601,o),
(380,600,q),
(344,594,l),
(350,583,o),
(369,570,o),
(388,570,qs),
(410,570,o),
(426,576,qs),
(437,579,o),
(450,581,q),
(450,572,o),
(450,550,o),
(451,543,q),
(376,521,o),
(297,504,q),
(290,507,o),
(282,511,qs),
(264,522,o),
(251,522,qs),
(241,522,o),
(236,513,q),
(243,497,o),
(286,443,o),
(310,416,qs),
(327,396,o),
(352,365,o),
(352,364,qs),
(352,360,o),
(348,357,q),
(348,356,o),
(347,352,o),
(348,351,qs),
(364,333,o),
(381,330,q),
(357,279,o),
(326,255,q),
(310,267,l),
(316,244,l),
(279,212,o),
(190,161,o),
(146,139,q),
(152,135,o),
(166,132,o),
(173,132,qs),
(186,132,ls),
(215,132,o),
(301,182,o),
(336,211,q),
(369,166,o),
(422,86,o),
(422,76,qs),
(422,53,o),
(438,-12,o),
(462,-60,o),
(477,-60,qs),
(491,-60,o)
);
},
{
closed = 1;
nodes = (
(485,489,qs),
(485,507,o),
(488,525,q),
(538,537,o),
(580,537,qs),
(598,537,o),
(623,530,o),
(623,523,qs),
(623,511,o),
(611,485,o),
(603,472,qs),
(601,469,o),
(600,464,q),
(592,470,o),
(587,475,qs),
(580,481,o),
(568,489,o),
(560,489,qs),
(545,489,o),
(530,483,o),
(526,480,qs),
(520,475,o),
(502,467,o),
(485,464,q),
(485,478,o)
);
},
{
closed = 1;
nodes = (
(330,471,o),
(320,480,q),
(380,505,o),
(451,519,q),
(451,503,o),
(453,487,qs),
(454,474,o),
(454,462,q),
(438,457,o),
(421,457,q),
(416,454,o),
(410,454,qs),
(405,453,o),
(399,452,qs),
(376,451,o),
(355,441,q),
(350,448,o)
);
},
{
closed = 1;
nodes = (
(485,403,qs),
(485,418,o),
(487,432,q),
(506,436,o),
(529,441,q),
(534,441,o),
(538,442,qs),
(557,448,o),
(568,448,qs),
(573,448,o),
(580,446,o),
(583,443,qs),
(584,442,o),
(587,441,q),
(579,426,o),
(569,408,qs),
(560,387,o),
(552,378,q),
(539,374,o),
(505,368,o),
(487,368,q),
(485,389,o)
);
},
{
closed = 1;
nodes = (
(433,365,qs),
(418,365,o),
(405,368,q),
(383,392,o),
(375,414,q),
(399,426,o),
(454,427,q),
(454,416,o),
(454,400,qs),
(455,384,o),
(455,365,q),
(443,365,o)
);
},
{
closed = 1;
nodes = (
(395,175,o),
(381,190,qs),
(378,193,o),
(376,196,q),
(376,199,o),
(375,200,qs),
(365,212,o),
(352,224,q),
(404,288,o),
(427,329,q),
(437,329,o),
(443,328,qs),
(449,328,o),
(455,328,q),
(455,322,o),
(454,311,qs),
(454,286,o),
(449,211,o),
(438,151,o),
(429,151,qs),
(420,151,o)
);
}
);
vertWidth = 2048;
width = 1000;
}
);
note = uni6771;
unicode = 26481;
},
{
glyphname = uni6885;
lastChange = "2026-02-05 09:00:31 +0000";
layers = (
{
layerId = m01;
shapes = (
{
closed = 1;
nodes = (
(302,545,q),
(243,360,o),
(130,226,q),
(185,244,o),
(258,333,o),
(290,413,qs),
(331,514,ls),
(336,528,o)
);
},
{
closed = 1;
nodes = (
(316,534,qs),
(359,547,o),
(381,550,q),
(395,554,o),
(406,556,qs),
(421,560,o),
(444,572,o),
(444,581,qs),
(444,588,o),
(428,607,o),
(402,622,o),
(389,622,qs),
(384,622,o),
(377,616,o),
(372,611,qs),
(367,604,o),
(347,588,o),
(325,579,qs),
(280,564,ls),
(239,547,o),
(206,544,q),
(169,537,l),
(174,523,o),
(195,507,o),
(215,507,qs),
(237,507,o),
(254,514,qs),
(277,522,o)
);
},
{
closed = 1;
nodes = (
(229,217,o),
(270,138,o),
(270,128,qs),
(270,105,o),
(286,41,o),
(310,-9,o),
(325,-9,qs),
(338,-9,o),
(354,17,o),
(358,54,o),
(358,71,qs),
(358,89,o),
(348,131,q),
(347,139,o),
(346,148,qs),
(341,179,o),
(332,250,o),
(332,286,qs),
(332,414,ls),
(333,469,o),
(333,507,qs),
(332,585,o),
(337,679,q),
(298,674,l),
(308,507,o),
(302,363,qs),
(302,339,o),
(297,263,o),
(286,204,o),
(277,204,qs),
(268,204,o),
(243,227,o),
(195,297,q),
(189,291,l)
);
},
{
closed = 1;
nodes = (
(416,406,o),
(432,415,o),
(432,425,qs),
(432,440,o),
(410,454,o),
(395,459,qs),
(350,470,o),
(325,483,q),
(327,457,o),
(357,421,o),
(375,409,qs),
(386,401,o)
);
},
{
closed = 1;
nodes = (
(336,641,o),
(341,668,o),
(346,674,q),
(352,679,o),
(361,696,o),
(361,708,qs),
(361,722,o),
(338,747,o),
(327,755,q),
(324,759,o),
(304,761,o),
(292,758,o),
(288,755,qs),
(281,750,o),
(275,740,qs),
(269,732,o),
(260,725,q),
(266,714,o),
(276,697,o),
(276,684,q),
(279,683,o),
(281,682,qs),
(290,676,o),
(290,666,o),
(295,657,q),
(297,655,o),
(303,592,q),
(333,605,l)
);
},
{
closed = 1;
nodes = (
(606,604,o),
(652,620,qs),
(686,631,o),
(696,633,qs),
(702,635,o),
(723,620,o),
(736,612,q),
(741,611,o),
(774,599,o),
(783,599,qs),
(793,599,o),
(809,623,o),
(809,635,qs),
(809,646,o),
(775,659,o),
(759,666,q),
(752,668,o),
(746,672,q),
(732,677,o),
(709,691,o),
(702,691,qs),
(691,691,o),
(679,673,o),
(668,667,qs),
(648,656,o),
(614,645,qs),
(563,631,o),
(518,628,o),
(513,629,qs),
(510,629,ls),
(506,629,o),
(490,625,o),
(476,618,o),
(476,615,qs),
(476,614,o),
(493,605,o),
(521,585,o),
(527,585,qs),
(544,585,o)
);
},
{
closed = 1;
nodes = (
(549,734,o),
(539,769,o),
(526,769,qs),
(502,769,o),
(461,727,o),
(470,690,qs),
(494,600,o),
(398,513,q),
(473,527,o),
(516,614,o),
(536,651,q),
(551,674,o)
);
},
{
closed = 1;
nodes = (
(479,530,o),
(473,530,q),
(465,528,o),
(461,505,o),
(464,492,qs),
(467,476,o),
(462,426,o),
(454,385,qs),
(448,351,o),
(420,258,o),
(428,227,qs),
(440,177,o),
(456,188,q),
(465,191,o),
(510,193,q),
(477,210,o),
(480,223,q),
(485,261,o),
(502,329,qs),
(526,436,o),
(517,478,qs),
(509,521,o)
);
},
{
closed = 1;
nodes = (
(501,463,o),
(513,469,qs),
(578,499,o),
(622,508,qs),
(662,515,o),
(668,515,qs),
(674,515,o),
(679,514,q),
(680,513,o),
(681,510,q),
(695,491,o),
(724,437,o),
(724,421,qs),
(724,400,o),
(710,298,o),
(700,269,qs),
(698,263,o),
(686,224,o),
(681,212,q),
(662,142,o),
(628,75,o),
(623,75,qs),
(616,75,o),
(595,88,o),
(583,97,qs),
(572,105,l),
(545,119,l),
(539,120,o),
(524,125,o),
(520,125,q),
(572,75,o),
(596,46,q),
(609,33,ls),
(627,13,o),
(646,-3,o),
(659,-3,qs),
(676,-3,o),
(702,52,o),
(719,105,qs),
(730,138,o),
(746,182,q),
(748,185,o),
(749,189,qs),
(768,241,o),
(803,389,o),
(803,416,qs),
(803,431,o),
(794,457,o),
(786,470,qs),
(779,483,o),
(771,504,qs),
(770,508,ls),
(756,543,o),
(734,572,o),
(691,581,o),
(681,571,qs),
(656,545,o),
(628,533,qs),
(600,519,o),
(533,496,qs),
(505,485,o),
(485,478,q),
(490,458,l)
);
},
{
closed = 1;
nodes = (
(595,159,qs),
(596,159,o),
(600,159,qs),
(622,162,o),
(675,162,o),
(716,153,qs),
(749,145,o),
(787,123,o),
(797,115,qs),
(807,108,o),
(814,105,q),
(822,104,o),
(836,120,o),
(836,132,qs),
(836,149,o),
(820,168,o),
(796,173,q),
(782,178,o),
(770,184,q),
(766,185,o),
(765,188,q),
(752,194,o),
(730,201,q),
(702,206,o),
(658,194,qs),
(592,179,o),
(496,201,qs),
(485,204,o),
(480,210,q),
(475,213,o),
(470,216,q),
(464,217,o),
(451,211,o),
(442,200,o),
(442,195,qs),
(442,188,o),
(466,173,o),
(498,164,o),
(509,161,qs),
(558,150,o)
);
},
{
closed = 1;
nodes = (
(787,313,qs),
(817,311,o),
(849,312,qs),
(859,313,o),
(870,320,o),
(870,333,qs),
(870,347,o),
(849,360,o),
(805,365,qs),
(727,374,o),
(658,384,o),
(646,384,q),
(631,382,o),
(605,378,o),
(526,353,q),
(510,351,o),
(498,346,q),
(476,340,ls),
(462,336,o),
(449,333,q),
(393,314,o),
(355,306,q),
(357,296,o),
(376,290,o),
(387,290,q),
(389,291,o),
(399,293,q),
(406,296,o),
(419,298,qs),
(421,298,o),
(423,300,q),
(459,309,o),
(578,334,o),
(634,336,q),
(648,339,o),
(695,333,q),
(740,319,o)
);
},
{
closed = 1;
nodes = (
(646,469,o),
(614,482,o),
(594,505,o),
(571,505,qs),
(562,505,o),
(558,487,o),
(558,481,qs),
(558,472,o),
(562,459,q),
(563,451,o),
(566,425,q),
(572,296,o),
(544,202,q),
(535,178,o),
(450,125,o),
(423,114,q),
(391,97,o),
(361,94,q),
(375,86,o),
(402,87,o),
(416,89,qs),
(444,95,o),
(517,132,o),
(574,171,o),
(582,201,q),
(583,212,o),
(584,223,qs),
(590,275,o),
(623,420,qs),
(630,448,o)
);
}
);
vertWidth = 2048;
width = 1000;
},
{
layerId = m002;
shapes = (
{
closed = 1;
nodes = (
(302,545,q),
(243,360,o),
(130,226,q),
(185,244,o),
(258,333,o),
(290,413,qs),
(331,514,ls),
(336,528,o)
);
},
{
closed = 1;
nodes = (
(316,534,qs),
(359,547,o),
(381,550,q),
(395,554,o),
(406,556,qs),
(421,560,o),
(444,572,o),
(444,581,qs),
(444,588,o),
(428,607,o),
(402,622,o),
(389,622,qs),
(384,622,o),
(377,616,o),
(372,611,qs),
(367,604,o),
(347,588,o),
(325,579,qs),
(280,564,ls),
(239,547,o),
(206,544,q),
(169,537,l),
(174,523,o),
(195,507,o),
(215,507,qs),
(237,507,o),
(254,514,qs),
(277,522,o)
);
},
{
closed = 1;
nodes = (
(229,217,o),
(270,138,o),
(270,128,qs),
(270,105,o),
(286,41,o),
(310,-9,o),
(325,-9,qs),
(338,-9,o),
(354,17,o),
(358,54,o),
(358,71,qs),
(358,89,o),
(348,131,q),
(347,139,o),
(346,148,qs),
(341,179,o),
(332,250,o),
(332,286,qs),
(332,414,ls),
(333,469,o),
(333,507,qs),
(332,585,o),
(337,679,q),
(298,674,l),
(308,507,o),
(302,363,qs),
(302,339,o),
(297,263,o),
(286,204,o),
(277,204,qs),
(268,204,o),
(243,227,o),
(195,297,q),
(189,291,l)
);
},
{
closed = 1;
nodes = (
(416,406,o),
(432,415,o),
(432,425,qs),
(432,440,o),
(410,454,o),
(395,459,qs),
(350,470,o),
(325,483,q),
(327,457,o),
(357,421,o),
(375,409,qs),
(386,401,o)
);
},
{
closed = 1;
nodes = (
(336,641,o),
(341,668,o),
(346,674,q),
(352,679,o),
(361,696,o),
(361,708,qs),
(361,722,o),
(338,747,o),
(327,755,q),
(324,759,o),
(304,761,o),
(292,758,o),
(288,755,qs),
(281,750,o),
(275,740,qs),
(269,732,o),
(260,725,q),
(266,714,o),
(276,697,o),
(276,684,q),
(279,683,o),
(281,682,qs),
(290,676,o),
(290,666,o),
(295,657,q),
(297,655,o),
(303,592,q),
(333,605,l)
);
},
{
closed = 1;
nodes = (
(606,604,o),
(652,620,qs),
(686,631,o),
(696,633,qs),
(702,635,o),
(723,620,o),
(736,612,q),
(741,611,o),
(774,599,o),
(783,599,qs),
(793,599,o),
(809,623,o),
(809,635,qs),
(809,646,o),
(775,659,o),
(759,666,q),
(752,668,o),
(746,672,q),
(732,677,o),
(709,691,o),
(702,691,qs),
(691,691,o),
(679,673,o),
(668,667,qs),
(648,656,o),
(614,645,qs),
(563,631,o),
(518,628,o),
(513,629,qs),
(510,629,ls),
(506,629,o),
(490,625,o),
(476,618,o),
(476,615,qs),
(476,614,o),
(493,605,o),
(521,585,o),
(527,585,qs),
(544,585,o)
);
},
{
closed = 1;
nodes = (
(549,734,o),
(539,769,o),
(526,769,qs),
(502,769,o),
(461,727,o),
(470,690,qs),
(494,600,o),
(398,513,q),
(473,527,o),
(516,614,o),
(536,651,q),
(551,674,o)
);
},
{
closed = 1;
nodes = (
(479,530,o),
(473,530,q),
(465,528,o),
(461,505,o),
(464,492,qs),
(467,476,o),
(462,426,o),
(454,385,qs),
(448,351,o),
(420,258,o),
(428,227,qs),
(440,177,o),
(456,188,q),
(465,191,o),
(510,193,q),
(477,210,o),
(480,223,q),
(485,261,o),
(502,329,qs),
(526,436,o),
(517,478,qs),
(509,521,o)
);
},
{
closed = 1;
nodes = (
(501,463,o),
(513,469,qs),
(578,499,o),
(622,508,qs),
(662,515,o),
(668,515,qs),
(674,515,o),
(679,514,q),
(680,513,o),
(681,510,q),
(695,491,o),
(724,437,o),
(724,421,qs),
(724,400,o),
(710,298,o),
(700,269,qs),
(698,263,o),
(686,224,o),
(681,212,q),
(662,142,o),
(628,75,o),
(623,75,qs),
(616,75,o),
(595,88,o),
(583,97,qs),
(572,105,l),
(545,119,l),
(539,120,o),
(524,125,o),
(520,125,q),
(572,75,o),
(596,46,q),
(609,33,ls),
(627,13,o),
(646,-3,o),
(659,-3,qs),
(676,-3,o),
(702,52,o),
(719,105,qs),
(730,138,o),
(746,182,q),
(748,185,o),
(749,189,qs),
(768,241,o),
(803,389,o),
(803,416,qs),
(803,431,o),
(794,457,o),
(786,470,qs),
(779,483,o),
(771,504,qs),
(770,508,ls),
(756,543,o),
(734,572,o),
(691,581,o),
(681,571,qs),
(656,545,o),
(628,533,qs),
(600,519,o),
(533,496,qs),
(505,485,o),
(485,478,q),
(490,458,l)
);
},
{
closed = 1;
nodes = (
(595,159,qs),
(596,159,o),
(600,159,qs),
(622,162,o),
(675,162,o),
(716,153,qs),
(749,145,o),
(787,123,o),
(797,115,qs),
(807,108,o),
(814,105,q),
(822,104,o),
(836,120,o),
(836,132,qs),
(836,149,o),
(820,168,o),
(796,173,q),
(782,178,o),
(770,184,q),
(766,185,o),
(765,188,q),
(752,194,o),
(730,201,q),
(702,206,o),
(658,194,qs),
(592,179,o),
(496,201,qs),
(485,204,o),
(480,210,q),
(475,213,o),
(470,216,q),
(464,217,o),
(451,211,o),
(442,200,o),
(442,195,qs),
(442,188,o),
(466,173,o),
(498,164,o),
(509,161,qs),
(558,150,o)
);
},
{
closed = 1;
nodes = (
(787,313,qs),
(817,311,o),
(849,312,qs),
(859,313,o),
(870,320,o),
(870,333,qs),
(870,347,o),
(849,360,o),
(805,365,qs),
(727,374,o),
(658,384,o),
(646,384,q),
(631,382,o),
(605,378,o),
(526,353,q),
(510,351,o),
(498,346,q),
(476,340,ls),
(462,336,o),
(449,333,q),
(393,314,o),
(355,306,q),
(357,296,o),
(376,290,o),
(387,290,q),
(389,291,o),
(399,293,q),
(406,296,o),
(419,298,qs),
(421,298,o),
(423,300,q),
(459,309,o),
(578,334,o),
(634,336,q),
(648,339,o),
(695,333,q),
(740,319,o)
);
},
{
closed = 1;
nodes = (
(646,469,o),
(614,482,o),
(594,505,o),
(571,505,qs),
(562,505,o),
(558,487,o),
(558,481,qs),
(558,472,o),
(562,459,q),
(563,451,o),
(566,425,q),
(572,296,o),
(544,202,q),
(535,178,o),
(450,125,o),
(423,114,q),
(391,97,o),
(361,94,q),
(375,86,o),
(402,87,o),
(416,89,qs),
(444,95,o),
(517,132,o),
(574,171,o),
(582,201,q),
(583,212,o),
(584,223,qs),
(590,275,o),
(623,420,qs),
(630,448,o)
);
}
);
vertWidth = 2048;
width = 1000;
}
);
note = uni6885;
unicode = 26757;
},
{
glyphname = uni767A;
lastChange = "2026-02-05 09:00:31 +0000";
layers = (
{
layerId = m01;
shapes = (
{
closed = 1;
nodes = (
(493,49,o),
(544,82,o),
(552,94,qs),
(557,104,o),
(563,160,o),
(567,187,qs),
(568,194,o),
(568,200,q),
(578,200,o),
(584,201,qs),
(590,201,o),
(596,201,qs),
(613,201,o),
(625,201,qs),
(639,200,o),
(653,200,qs),
(687,200,o),
(716,207,o),
(721,218,q),
(705,239,o),
(668,247,q),
(663,250,o),
(654,245,o),
(650,243,q),
(645,238,o),
(635,238,qs),
(630,238,o),
(619,236,qs),
(600,233,o),
(572,233,q),
(573,258,o),
(576,285,o),
(579,301,q),
(596,308,o),
(613,313,qs),
(630,316,o),
(636,322,q),
(636,325,o),
(631,337,o),
(620,348,o),
(612,348,qs),
(600,348,o),
(578,340,o),
(567,335,q),
(563,334,o),
(561,331,q),
(552,326,o),
(535,319,o),
(527,319,qs),
(521,319,o),
(517,323,o),
(516,325,qs),
(514,328,o),
(513,330,q),
(527,380,o),
(546,424,o),
(550,432,q),
(555,438,o),
(558,449,o),
(558,463,qs),
(558,485,o),
(525,519,o),
(514,526,q),
(516,517,o),
(516,506,o),
(516,499,qs),
(516,492,o),
(506,408,o),
(493,358,q),
(480,350,o),
(449,339,o),
(434,336,q),
(434,343,o),
(438,365,o),
(442,373,q),
(450,378,o),
(456,381,qs),
(465,386,o),
(479,395,o),
(483,403,q),
(480,408,o),
(463,417,o),
(454,417,qs),
(443,417,o),
(434,409,qs),
(427,401,o),
(416,401,qs),
(406,401,o),
(396,406,o),
(391,412,q),
(398,421,o),
(404,431,qs),
(410,442,o),
(417,452,qs),
(460,513,o),
(502,595,q),
(524,571,o),
(572,492,o),
(589,464,q),
(584,454,o),
(579,446,qs),
(574,438,o),
(570,432,q),
(580,432,o),
(592,436,o),
(600,438,q),
(630,391,o),
(656,336,o),
(662,319,qs),
(663,316,o),
(664,313,q),
(664,311,o),
(665,307,qs),
(669,290,o),
(685,266,q),
(732,243,o),
(771,218,qs),
(800,199,o),
(849,174,o),
(867,174,q),
(839,228,o),
(805,284,o),
(779,311,o),
(765,319,q),
(763,322,o),
(761,324,q),
(743,336,o),
(682,395,o),
(632,465,q),
(641,472,o),
(648,481,qs),
(658,492,o),
(680,510,o),
(693,510,qs),
(698,510,o),
(702,517,o),
(702,521,qs),
(702,532,o),
(676,561,o),
(658,564,q),
(658,564,o),
(658,562,q),
(656,554,o),
(637,519,o),
(611,490,q),
(595,508,o),
(583,528,q),
(579,537,o),
(573,543,q),
(614,601,o),
(636,657,q),
(642,667,o),
(648,671,qs),
(652,673,o),
(657,679,o),
(657,683,qs),
(657,693,o),
(643,718,o),
(625,739,o),
(620,741,q),
(613,734,o),
(598,696,o),
(590,672,q),
(585,662,o),
(583,653,qs),
(568,606,o),
(550,577,q),
(546,582,o),
(541,586,q),
(527,603,o),
(516,618,q),
(518,626,o),
(521,631,qs),
(524,635,o),
(528,646,o),
(528,655,qs),
(528,666,o),
(507,679,o),
(496,679,qs),
(485,679,o),
(467,661,o),
(458,648,qs),
(445,629,o),
(428,613,qs),
(407,595,o),
(353,555,o),
(332,542,qs),
(315,531,o),
(311,527,q),
(321,520,o),
(333,520,qs),
(347,520,o),
(372,528,o),
(384,535,qs),
(387,537,o),
(389,538,qs),
(412,553,o),
(442,556,q),
(428,524,o),
(386,457,o),
(373,443,q),
(366,452,o),
(325,487,o),
(273,520,o),
(251,524,q),
(252,503,o),
(283,466,o),
(304,448,qs),
(331,426,o),
(344,406,q),
(271,313,o),
(133,201,q),
(197,214,o),
(287,274,o),
(340,339,q),
(356,350,o),
(376,357,o),
(384,357,qs),
(389,357,o),
(396,356,o),
(401,352,q),
(401,340,o),
(396,323,o),
(387,312,q),
(351,294,o),
(319,269,q),
(314,266,o),
(310,263,qs),
(287,245,o),
(262,230,q),
(271,217,o),
(291,217,qs),
(300,217,o),
(316,227,o),
(326,234,qs),
(331,238,o),
(335,240,q),
(344,251,o),
(367,268,o),
(380,270,q),
(389,265,o),
(409,247,o),
(410,238,q),
(405,232,o),
(351,206,o),
(281,174,o),
(224,151,o),
(215,151,qs),
(202,151,o),
(181,157,o),
(169,163,qs),
(162,167,o),
(153,171,q),
(159,151,o),
(185,110,o),
(201,110,qs),
(203,110,o),
(207,110,qs),
(224,109,o),
(238,112,q),
(248,101,o),
(259,89,qs),
(277,66,o),
(314,31,o),
(335,31,qs),
(361,31,o),
(393,78,o),
(410,122,q),
(416,132,o),
(421,143,qs),
(429,163,o),
(440,185,q),
(463,189,o),
(490,193,qs),
(507,194,o),
(521,195,q),
(513,150,o),
(462,97,o),
(438,80,qs),
(432,75,o),
(427,70,q),
(418,64,o),
(407,53,o),
(407,47,qs),
(407,37,o),
(422,24,o),
(431,24,qs),
(440,24,o)
);
},
{
closed = 1;
nodes = (
(442,241,qs),
(439,247,o),
(438,252,q),
(432,260,o),
(426,261,qs),
(420,263,o),
(410,274,o),
(407,286,q),
(422,302,o),
(463,322,o),
(483,324,q),
(477,308,o),
(473,296,qs),
(466,279,o),
(466,269,q),
(473,270,o),
(491,288,o),
(499,297,q),
(499,297,o),
(499,300,q),
(506,296,o),
(519,294,o),
(536,294,q),
(536,265,o),
(529,229,q),
(519,228,o),
(508,227,qs),
(487,223,o),
(452,217,q),
(450,228,o)
);
},
{
closed = 1;
nodes = (
(262,111,o),
(252,122,q),
(313,167,o),
(386,199,q),
(396,193,o),
(396,182,qs),
(396,174,o),
(372,132,o),
(338,93,o),
(326,93,qs),
(305,93,o)
);
},
{
closed = 1;
nodes = (
(739,33,o),
(766,60,o),
(766,80,qs),
(766,107,o),
(692,148,o),
(653,148,qs),
(639,148,o),
(616,144,o),
(609,137,q),
(630,109,o),
(648,76,o),
(653,65,q),
(654,60,o),
(657,56,q),
(658,49,o),
(667,33,o),
(674,21,q),
(676,21,o),
(678,21,q),
(680,19,o),
(681,19,qs),
(699,19,o)
);
}
);
vertWidth = 2048;
width = 1000;
},
{
layerId = m002;
shapes = (
{
closed = 1;
nodes = (
(493,49,o),
(544,82,o),
(552,94,qs),
(557,104,o),
(563,160,o),
(567,187,qs),
(568,194,o),
(568,200,q),
(578,200,o),
(584,201,qs),
(590,201,o),
(596,201,qs),
(613,201,o),
(625,201,qs),
(639,200,o),
(653,200,qs),
(687,200,o),
(716,207,o),
(721,218,q),
(705,239,o),
(668,247,q),
(663,250,o),
(654,245,o),
(650,243,q),
(645,238,o),
(635,238,qs),
(630,238,o),
(619,236,qs),
(600,233,o),
(572,233,q),
(573,258,o),
(576,285,o),
(579,301,q),
(596,308,o),
(613,313,qs),
(630,316,o),
(636,322,q),
(636,325,o),
(631,337,o),
(620,348,o),
(612,348,qs),
(600,348,o),
(578,340,o),
(567,335,q),
(563,334,o),
(561,331,q),
(552,326,o),
(535,319,o),
(527,319,qs),
(521,319,o),
(517,323,o),
(516,325,qs),
(514,328,o),
(513,330,q),
(527,380,o),
(546,424,o),
(550,432,q),
(555,438,o),
(558,449,o),
(558,463,qs),
(558,485,o),
(525,519,o),
(514,526,q),
(516,517,o),
(516,506,o),
(516,499,qs),
(516,492,o),
(506,408,o),
(493,358,q),
(480,350,o),
(449,339,o),
(434,336,q),
(434,343,o),
(438,365,o),
(442,373,q),
(450,378,o),
(456,381,qs),
(465,386,o),
(479,395,o),
(483,403,q),
(480,408,o),
(463,417,o),
(454,417,qs),
(443,417,o),
(434,409,qs),
(427,401,o),
(416,401,qs),
(406,401,o),
(396,406,o),
(391,412,q),
(398,421,o),
(404,431,qs),
(410,442,o),
(417,452,qs),
(460,513,o),
(502,595,q),
(524,571,o),
(572,492,o),
(589,464,q),
(584,454,o),
(579,446,qs),
(574,438,o),
(570,432,q),
(580,432,o),
(592,436,o),
(600,438,q),
(630,391,o),
(656,336,o),
(662,319,qs),
(663,316,o),
(664,313,q),
(664,311,o),
(665,307,qs),
(669,290,o),
(685,266,q),
(732,243,o),
(771,218,qs),
(800,199,o),
(849,174,o),
(867,174,q),
(839,228,o),
(805,284,o),
(779,311,o),
(765,319,q),
(763,322,o),
(761,324,q),
(743,336,o),
(682,395,o),
(632,465,q),
(641,472,o),
(648,481,qs),
(658,492,o),
(680,510,o),
(693,510,qs),
(698,510,o),
(702,517,o),
(702,521,qs),
(702,532,o),
(676,561,o),
(658,564,q),
(658,564,o),
(658,562,q),
(656,554,o),
(637,519,o),
(611,490,q),
(595,508,o),
(583,528,q),
(579,537,o),
(573,543,q),
(614,601,o),
(636,657,q),
(642,667,o),
(648,671,qs),
(652,673,o),
(657,679,o),
(657,683,qs),
(657,693,o),
(643,718,o),
(625,739,o),
(620,741,q),
(613,734,o),
(598,696,o),
(590,672,q),
(585,662,o),
(583,653,qs),
(568,606,o),
(550,577,q),
(546,582,o),
(541,586,q),
(527,603,o),
(516,618,q),
(518,626,o),
(521,631,qs),
(524,635,o),
(528,646,o),
(528,655,qs),
(528,666,o),
(507,679,o),
(496,679,qs),
(485,679,o),
(467,661,o),
(458,648,qs),
(445,629,o),
(428,613,qs),
(407,595,o),
(353,555,o),
(332,542,qs),
(315,531,o),
(311,527,q),
(321,520,o),
(333,520,qs),
(347,520,o),
(372,528,o),
(384,535,qs),
(387,537,o),
(389,538,qs),
(412,553,o),
(442,556,q),
(428,524,o),
(386,457,o),
(373,443,q),
(366,452,o),
(325,487,o),
(273,520,o),
(251,524,q),
(252,503,o),
(283,466,o),
(304,448,qs),
(331,426,o),
(344,406,q),
(271,313,o),
(133,201,q),
(197,214,o),
(287,274,o),
(340,339,q),
(356,350,o),
(376,357,o),
(384,357,qs),
(389,357,o),
(396,356,o),
(401,352,q),
(401,340,o),
(396,323,o),
(387,312,q),
(351,294,o),
(319,269,q),
(314,266,o),
(310,263,qs),
(287,245,o),
(262,230,q),
(271,217,o),
(291,217,qs),
(300,217,o),
(316,227,o),
(326,234,qs),
(331,238,o),
(335,240,q),
(344,251,o),
(367,268,o),
(380,270,q),
(389,265,o),
(409,247,o),
(410,238,q),
(405,232,o),
(351,206,o),
(281,174,o),
(224,151,o),
(215,151,qs),
(202,151,o),
(181,157,o),
(169,163,qs),
(162,167,o),
(153,171,q),
(159,151,o),
(185,110,o),
(201,110,qs),
(203,110,o),
(207,110,qs),
(224,109,o),
(238,112,q),
(248,101,o),
(259,89,qs),
(277,66,o),
(314,31,o),
(335,31,qs),
(361,31,o),
(393,78,o),
(410,122,q),
(416,132,o),
(421,143,qs),
(429,163,o),
(440,185,q),
(463,189,o),
(490,193,qs),
(507,194,o),
(521,195,q),
(513,150,o),
(462,97,o),
(438,80,qs),
(432,75,o),
(427,70,q),
(418,64,o),
(407,53,o),
(407,47,qs),
(407,37,o),
(422,24,o),
(431,24,qs),
(440,24,o)
);
},
{
closed = 1;
nodes = (
(442,241,qs),
(439,247,o),
(438,252,q),
(432,260,o),
(426,261,qs),
(420,263,o),
(410,274,o),
(407,286,q),
(422,302,o),
(463,322,o),
(483,324,q),
(477,308,o),
(473,296,qs),
(466,279,o),
(466,269,q),
(473,270,o),
(491,288,o),
(499,297,q),
(499,297,o),
(499,300,q),
(506,296,o),
(519,294,o),
(536,294,q),
(536,265,o),
(529,229,q),
(519,228,o),
(508,227,qs),
(487,223,o),
(452,217,q),
(450,228,o)
);
},
{
closed = 1;
nodes = (
(262,111,o),
(252,122,q),
(313,167,o),
(386,199,q),
(396,193,o),
(396,182,qs),
(396,174,o),
(372,132,o),
(338,93,o),
(326,93,qs),
(305,93,o)
);
},
{
closed = 1;
nodes = (
(739,33,o),
(766,60,o),
(766,80,qs),
(766,107,o),
(692,148,o),
(653,148,qs),
(639,148,o),
(616,144,o),
(609,137,q),
(630,109,o),
(648,76,o),
(653,65,q),
(654,60,o),
(657,56,q),
(658,49,o),
(667,33,o),
(674,21,q),
(676,21,o),
(678,21,q),
(680,19,o),
(681,19,qs),
(699,19,o)
);
}
);
vertWidth = 2048;
width = 1000;
}
);
note = uni767A;
unicode = 30330;
},
{
glyphname = uni767C;
lastChange = "2026-02-05 09:00:31 +0000";
layers = (
{
layerId = m01;
shapes = (
{
closed = 1;
nodes = (
(493,49,o),
(544,82,o),
(552,94,qs),
(557,104,o),
(563,160,o),
(567,187,qs),
(568,194,o),
(568,200,q),
(578,200,o),
(584,201,qs),
(590,201,o),
(596,201,qs),
(613,201,o),
(625,201,qs),
(639,200,o),
(653,200,qs),
(687,200,o),
(716,207,o),
(721,218,q),
(705,239,o),
(668,247,q),
(663,250,o),
(654,245,o),
(650,243,q),
(645,238,o),
(635,238,qs),
(630,238,o),
(619,236,qs),
(600,233,o),
(572,233,q),
(573,258,o),
(576,285,o),
(579,301,q),
(596,308,o),
(613,313,qs),
(630,316,o),
(636,322,q),
(636,325,o),
(631,337,o),
(620,348,o),
(612,348,qs),
(600,348,o),
(578,340,o),
(567,335,q),
(563,334,o),
(561,331,q),
(552,326,o),
(535,319,o),
(527,319,qs),
(521,319,o),
(517,323,o),
(516,325,qs),
(514,328,o),
(513,330,q),
(527,380,o),
(546,424,o),
(550,432,q),
(555,438,o),
(558,449,o),
(558,463,qs),
(558,485,o),
(525,519,o),
(514,526,q),
(516,517,o),
(516,506,o),
(516,499,qs),
(516,492,o),
(506,408,o),
(493,358,q),
(480,350,o),
(449,339,o),
(434,336,q),
(434,343,o),
(438,365,o),
(442,373,q),
(450,378,o),
(456,381,qs),
(465,386,o),
(479,395,o),
(483,403,q),
(480,408,o),
(463,417,o),
(454,417,qs),
(443,417,o),
(434,409,qs),
(427,401,o),
(416,401,qs),
(406,401,o),
(396,406,o),
(391,412,q),
(398,421,o),
(404,431,qs),
(410,442,o),
(417,452,qs),
(460,513,o),
(502,595,q),
(524,571,o),
(572,492,o),
(589,464,q),
(584,454,o),
(579,446,qs),
(574,438,o),
(570,432,q),
(580,432,o),
(592,436,o),
(600,438,q),
(630,391,o),
(656,336,o),
(662,319,qs),
(663,316,o),
(664,313,q),
(664,311,o),
(665,307,qs),
(669,290,o),
(685,266,q),
(732,243,o),
(771,218,qs),
(800,199,o),
(849,174,o),
(867,174,q),
(839,228,o),
(805,284,o),
(779,311,o),
(765,319,q),
(763,322,o),
(761,324,q),
(743,336,o),
(682,395,o),
(632,465,q),
(641,472,o),
(648,481,qs),
(658,492,o),
(680,510,o),
(693,510,qs),
(698,510,o),
(702,517,o),
(702,521,qs),
(702,532,o),
(676,561,o),
(658,564,q),
(658,564,o),
(658,562,q),
(656,554,o),
(637,519,o),
(611,490,q),
(595,508,o),
(583,528,q),
(579,537,o),
(573,543,q),
(614,601,o),
(636,657,q),
(642,667,o),
(648,671,qs),
(652,673,o),
(657,679,o),
(657,683,qs),
(657,693,o),
(643,718,o),
(625,739,o),
(620,741,q),
(613,734,o),
(598,696,o),
(590,672,q),
(585,662,o),
(583,653,qs),
(568,606,o),
(550,577,q),
(546,582,o),
(541,586,q),
(527,603,o),
(516,618,q),
(518,626,o),
(521,631,qs),
(524,635,o),
(528,646,o),
(528,655,qs),
(528,666,o),
(507,679,o),
(496,679,qs),
(485,679,o),
(467,661,o),
(458,648,qs),
(445,629,o),
(428,613,qs),
(407,595,o),
(353,555,o),
(332,542,qs),
(315,531,o),
(311,527,q),
(321,520,o),
(333,520,qs),
(347,520,o),
(372,528,o),
(384,535,qs),
(387,537,o),
(389,538,qs),
(412,553,o),
(442,556,q),
(428,524,o),
(386,457,o),
(373,443,q),
(366,452,o),
(325,487,o),
(273,520,o),
(251,524,q),
(252,503,o),
(283,466,o),
(304,448,qs),
(331,426,o),
(344,406,q),
(271,313,o),
(133,201,q),
(197,214,o),
(287,274,o),
(340,339,q),
(356,350,o),
(376,357,o),
(384,357,qs),
(389,357,o),
(396,356,o),
(401,352,q),
(401,340,o),
(396,323,o),
(387,312,q),
(351,294,o),
(319,269,q),
(314,266,o),
(310,263,qs),
(287,245,o),
(262,230,q),
(271,217,o),
(291,217,qs),
(300,217,o),
(316,227,o),
(326,234,qs),
(331,238,o),
(335,240,q),
(344,251,o),
(367,268,o),
(380,270,q),
(389,265,o),
(409,247,o),
(410,238,q),
(405,232,o),
(351,206,o),
(281,174,o),
(224,151,o),
(215,151,qs),
(202,151,o),
(181,157,o),
(169,163,qs),
(162,167,o),
(153,171,q),
(159,151,o),
(185,110,o),
(201,110,qs),
(203,110,o),
(207,110,qs),
(224,109,o),
(238,112,q),
(248,101,o),
(259,89,qs),
(277,66,o),
(314,31,o),
(335,31,qs),
(361,31,o),
(393,78,o),
(410,122,q),
(416,132,o),
(421,143,qs),
(429,163,o),
(440,185,q),
(463,189,o),
(490,193,qs),
(507,194,o),
(521,195,q),
(513,150,o),
(462,97,o),
(438,80,qs),
(432,75,o),
(427,70,q),
(418,64,o),
(407,53,o),
(407,47,qs),
(407,37,o),
(422,24,o),
(431,24,qs),
(440,24,o)
);
},
{
closed = 1;
nodes = (
(442,241,qs),
(439,247,o),
(438,252,q),
(432,260,o),
(426,261,qs),
(420,263,o),
(410,274,o),
(407,286,q),
(422,302,o),
(463,322,o),
(483,324,q),
(477,308,o),
(473,296,qs),
(466,279,o),
(466,269,q),
(473,270,o),
(491,288,o),
(499,297,q),
(499,297,o),
(499,300,q),
(506,296,o),
(519,294,o),
(536,294,q),
(536,265,o),
(529,229,q),
(519,228,o),
(508,227,qs),
(487,223,o),
(452,217,q),
(450,228,o)
);
},
{
closed = 1;
nodes = (
(262,111,o),
(252,122,q),
(313,167,o),
(386,199,q),
(396,193,o),
(396,182,qs),
(396,174,o),
(372,132,o),
(338,93,o),
(326,93,qs),
(305,93,o)
);
},
{
closed = 1;
nodes = (
(739,33,o),
(766,60,o),
(766,80,qs),
(766,107,o),
(692,148,o),
(653,148,qs),
(639,148,o),
(616,144,o),
(609,137,q),
(630,109,o),
(648,76,o),
(653,65,q),
(654,60,o),
(657,56,q),
(658,49,o),
(667,33,o),
(674,21,q),
(676,21,o),
(678,21,q),
(680,19,o),
(681,19,qs),
(699,19,o)
);
}
);
vertWidth = 2048;
width = 1000;
},
{
layerId = m002;
shapes = (
{
closed = 1;
nodes = (
(493,49,o),
(544,82,o),
(552,94,qs),
(557,104,o),
(563,160,o),
(567,187,qs),
(568,194,o),
(568,200,q),
(578,200,o),
(584,201,qs),
(590,201,o),
(596,201,qs),
(613,201,o),
(625,201,qs),
(639,200,o),
(653,200,qs),
(687,200,o),
(716,207,o),
(721,218,q),
(705,239,o),
(668,247,q),
(663,250,o),
(654,245,o),
(650,243,q),
(645,238,o),
(635,238,qs),
(630,238,o),
(619,236,qs),
(600,233,o),
(572,233,q),
(573,258,o),
(576,285,o),
(579,301,q),
(596,308,o),
(613,313,qs),
(630,316,o),
(636,322,q),
(636,325,o),
(631,337,o),
(620,348,o),
(612,348,qs),
(600,348,o),
(578,340,o),
(567,335,q),
(563,334,o),
(561,331,q),
(552,326,o),
(535,319,o),
(527,319,qs),
(521,319,o),
(517,323,o),
(516,325,qs),
(514,328,o),
(513,330,q),
(527,380,o),
(546,424,o),
(550,432,q),
(555,438,o),
(558,449,o),
(558,463,qs),
(558,485,o),
(525,519,o),
(514,526,q),
(516,517,o),
(516,506,o),
(516,499,qs),
(516,492,o),
(506,408,o),
(493,358,q),
(480,350,o),
(449,339,o),
(434,336,q),
(434,343,o),
(438,365,o),
(442,373,q),
(450,378,o),
(456,381,qs),
(465,386,o),
(479,395,o),
(483,403,q),
(480,408,o),
(463,417,o),
(454,417,qs),
(443,417,o),
(434,409,qs),
(427,401,o),
(416,401,qs),
(406,401,o),
(396,406,o),
(391,412,q),
(398,421,o),
(404,431,qs),
(410,442,o),
(417,452,qs),
(460,513,o),
(502,595,q),
(524,571,o),
(572,492,o),
(589,464,q),
(584,454,o),
(579,446,qs),
(574,438,o),
(570,432,q),
(580,432,o),
(592,436,o),
(600,438,q),
(630,391,o),
(656,336,o),
(662,319,qs),
(663,316,o),
(664,313,q),
(664,311,o),
(665,307,qs),
(669,290,o),
(685,266,q),
(732,243,o),
(771,218,qs),
(800,199,o),
(849,174,o),
(867,174,q),
(839,228,o),
(805,284,o),
(779,311,o),
(765,319,q),
(763,322,o),
(761,324,q),
(743,336,o),
(682,395,o),
(632,465,q),
(641,472,o),
(648,481,qs),
(658,492,o),
(680,510,o),
(693,510,qs),
(698,510,o),
(702,517,o),
(702,521,qs),
(702,532,o),
(676,561,o),
(658,564,q),
(658,564,o),
(658,562,q),
(656,554,o),
(637,519,o),
(611,490,q),
(595,508,o),
(583,528,q),
(579,537,o),
(573,543,q),
(614,601,o),
(636,657,q),
(642,667,o),
(648,671,qs),
(652,673,o),
(657,679,o),
(657,683,qs),
(657,693,o),
(643,718,o),
(625,739,o),
(620,741,q),
(613,734,o),
(598,696,o),
(590,672,q),
(585,662,o),
(583,653,qs),
(568,606,o),
(550,577,q),
(546,582,o),
(541,586,q),
(527,603,o),
(516,618,q),
(518,626,o),
(521,631,qs),
(524,635,o),
(528,646,o),
(528,655,qs),
(528,666,o),
(507,679,o),
(496,679,qs),
(485,679,o),
(467,661,o),
(458,648,qs),
(445,629,o),
(428,613,qs),
(407,595,o),
(353,555,o),
(332,542,qs),
(315,531,o),
(311,527,q),
(321,520,o),
(333,520,qs),
(347,520,o),
(372,528,o),
(384,535,qs),
(387,537,o),
(389,538,qs),
(412,553,o),
(442,556,q),
(428,524,o),
(386,457,o),
(373,443,q),
(366,452,o),
(325,487,o),
(273,520,o),
(251,524,q),
(252,503,o),
(283,466,o),
(304,448,qs),
(331,426,o),
(344,406,q),
(271,313,o),
(133,201,q),
(197,214,o),
(287,274,o),
(340,339,q),
(356,350,o),
(376,357,o),
(384,357,qs),
(389,357,o),
(396,356,o),
(401,352,q),
(401,340,o),
(396,323,o),
(387,312,q),
(351,294,o),
(319,269,q),
(314,266,o),
(310,263,qs),
(287,245,o),
(262,230,q),
(271,217,o),
(291,217,qs),
(300,217,o),
(316,227,o),
(326,234,qs),
(331,238,o),
(335,240,q),
(344,251,o),
(367,268,o),
(380,270,q),
(389,265,o),
(409,247,o),
(410,238,q),
(405,232,o),
(351,206,o),
(281,174,o),
(224,151,o),
(215,151,qs),
(202,151,o),
(181,157,o),
(169,163,qs),
(162,167,o),
(153,171,q),
(159,151,o),
(185,110,o),
(201,110,qs),
(203,110,o),
(207,110,qs),
(224,109,o),
(238,112,q),
(248,101,o),
(259,89,qs),
(277,66,o),
(314,31,o),
(335,31,qs),
(361,31,o),
(393,78,o),
(410,122,q),
(416,132,o),
(421,143,qs),
(429,163,o),
(440,185,q),
(463,189,o),
(490,193,qs),
(507,194,o),
(521,195,q),
(513,150,o),
(462,97,o),
(438,80,qs),
(432,75,o),
(427,70,q),
(418,64,o),
(407,53,o),
(407,47,qs),
(407,37,o),
(422,24,o),
(431,24,qs),
(440,24,o)
);
},
{
closed = 1;
nodes = (
(442,241,qs),
(439,247,o),
(438,252,q),
(432,260,o),
(426,261,qs),
(420,263,o),
(410,274,o),
(407,286,q),
(422,302,o),
(463,322,o),
(483,324,q),
(477,308,o),
(473,296,qs),
(466,279,o),
(466,269,q),
(473,270,o),
(491,288,o),
(499,297,q),
(499,297,o),
(499,300,q),
(506,296,o),
(519,294,o),
(536,294,q),
(536,265,o),
(529,229,q),
(519,228,o),
(508,227,qs),
(487,223,o),
(452,217,q),
(450,228,o)
);
},
{
closed = 1;
nodes = (
(262,111,o),
(252,122,q),
(313,167,o),
(386,199,q),
(396,193,o),
(396,182,qs),
(396,174,o),
(372,132,o),
(338,93,o),
(326,93,qs),
(305,93,o)
);
},
{
closed = 1;
nodes = (
(739,33,o),
(766,60,o),
(766,80,qs),
(766,107,o),
(692,148,o),
(653,148,qs),
(639,148,o),
(616,144,o),
(609,137,q),
(630,109,o),
(648,76,o),
(653,65,q),
(654,60,o),
(657,56,q),
(658,49,o),
(667,33,o),
(674,21,q),
(676,21,o),
(678,21,q),
(680,19,o),
(681,19,qs),
(699,19,o)
);
}
);
vertWidth = 2048;
width = 1000;
}
);
note = uni767C;
unicode = 30332;
},
{
glyphname = uni767D;
lastChange = "2026-02-05 09:00:31 +0000";
layers = (
{
layerId = m01;
shapes = (
{
closed = 1;
nodes = (
(572,115,q),
(549,122,o),
(523,125,o),
(482,123,qs),
(442,121,o),
(398,110,q),
(397,145,o),
(359,238,q),
(366,234,o),
(377,232,qs),
(399,229,o),
(528,238,o),
(549,244,q),
(577,255,o),
(590,285,o),
(590,304,qs),
(590,311,o),
(585,322,o),
(579,324,q),
(560,326,o),
(523,315,qs),
(505,308,o),
(494,306,qs),
(461,297,o),
(399,286,o),
(387,288,qs),
(375,290,o),
(360,295,o),
(359,295,qs),
(355,296,o),
(341,288,q),
(335,296,o),
(321,320,qs),
(303,352,o),
(293,374,q),
(333,393,o),
(398,413,o),
(462,433,qs),
(504,447,o),
(566,451,o),
(578,451,qs),
(594,449,o),
(636,397,o),
(639,376,qs),
(640,360,o),
(616,243,o),
(596,182,qs),
(591,167,o),
(579,134,o)
);
},
{
closed = 1;
nodes = (
(703,257,qs),
(732,317,o),
(752,339,qs),
(763,351,o),
(772,369,o),
(769,388,qs),
(766,415,o),
(697,492,o),
(613,526,o),
(591,528,qs),
(580,528,o),
(568,521,o),
(561,516,q),
(554,513,o),
(547,491,o),
(521,487,q),
(454,471,o),
(322,426,o),
(308,416,q),
(292,408,o),
(285,399,q),
(280,415,o),
(270,426,qs),
(260,436,o),
(251,443,qs),
(229,457,o),
(229,396,qs),
(229,359,o),
(280,230,o),
(296,190,qs),
(319,141,o),
(349,36,o),
(358,36,qs),
(373,34,o),
(397,42,o),
(400,60,q),
(442,74,o),
(511,70,qs),
(538,69,o),
(623,41,o),
(629,41,q),
(639,39,o),
(651,55,o),
(651,90,qs),
(651,120,o),
(658,141,qs),
(681,211,o)
);
},
{
closed = 1;
nodes = (
(381,498,o),
(451,548,o),
(473,567,q),
(477,572,o),
(484,576,q),
(500,588,o),
(534,623,o),
(534,647,qs),
(534,672,o),
(509,707,o),
(473,725,o),
(459,725,qs),
(454,725,o),
(451,723,o),
(450,719,qs),
(433,629,o),
(367,537,o),
(336,511,qs),
(310,489,o),
(293,459,q),
(295,458,o),
(298,457,o),
(301,457,qs),
(314,457,o)
);
}
);
vertWidth = 2048;
width = 1000;
},
{
layerId = m002;
shapes = (
{
closed = 1;
nodes = (
(572,115,q),
(549,122,o),
(523,125,o),
(482,123,qs),
(442,121,o),
(398,110,q),
(397,145,o),
(360,238,q),
(366,234,o),
(377,232,qs),
(399,229,o),
(528,238,o),
(549,244,q),
(577,255,o),
(590,285,o),
(590,304,qs),
(590,311,o),
(586,322,o),
(579,324,q),
(560,326,o),
(523,315,qs),
(505,308,o),
(494,306,qs),
(461,297,o),
(399,286,o),
(387,288,qs),
(375,291,o),
(361,295,o),
(360,295,qs),
(355,296,o),
(341,288,q),
(335,296,o),
(321,320,qs),
(303,352,o),
(293,374,q),
(333,393,o),
(398,413,o),
(462,433,qs),
(504,447,o),
(566,451,o),
(578,451,qs),
(594,449,o),
(636,397,o),
(640,376,q),
(641,360,o),
(617,243,o),
(597,182,qs),
(591,167,o),
(579,134,o)
);
},
{
closed = 1;
nodes = (
(704,257,qs),
(732,317,o),
(752,339,qs),
(763,351,o),
(772,369,o),
(770,388,qs),
(766,415,o),
(697,492,o),
(613,526,o),
(591,528,qs),
(580,528,o),
(568,521,o),
(561,517,qs),
(555,513,o),
(547,491,o),
(522,487,q),
(454,471,o),
(322,426,o),
(308,416,q),
(292,408,o),
(286,399,q),
(280,415,o),
(270,426,qs),
(260,436,o),
(252,443,q),
(230,457,o),
(230,396,qs),
(230,359,o),
(280,230,o),
(297,190,qs),
(319,141,o),
(350,36,o),
(359,36,q),
(373,34,o),
(397,42,o),
(400,60,q),
(442,74,o),
(512,70,qs),
(538,69,o),
(623,41,o),
(630,41,q),
(640,39,o),
(652,55,o),
(652,90,qs),
(652,120,o),
(658,141,qs),
(682,211,o)
);
},
{
closed = 1;
nodes = (
(382,498,o),
(451,548,o),
(473,567,qs),
(478,572,o),
(484,576,qs),
(501,588,o),
(534,623,o),
(534,647,qs),
(534,672,o),
(510,707,o),
(473,725,o),
(459,725,qs),
(454,725,o),
(451,723,o),
(450,719,qs),
(433,629,o),
(367,537,o),
(336,511,qs),
(310,489,o),
(293,459,q),
(296,458,o),
(298,457,o),
(301,457,qs),
(314,457,o)
);
}
);
vertWidth = 2048;
width = 1000;
}
);
note = uni767D;
unicode = 30333;
},
{
glyphname = uni79CB;
lastChange = "2026-02-05 09:00:31 +0000";
layers = (
{
layerId = m01;
shapes = (
{
closed = 1;
nodes = (
(290,604,o),
(359,639,o),
(380,651,qs),
(386,654,o),
(393,656,q),
(408,665,o),
(440,688,o),
(440,705,qs),
(440,719,o),
(416,744,o),
(381,757,o),
(365,757,qs),
(362,757,o),
(359,753,o),
(358,752,q),
(341,691,o),
(276,631,o),
(245,614,qs),
(218,599,o),
(201,579,q),
(203,578,o),
(206,577,o),
(207,577,qs),
(223,577,o)
);
},
{
closed = 1;
nodes = (
(241,322,o),
(122,200,q),
(181,217,o),
(264,307,o),
(303,387,qs),
(358,505,l),
(319,505,l)
);
},
{
closed = 1;
nodes = (
(338,485,qs),
(389,497,o),
(427,504,q),
(432,504,o),
(439,507,q),
(464,511,o),
(493,523,o),
(493,532,qs),
(493,538,o),
(472,558,o),
(440,572,o),
(427,572,qs),
(418,572,o),
(410,567,o),
(405,561,qs),
(399,555,o),
(375,538,o),
(348,530,qs),
(293,514,ls),
(245,497,o),
(204,494,q),
(161,487,l),
(168,474,o),
(192,458,o),
(217,458,qs),
(243,458,o),
(262,464,qs),
(291,472,o)
);
},
{
closed = 1;
nodes = (
(248,230,o),
(290,150,o),
(290,140,qs),
(290,117,o),
(304,53,o),
(330,3,o),
(344,3,qs),
(358,3,o),
(373,30,o),
(377,66,o),
(377,83,qs),
(377,103,o),
(367,144,qs),
(366,151,o),
(365,160,qs),
(359,191,o),
(352,263,o),
(352,298,qs),
(352,426,ls),
(353,481,o),
(353,519,qs),
(352,598,o),
(357,667,q),
(316,646,l),
(326,519,o),
(321,375,qs),
(321,351,o),
(315,275,o),
(304,216,o),
(297,216,qs),
(287,216,o),
(262,239,o),
(218,289,q),
(212,284,l)
);
},
{
closed = 1;
nodes = (
(428,371,o),
(443,379,o),
(443,387,qs),
(443,403,o),
(423,415,o),
(409,419,qs),
(366,430,o),
(344,442,q),
(347,418,o),
(375,385,o),
(389,374,qs),
(400,365,o)
);
},
{
closed = 1;
nodes = (
(696,651,o),
(653,671,o),
(622,706,o),
(589,706,qs),
(580,706,o),
(574,682,o),
(574,672,qs),
(574,659,o),
(580,639,qs),
(583,626,o),
(585,587,q),
(585,386,o),
(540,241,qs),
(527,200,o),
(453,140,o),
(413,121,qs),
(386,109,o),
(380,103,q),
(384,98,o),
(393,95,o),
(398,95,qs),
(421,95,o),
(502,137,o),
(580,195,o),
(589,241,qs),
(592,258,o),
(594,274,qs),
(603,354,o),
(658,567,qs),
(674,623,o)
);
},
{
closed = 1;
nodes = (
(817,536,o),
(808,561,o),
(794,561,qs),
(771,561,o),
(730,528,o),
(738,503,qs),
(763,431,o),
(667,364,q),
(742,375,o),
(785,442,o),
(805,470,qs),
(820,489,o)
);
},
{
closed = 1;
nodes = (
(540,491,o),
(523,521,q),
(509,478,o),
(472,410,qs),
(460,389,o),
(449,350,o),
(461,335,qs),
(470,325,o),
(493,339,o),
(526,370,o),
(530,392,qs),
(538,424,o)
);
},
{
closed = 1;
nodes = (
(670,233,o),
(692,185,o),
(701,162,qs),
(705,148,o),
(719,128,q),
(760,109,o),
(794,88,qs),
(820,72,o),
(861,52,o),
(878,52,q),
(854,97,o),
(825,144,o),
(802,166,o),
(791,172,q),
(787,173,o),
(785,177,q),
(770,185,o),
(718,237,o),
(613,410,q),
(600,364,l)
);
}
);
vertWidth = 2048;
width = 1000;
},
{
layerId = m002;
shapes = (
{
closed = 1;
nodes = (
(290,604,o),
(359,639,o),
(380,651,qs),
(386,654,o),
(393,656,q),
(408,665,o),
(440,688,o),
(440,705,qs),
(440,719,o),
(416,744,o),
(381,757,o),
(365,757,qs),
(362,757,o),
(359,753,o),
(358,752,q),
(341,691,o),
(276,631,o),
(245,614,qs),
(218,599,o),
(201,579,q),
(203,578,o),
(206,577,o),
(207,577,qs),
(223,577,o)
);
},
{
closed = 1;
nodes = (
(241,322,o),
(122,200,q),
(181,217,o),
(264,307,o),
(303,387,qs),
(358,505,l),
(319,505,l)
);
},
{
closed = 1;
nodes = (
(338,485,qs),
(389,497,o),
(427,504,q),
(432,504,o),
(439,507,q),
(464,511,o),
(493,523,o),
(493,532,qs),
(493,538,o),
(472,558,o),
(440,572,o),
(427,572,qs),
(418,572,o),
(410,567,o),
(405,561,qs),
(399,555,o),
(375,538,o),
(348,530,qs),
(293,514,ls),
(245,497,o),
(204,494,q),
(161,487,l),
(168,474,o),
(192,458,o),
(217,458,qs),
(243,458,o),
(262,464,qs),
(291,472,o)
);
},
{
closed = 1;
nodes = (
(248,230,o),
(290,150,o),
(290,140,qs),
(290,117,o),
(304,53,o),
(330,3,o),
(344,3,qs),
(358,3,o),
(373,30,o),
(377,66,o),
(377,83,qs),
(377,103,o),
(367,144,qs),
(366,151,o),
(365,160,qs),
(359,191,o),
(352,263,o),
(352,298,qs),
(352,426,ls),
(353,481,o),
(353,519,qs),
(352,598,o),
(357,667,q),
(316,646,l),
(326,519,o),
(321,375,qs),
(321,351,o),
(315,275,o),
(304,216,o),
(297,216,qs),
(287,216,o),
(262,239,o),
(218,289,q),
(212,284,l)
);
},
{
closed = 1;
nodes = (
(428,371,o),
(443,379,o),
(443,387,qs),
(443,403,o),
(423,415,o),
(409,419,qs),
(366,430,o),
(344,442,q),
(347,418,o),
(375,385,o),
(389,374,qs),
(400,365,o)
);
},
{
closed = 1;
nodes = (
(696,651,o),
(653,671,o),
(622,706,o),
(589,706,qs),
(580,706,o),
(574,682,o),
(574,672,qs),
(574,659,o),
(580,639,qs),
(583,626,o),
(585,587,q),
(585,386,o),
(540,241,qs),
(527,200,o),
(453,140,o),
(413,121,qs),
(386,109,o),
(380,103,q),
(384,98,o),
(393,95,o),
(398,95,qs),
(421,95,o),
(502,137,o),
(580,195,o),
(589,241,qs),
(592,258,o),
(594,274,qs),
(603,354,o),
(658,567,qs),
(674,623,o)
);
},
{
closed = 1;
nodes = (
(817,536,o),
(808,561,o),
(794,561,qs),
(771,561,o),
(730,528,o),
(738,503,qs),
(763,431,o),
(667,364,q),
(742,375,o),
(785,442,o),
(805,470,qs),
(820,489,o)
);
},
{
closed = 1;
nodes = (
(540,491,o),
(523,521,q),
(509,478,o),
(472,410,qs),
(460,389,o),
(449,350,o),
(461,335,qs),
(470,325,o),
(493,339,o),
(526,370,o),
(530,392,qs),
(538,424,o)
);
},
{
closed = 1;
nodes = (
(670,233,o),
(692,185,o),
(701,162,qs),
(705,148,o),
(719,128,q),
(760,109,o),
(794,88,qs),
(820,72,o),
(861,52,o),
(878,52,q),
(854,97,o),
(825,144,o),
(802,166,o),
(791,172,q),
(787,173,o),
(785,177,q),
(770,185,o),
(718,237,o),
(613,410,q),
(600,364,l)
);
}
);
vertWidth = 2048;
width = 1000;
}
);
note = uni79CB;
unicode = 31179;
},
{
glyphname = uni7AF9;
lastChange = "2026-02-05 09:00:31 +0000";
layers = (
{
layerId = m01;
shapes = (
{
closed = 1;
nodes = (
(372,368,o),
(423,453,o),
(351,474,q),
(534,498,o),
(483,545,o),
(462,549,q),
(444,555,o),
(433,558,qs),
(415,561,o),
(348,533,qs),
(311,515,o),
(257,507,q),
(243,492,o),
(252,482,o),
(257,475,q),
(262,462,o),
(298,465,q),
(294,462,o),
(315,441,o),
(322,402,o),
(322,357,qs),
(322,336,o),
(324,313,qs),
(324,291,o),
(324,271,qs),
(324,246,o),
(322,226,qs),
(321,210,o),
(313,176,qs),
(304,142,o),
(304,136,qs),
(304,127,o),
(320,99,o),
(331,99,qs),
(338,99,o),
(356,128,o),
(372,154,o),
(372,171,qs),
(372,182,o),
(370,189,qs),
(367,195,o),
(367,206,qs),
(369,255,ls)
);
},
{
closed = 1;
nodes = (
(647,443,o),
(643,344,qs),
(641,277,o),
(652,164,qs),
(656,97,o),
(631,76,qs),
(615,64,o),
(590,87,qs),
(556,119,o),
(495,144,q),
(523,119,o),
(557,83,qs),
(592,47,o),
(620,19,o),
(635,24,qs),
(658,32,ls),
(736,61,o),
(736,150,qs),
(736,173,o),
(707,279,o),
(705,409,o),
(719,460,qs),
(724,479,o),
(645,518,q),
(625,499,l)
);
},
{
closed = 1;
nodes = (
(574,518,qs),
(580,545,o),
(589,563,qs),
(600,587,o),
(624,609,o),
(634,614,qs),
(641,617,o),
(650,626,o),
(650,632,q),
(653,648,o),
(630,694,o),
(602,732,o),
(595,738,q),
(595,738,o),
(594,735,q),
(576,718,o),
(558,706,qs),
(524,682,o),
(502,642,q),
(508,636,ls),
(518,628,o),
(536,611,o),
(539,598,o),
(535,569,qs),
(530,547,o),
(525,524,qs),
(523,509,o),
(505,471,qs),
(493,445,o),
(465,409,q),
(558,441,o)
);
},
{
closed = 1;
nodes = (
(656,505,o),
(702,520,qs),
(735,531,o),
(744,535,q),
(753,537,o),
(774,520,o),
(786,514,qs),
(789,513,o),
(825,499,o),
(832,499,qs),
(843,499,o),
(860,525,o),
(860,537,qs),
(860,548,o),
(826,560,o),
(809,567,qs),
(803,570,o),
(795,572,q),
(783,578,o),
(759,593,o),
(753,593,qs),
(742,593,o),
(728,574,o),
(719,569,qs),
(698,558,o),
(664,547,qs),
(613,531,o),
(568,529,o),
(563,530,qs),
(561,530,ls),
(557,530,o),
(540,526,o),
(527,519,o),
(527,516,qs),
(527,515,o),
(541,507,o),
(572,486,o),
(578,486,qs),
(592,486,o)
);
},
{
closed = 1;
nodes = (
(326,654,o),
(321,695,o),
(308,695,qs),
(286,694,o),
(236,643,o),
(240,599,qs),
(249,487,o),
(140,381,q),
(218,400,o),
(275,505,o),
(300,549,qs),
(319,578,o)
);
}
);
vertWidth = 2048;
width = 1000;
},
{
layerId = m002;
shapes = (
{
closed = 1;
nodes = (
(372,368,o),
(423,453,o),
(351,474,q),
(534,498,o),
(483,544,o),
(462,549,qs),
(444,554,o),
(433,558,q),
(415,561,o),
(348,532,qs),
(311,515,o),
(257,507,q),
(243,492,o),
(252,482,o),
(257,475,q),
(262,462,o),
(298,465,q),
(294,462,o),
(315,441,o),
(322,402,o),
(322,357,qs),
(322,336,o),
(324,313,qs),
(324,291,o),
(324,271,qs),
(324,246,o),
(322,226,qs),
(321,209,o),
(313,176,qs),
(304,142,o),
(304,135,qs),
(304,127,o),
(320,99,o),
(331,99,qs),
(338,99,o),
(356,128,o),
(372,154,o),
(372,171,qs),
(372,182,o),
(370,188,qs),
(367,195,o),
(367,206,qs),
(369,255,ls)
);
},
{
closed = 1;
nodes = (
(647,443,o),
(643,344,qs),
(641,277,o),
(652,164,qs),
(656,97,o),
(631,76,qs),
(615,64,o),
(590,87,qs),
(556,119,o),
(495,144,q),
(523,119,o),
(557,83,qs),
(592,47,o),
(620,19,o),
(635,24,qs),
(658,32,ls),
(736,60,o),
(736,150,qs),
(736,173,o),
(707,279,o),
(705,409,o),
(719,460,qs),
(724,478,o),
(645,518,q),
(625,499,l)
);
},
{
closed = 1;
nodes = (
(574,518,qs),
(580,544,o),
(589,563,qs),
(600,586,o),
(624,608,o),
(634,614,qs),
(641,617,o),
(650,626,o),
(650,632,q),
(653,648,o),
(630,693,o),
(602,732,o),
(595,737,q),
(595,737,o),
(594,735,q),
(576,718,o),
(558,705,qs),
(524,682,o),
(502,641,q),
(508,636,ls),
(518,628,o),
(536,611,o),
(539,597,o),
(535,569,qs),
(530,547,o),
(525,524,qs),
(523,509,o),
(505,471,qs),
(493,445,o),
(465,409,q),
(558,441,o)
);
},
{
closed = 1;
nodes = (
(656,505,o),
(702,520,qs),
(735,531,o),
(744,535,q),
(753,537,o),
(774,520,o),
(786,514,qs),
(789,513,o),
(825,499,o),
(832,499,qs),
(843,499,o),
(860,525,o),
(860,537,qs),
(860,548,o),
(826,560,o),
(809,567,qs),
(803,570,o),
(795,572,q),
(783,578,o),
(759,593,o),
(753,593,qs),
(742,593,o),
(728,574,o),
(719,569,qs),
(698,558,o),
(664,547,qs),
(613,531,o),
(568,529,o),
(563,530,qs),
(561,530,ls),
(557,530,o),
(540,526,o),
(527,519,o),
(527,516,qs),
(527,515,o),
(541,507,o),
(572,486,o),
(578,486,qs),
(592,486,o)
);
},
{
closed = 1;
nodes = (
(326,654,o),
(321,694,o),
(308,694,qs),
(286,693,o),
(236,643,o),
(240,598,qs),
(249,487,o),
(140,381,q),
(218,400,o),
(275,505,o),
(300,549,qs),
(319,578,o)
);
}
);
vertWidth = 2048;
width = 1000;
}
);
note = uni7AF9;
unicode = 31481;
},
{
glyphname = uni7B52;
lastChange = "2026-02-05 09:00:31 +0000";
layers = (
{
layerId = m01;
shapes = (
{
closed = 1;
nodes = (
(483,599,o),
(509,612,q),
(507,617,o),
(500,638,o),
(487,655,o),
(482,655,qs),
(478,655,o),
(465,645,o),
(459,638,q),
(444,625,o),
(429,616,qs),
(395,599,ls),
(364,582,o),
(341,578,qs),
(337,577,o),
(333,576,qs),
(321,571,o),
(315,567,q),
(322,560,o),
(330,560,qs),
(364,560,o),
(388,567,q),
(417,579,l)
);
},
{
closed = 1;
nodes = (
(271,485,o),
(288,498,qs),
(301,509,o),
(332,541,o),
(357,570,o),
(358,576,q),
(364,588,o),
(369,605,o),
(371,616,qs),
(373,639,o),
(347,691,o),
(333,700,q),
(330,699,o),
(325,697,q),
(320,697,o),
(310,691,o),
(304,682,qs),
(297,671,o),
(281,637,o),
(287,623,qs),
(290,616,o),
(293,601,o),
(293,587,qs),
(293,571,o),
(269,531,o),
(247,503,qs),
(236,487,o),
(224,477,o),
(212,471,q),
(204,469,o),
(194,459,o),
(190,451,q),
(221,459,ls),
(240,463,o)
);
},
{
closed = 1;
nodes = (
(437,481,o),
(440,493,q),
(446,507,o),
(423,541,o),
(383,569,o),
(360,569,q),
(363,539,o),
(397,470,o),
(414,456,q),
(419,458,o)
);
},
{
closed = 1;
nodes = (
(583,588,o),
(612,638,q),
(614,644,o),
(620,649,q),
(630,663,o),
(640,689,o),
(633,699,q),
(616,717,o),
(571,721,o),
(545,705,q),
(538,699,o),
(534,693,q),
(546,663,o),
(521,558,o),
(494,516,qs),
(475,486,o),
(470,461,q),
(506,482,o)
);
},
{
closed = 1;
nodes = (
(634,594,qs),
(669,598,o),
(686,600,qs),
(701,603,o),
(724,603,qs),
(732,603,o),
(737,601,qs),
(741,600,o),
(743,600,qs),
(745,600,o),
(749,600,o),
(751,601,q),
(764,611,o),
(785,634,o),
(785,641,qs),
(785,646,o),
(781,667,o),
(770,685,o),
(762,685,qs),
(754,685,o),
(737,676,o),
(727,670,qs),
(721,666,o),
(716,663,q),
(715,663,o),
(713,662,qs),
(698,654,o),
(668,638,o),
(654,638,qs),
(651,638,o),
(611,644,o),
(607,644,qs),
(602,644,o),
(598,635,o),
(595,630,qs),
(593,625,o),
(591,620,q),
(612,593,o)
);
},
{
closed = 1;
nodes = (
(652,611,o),
(644,583,q),
(629,544,o),
(603,519,qs),
(590,505,o),
(564,482,q),
(578,483,o),
(597,492,o),
(608,498,qs),
(624,508,o),
(647,536,qs),
(684,578,o),
(704,628,q),
(654,634,l)
);
},
{
closed = 1;
nodes = (
(583,358,o),
(620,373,q),
(629,375,o),
(641,395,o),
(641,405,qs),
(641,409,o),
(635,415,o),
(631,415,qs),
(613,415,o),
(572,400,qs),
(551,393,ls),
(521,384,o),
(462,367,o),
(446,367,qs),
(439,367,o),
(427,368,o),
(423,368,qs),
(421,368,o),
(399,359,o),
(380,347,o),
(380,345,qs),
(380,340,o),
(404,331,o),
(433,327,o),
(443,327,qs),
(468,327,o)
);
},
{
closed = 1;
nodes = (
(465,226,qs),
(460,238,o),
(449,251,o),
(444,256,q),
(475,271,o),
(509,279,qs),
(551,289,o),
(572,289,qs),
(580,289,o),
(593,284,o),
(593,280,qs),
(593,273,o),
(586,260,o),
(577,238,qs),
(571,226,o),
(567,216,qs),
(561,205,o),
(557,200,q),
(551,196,o),
(535,194,o),
(521,193,qs),
(505,193,o),
(500,193,qs),
(493,193,o),
(485,194,q),
(475,204,o)
);
},
{
closed = 1;
nodes = (
(539,153,o),
(560,157,qs),
(573,160,o),
(588,154,o),
(591,154,qs),
(597,154,o),
(600,168,o),
(600,174,qs),
(600,180,o),
(607,193,o),
(616,205,qs),
(629,222,o),
(640,255,q),
(647,256,o),
(664,261,o),
(664,271,qs),
(664,282,o),
(647,309,o),
(625,330,o),
(620,330,qs),
(611,330,o),
(588,323,o),
(569,320,qs),
(534,313,o),
(506,305,qs),
(461,289,o),
(435,269,q),
(427,275,l),
(393,290,o),
(384,290,qs),
(378,290,o),
(378,282,q),
(380,272,o),
(406,235,o),
(420,216,qs),
(431,201,o),
(446,180,o),
(446,179,qs),
(446,176,o),
(444,174,q),
(443,172,o),
(443,171,o),
(444,166,q),
(448,160,o),
(475,155,qs),
(483,154,o),
(501,153,qs),
(518,153,o)
);
},
{
closed = 1;
nodes = (
(549,429,qs),
(601,443,o),
(612,445,qs),
(623,447,o),
(636,438,q),
(651,431,o),
(700,400,o),
(702,386,q),
(707,368,o),
(704,288,o),
(696,262,qs),
(695,257,o),
(684,224,o),
(680,215,q),
(664,154,o),
(631,95,o),
(623,95,qs),
(614,94,o),
(583,99,o),
(567,104,q),
(550,106,l),
(511,110,ls),
(502,110,o),
(482,110,o),
(476,109,q),
(556,83,o),
(593,66,q),
(603,64,o),
(612,60,qs),
(640,49,o),
(668,39,o),
(687,43,qs),
(709,47,o),
(736,94,o),
(749,140,qs),
(759,168,o),
(772,206,q),
(774,209,o),
(775,212,qs),
(793,256,o),
(814,378,o),
(808,398,qs),
(805,410,o),
(791,427,o),
(777,437,qs),
(765,445,o),
(751,460,q),
(749,461,l),
(724,485,o),
(690,504,o),
(631,502,o),
(619,491,qs),
(591,466,o),
(564,456,qs),
(470,419,o),
(371,405,qs),
(322,397,l),
(308,408,o),
(286,427,qs),
(276,437,o),
(254,452,o),
(243,453,q),
(240,454,o),
(236,453,o),
(235,453,q),
(234,452,o),
(232,451,q),
(237,400,o),
(250,327,qs),
(270,217,o),
(276,189,qs),
(281,162,o),
(298,105,o),
(319,65,o),
(332,62,qs),
(343,60,o),
(366,73,o),
(369,87,qs),
(373,106,o),
(363,160,o),
(353,194,qs),
(344,224,o),
(332,344,o),
(335,362,qs),
(337,369,o),
(355,378,q),
(361,379,o),
(394,387,qs),
(515,418,o)
);
}
);
vertWidth = 2048;
width = 1000;
},
{
layerId = m002;
shapes = (
{
closed = 1;
nodes = (
(483,599,o),
(510,612,q),
(507,617,o),
(500,638,o),
(487,655,o),
(482,655,qs),
(478,655,o),
(465,645,o),
(459,638,q),
(444,625,o),
(429,616,qs),
(395,599,ls),
(364,582,o),
(341,578,qs),
(338,577,o),
(333,575,qs),
(321,571,o),
(315,567,q),
(322,560,o),
(330,560,qs),
(364,560,o),
(388,567,q),
(417,579,l)
);
},
{
closed = 1;
nodes = (
(271,485,o),
(288,498,qs),
(301,509,o),
(332,541,o),
(357,570,o),
(358,575,q),
(364,588,o),
(370,605,o),
(371,616,qs),
(373,639,o),
(347,691,o),
(333,700,q),
(330,699,o),
(325,697,q),
(320,697,o),
(310,691,o),
(304,682,qs),
(297,671,o),
(281,637,o),
(287,623,qs),
(290,616,o),
(293,601,o),
(293,587,qs),
(293,571,o),
(269,531,o),
(247,503,qs),
(236,487,o),
(224,477,o),
(212,471,q),
(204,469,o),
(194,459,o),
(190,451,q),
(221,459,ls),
(241,463,o)
);
},
{
closed = 1;
nodes = (
(437,481,o),
(440,493,q),
(446,507,o),
(424,541,o),
(383,569,o),
(360,569,q),
(363,539,o),
(397,470,o),
(414,456,q),
(419,458,o)
);
},
{
closed = 1;
nodes = (
(583,588,o),
(612,638,q),
(614,644,o),
(620,649,q),
(630,663,o),
(640,689,o),
(633,699,q),
(616,717,o),
(571,721,o),
(545,704,qs),
(538,699,o),
(534,693,q),
(546,663,o),
(521,558,o),
(494,516,qs),
(475,486,o),
(470,461,q),
(506,482,o)
);
},
{
closed = 1;
nodes = (
(634,594,qs),
(669,598,o),
(686,600,qs),
(701,603,o),
(725,603,qs),
(732,603,o),
(737,601,qs),
(741,600,o),
(743,600,qs),
(745,600,o),
(749,600,o),
(751,601,q),
(764,611,o),
(785,634,o),
(785,641,qs),
(785,646,o),
(781,667,o),
(770,685,o),
(762,685,qs),
(754,685,o),
(737,676,o),
(727,670,qs),
(721,666,o),
(716,663,q),
(715,663,o),
(713,661,q),
(698,654,o),
(668,638,o),
(654,638,qs),
(651,638,o),
(611,644,o),
(607,644,qs),
(602,644,o),
(598,635,o),
(596,630,qs),
(593,625,o),
(591,620,q),
(612,593,o)
);
},
{
closed = 1;
nodes = (
(652,611,o),
(644,583,q),
(629,544,o),
(603,519,qs),
(590,505,o),
(564,482,q),
(578,483,o),
(597,492,o),
(608,498,qs),
(624,508,o),
(647,536,qs),
(684,578,o),
(704,628,q),
(654,634,l)
);
},
{
closed = 1;
nodes = (
(583,358,o),
(620,373,q),
(629,375,o),
(641,395,o),
(641,405,qs),
(641,409,o),
(635,415,o),
(631,415,qs),
(613,415,o),
(572,400,qs),
(551,392,l),
(521,384,o),
(462,367,o),
(446,367,qs),
(439,367,o),
(427,368,o),
(424,368,qs),
(421,368,o),
(399,359,o),
(381,347,o),
(381,345,qs),
(381,340,o),
(404,331,o),
(433,327,o),
(443,327,qs),
(468,327,o)
);
},
{
closed = 1;
nodes = (
(465,226,qs),
(460,238,o),
(449,251,o),
(444,256,q),
(475,271,o),
(510,279,qs),
(551,289,o),
(572,289,qs),
(580,289,o),
(593,284,o),
(593,280,qs),
(593,273,o),
(586,260,o),
(577,238,qs),
(571,226,o),
(567,216,qs),
(561,205,o),
(557,200,q),
(551,196,o),
(535,194,o),
(521,193,qs),
(505,193,o),
(500,193,qs),
(493,193,o),
(485,194,q),
(475,204,o)
);
},
{
closed = 1;
nodes = (
(539,153,o),
(560,157,qs),
(573,160,o),
(588,154,o),
(591,154,qs),
(597,154,o),
(600,168,o),
(600,174,qs),
(600,180,o),
(607,193,o),
(616,205,qs),
(629,222,o),
(640,255,q),
(647,256,o),
(664,261,o),
(664,271,qs),
(664,282,o),
(647,309,o),
(625,330,o),
(620,330,qs),
(611,330,o),
(588,323,o),
(569,320,qs),
(534,313,o),
(506,305,qs),
(461,289,o),
(435,269,q),
(427,275,l),
(393,290,o),
(384,290,qs),
(378,290,o),
(378,282,q),
(381,272,o),
(406,235,o),
(420,216,qs),
(431,201,o),
(446,180,o),
(446,179,qs),
(446,176,o),
(444,174,q),
(443,172,o),
(443,171,o),
(444,166,q),
(448,160,o),
(475,155,qs),
(483,154,o),
(501,153,qs),
(518,153,o)
);
},
{
closed = 1;
nodes = (
(549,429,qs),
(601,443,o),
(612,445,qs),
(623,446,o),
(636,438,qs),
(651,431,o),
(700,400,o),
(702,386,q),
(707,368,o),
(704,288,o),
(696,262,qs),
(695,257,o),
(684,224,o),
(680,215,q),
(664,154,o),
(631,95,o),
(623,95,qs),
(614,94,o),
(583,99,o),
(567,104,q),
(550,106,l),
(511,110,ls),
(502,110,o),
(482,110,o),
(476,109,q),
(556,83,o),
(593,66,q),
(603,64,o),
(612,60,qs),
(640,48,o),
(668,39,o),
(687,43,qs),
(709,47,o),
(736,94,o),
(749,140,qs),
(759,168,o),
(772,206,q),
(774,209,o),
(775,212,qs),
(793,256,o),
(814,378,o),
(808,398,qs),
(805,410,o),
(791,427,o),
(777,437,qs),
(765,445,o),
(751,460,q),
(749,461,l),
(725,485,o),
(690,504,o),
(631,502,o),
(619,491,qs),
(591,466,o),
(564,456,qs),
(470,419,o),
(371,405,qs),
(322,397,l),
(308,408,o),
(286,427,qs),
(276,437,o),
(254,452,o),
(243,453,q),
(241,454,o),
(236,453,o),
(235,453,q),
(234,452,o),
(232,451,q),
(237,400,o),
(250,327,qs),
(270,217,o),
(276,189,qs),
(281,162,o),
(298,105,o),
(319,65,o),
(332,62,qs),
(343,60,o),
(366,73,o),
(370,87,q),
(373,106,o),
(363,160,o),
(353,194,qs),
(344,224,o),
(332,344,o),
(335,362,q),
(338,369,o),
(355,378,q),
(361,379,o),
(394,387,qs),
(515,418,o)
);
}
);
vertWidth = 2048;
width = 1000;
}
);
note = uni7B52;
unicode = 31570;
},
{
glyphname = uni7D22;
lastChange = "2026-02-05 09:00:31 +0000";
layers = (
{
layerId = m01;
shapes = (
{
closed = 1;
nodes = (
(493,515,o),
(511,558,q),
(606,582,o),
(642,600,q),
(641,607,o),
(629,632,o),
(612,652,o),
(605,652,qs),
(597,652,o),
(579,640,o),
(568,632,q),
(551,615,o),
(529,604,q),
(534,623,o),
(540,640,qs),
(546,662,o),
(554,677,q),
(566,667,o),
(588,663,o),
(596,663,qs),
(601,663,o),
(610,663,o),
(610,663,q),
(610,668,o),
(610,672,q),
(611,673,o),
(611,677,qs),
(611,697,o),
(578,750,o),
(539,791,o),
(529,795,q),
(511,780,o),
(471,733,o),
(461,714,q),
(467,714,ls),
(477,714,o),
(487,694,o),
(487,668,qs),
(487,633,o),
(478,581,q),
(434,561,o),
(400,556,qs),
(395,555,o),
(392,554,qs),
(372,548,o),
(365,544,q),
(374,534,o),
(385,534,qs),
(434,534,o),
(468,544,q),
(465,505,o),
(457,469,q),
(479,478,l)
);
},
{
closed = 1;
nodes = (
(265,307,o),
(282,309,q),
(299,314,o),
(331,381,o),
(349,469,o),
(341,506,q),
(308,478,o),
(240,364,o),
(227,323,q),
(231,317,o)
);
},
{
closed = 1;
nodes = (
(775,443,o),
(781,464,o),
(781,470,qs),
(781,486,o),
(757,499,o),
(736,505,qs),
(730,506,o),
(725,508,qs),
(709,514,o),
(692,521,qs),
(684,525,o),
(679,527,qs),
(669,532,o),
(657,536,o),
(647,536,qs),
(639,536,o),
(615,528,o),
(595,521,qs),
(500,491,ls),
(432,471,o),
(401,469,qs),
(397,469,o),
(395,469,q),
(369,463,ls),
(358,460,o),
(329,452,o),
(309,441,o),
(309,438,qs),
(310,432,o),
(329,427,o),
(349,426,o),
(358,426,qs),
(397,427,o),
(466,448,o),
(493,460,q),
(496,460,l),
(511,465,o),
(558,482,o),
(585,486,o),
(597,487,q),
(612,486,o),
(629,478,qs),
(641,472,o),
(652,470,qs),
(661,469,o),
(673,461,o),
(671,441,o),
(671,401,o),
(619,356,q),
(671,359,o),
(732,425,o),
(752,427,qs),
(760,427,o)
);
},
{
closed = 1;
nodes = (
(483,317,o),
(443,353,o),
(389,386,o),
(367,390,q),
(369,370,o),
(401,332,o),
(422,313,qs),
(445,292,o),
(459,276,q),
(492,308,l)
);
},
{
closed = 1;
nodes = (
(517,325,o),
(535,340,qs),
(554,354,o),
(575,368,qs),
(589,378,o),
(605,388,o),
(610,398,qs),
(620,418,o),
(596,460,o),
(589,472,q),
(586,464,o),
(580,454,o),
(578,448,q),
(566,426,o),
(544,401,qs),
(528,381,o),
(449,308,qs),
(386,246,o),
(363,211,q),
(395,207,l)
);
},
{
closed = 1;
nodes = (
(445,374,ls),
(454,381,o),
(463,390,qs),
(472,399,o),
(494,418,o),
(507,418,qs),
(512,418,o),
(515,425,o),
(515,430,qs),
(515,440,o),
(489,470,o),
(471,472,q),
(471,471,ls),
(470,461,o),
(450,426,o),
(423,398,q),
(401,371,l),
(400,367,o),
(399,364,q),
(416,351,l)
);
},
{
closed = 1;
nodes = (
(352,190,qs),
(390,200,o),
(416,204,qs),
(448,211,o),
(528,241,o),
(563,249,qs),
(605,258,o),
(626,256,qs),
(636,256,o),
(650,255,qs),
(662,255,o),
(676,256,q),
(663,295,l),
(651,306,o),
(641,306,qs),
(636,306,o),
(595,296,qs),
(554,287,l),
(533,281,l),
(511,278,o),
(410,242,qs),
(337,217,o),
(294,268,q),
(321,182,o)
);
},
{
closed = 1;
nodes = (
(726,234,o),
(726,250,qs),
(726,267,o),
(670,314,o),
(590,351,o),
(554,351,q),
(573,312,o),
(675,235,o),
(631,191,q),
(708,202,o)
);
},
{
closed = 1;
nodes = (
(496,180,o),
(496,138,qs),
(496,107,o),
(485,53,o),
(474,53,qs),
(466,53,o),
(456,71,qs),
(445,89,o),
(350,168,q),
(395,123,o),
(445,54,o),
(451,30,qs),
(461,-1,o),
(494,-35,o),
(512,-35,qs),
(543,-35,o),
(549,32,o),
(534,94,qs),
(528,123,o),
(532,174,o),
(535,244,q),
(487,238,l)
);
},
{
closed = 1;
nodes = (
(291,54,o),
(349,82,o),
(367,93,q),
(377,97,o),
(383,101,q),
(400,107,o),
(417,123,o),
(417,135,qs),
(417,156,o),
(374,178,o),
(354,178,qs),
(352,178,o),
(349,177,o),
(349,174,q),
(334,126,o),
(280,75,o),
(253,61,qs),
(231,49,o),
(217,32,q),
(219,32,o),
(220,31,o),
(221,31,qs),
(234,31,o)
);
},
{
closed = 1;
nodes = (
(760,56,o),
(783,84,o),
(783,104,qs),
(783,131,o),
(709,172,o),
(670,172,qs),
(662,172,o),
(620,168,o),
(584,162,o),
(578,157,q),
(631,144,o),
(690,99,o),
(695,81,q),
(696,73,o),
(704,56,o),
(712,44,q),
(714,44,o),
(715,44,qs),
(718,43,o),
(719,43,qs),
(730,43,o)
);
}
);
vertWidth = 2048;
width = 1000;
},
{
layerId = m002;
shapes = (
{
closed = 1;
nodes = (
(493,515,o),
(511,558,q),
(606,582,o),
(642,600,q),
(641,607,o),
(629,632,o),
(612,652,o),
(605,652,qs),
(597,652,o),
(579,640,o),
(568,632,q),
(551,615,o),
(529,604,q),
(534,623,o),
(540,640,qs),
(546,662,o),
(554,677,q),
(566,667,o),
(588,663,o),
(596,663,qs),
(601,663,o),
(610,663,o),
(610,663,q),
(610,668,o),
(610,672,q),
(611,673,o),
(611,677,qs),
(611,697,o),
(578,750,o),
(539,791,o),
(529,795,q),
(511,780,o),
(471,733,o),
(461,714,q),
(467,714,ls),
(477,714,o),
(487,694,o),
(487,668,qs),
(487,633,o),
(478,581,q),
(434,561,o),
(400,556,qs),
(395,555,o),
(392,554,qs),
(372,548,o),
(365,544,q),
(374,534,o),
(385,534,qs),
(434,534,o),
(468,544,q),
(465,505,o),
(457,469,q),
(479,478,l)
);
},
{
closed = 1;
nodes = (
(265,307,o),
(282,309,q),
(299,314,o),
(331,381,o),
(349,469,o),
(341,506,q),
(308,478,o),
(240,364,o),
(227,323,q),
(231,317,o)
);
},
{
closed = 1;
nodes = (
(775,443,o),
(781,464,o),
(781,470,qs),
(781,486,o),
(757,499,o),
(736,505,qs),
(730,506,o),
(725,508,qs),
(709,514,o),
(692,521,qs),
(684,525,o),
(679,527,qs),
(669,532,o),
(657,536,o),
(647,536,qs),
(639,536,o),
(615,528,o),
(595,521,qs),
(500,491,ls),
(432,471,o),
(401,469,qs),
(397,469,o),
(395,469,q),
(369,463,ls),
(358,460,o),
(329,452,o),
(309,441,o),
(309,438,qs),
(310,432,o),
(329,427,o),
(349,426,o),
(358,426,qs),
(397,427,o),
(466,448,o),
(493,460,q),
(496,460,l),
(511,465,o),
(558,482,o),
(585,486,o),
(597,487,q),
(612,486,o),
(629,478,qs),
(641,472,o),
(652,470,qs),
(661,469,o),
(673,461,o),
(671,441,o),
(671,401,o),
(619,356,q),
(671,359,o),
(732,425,o),
(752,427,qs),
(760,427,o)
);
},
{
closed = 1;
nodes = (
(483,317,o),
(443,353,o),
(389,386,o),
(367,390,q),
(369,370,o),
(401,332,o),
(422,313,qs),
(445,292,o),
(459,276,q),
(492,308,l)
);
},
{
closed = 1;
nodes = (
(517,325,o),
(535,340,qs),
(554,354,o),
(575,368,qs),
(589,378,o),
(605,388,o),
(610,398,qs),
(620,418,o),
(596,460,o),
(589,472,q),
(586,464,o),
(580,454,o),
(578,448,q),
(566,426,o),
(544,401,qs),
(528,381,o),
(449,308,qs),
(386,246,o),
(363,211,q),
(395,207,l)
);
},
{
closed = 1;
nodes = (
(445,374,ls),
(454,381,o),
(463,390,qs),
(472,399,o),
(494,418,o),
(507,418,qs),
(512,418,o),
(515,425,o),
(515,430,qs),
(515,440,o),
(489,470,o),
(471,472,q),
(471,471,ls),
(470,461,o),
(450,426,o),
(423,398,q),
(401,371,l),
(400,367,o),
(399,364,q),
(416,351,l)
);
},
{
closed = 1;
nodes = (
(352,190,qs),
(390,200,o),
(416,204,qs),
(448,211,o),
(528,241,o),
(563,249,qs),
(605,258,o),
(626,256,qs),
(636,256,o),
(650,255,qs),
(662,255,o),
(676,256,q),
(663,295,l),
(651,306,o),
(641,306,qs),
(636,306,o),
(595,296,qs),
(554,287,l),
(533,281,l),
(511,278,o),
(410,242,qs),
(337,217,o),
(294,268,q),
(321,182,o)
);
},
{
closed = 1;
nodes = (
(726,234,o),
(726,250,qs),
(726,267,o),
(670,314,o),
(590,351,o),
(554,351,q),
(573,312,o),
(675,235,o),
(631,191,q),
(708,202,o)
);
},
{
closed = 1;
nodes = (
(496,180,o),
(496,138,qs),
(496,107,o),
(485,53,o),
(474,53,qs),
(466,53,o),
(456,71,qs),
(445,89,o),
(350,168,q),
(395,123,o),
(445,54,o),
(451,30,qs),
(461,-1,o),
(494,-35,o),
(512,-35,qs),
(543,-35,o),
(549,32,o),
(534,94,qs),
(528,123,o),
(532,174,o),
(535,244,q),
(487,238,l)
);
},
{
closed = 1;
nodes = (
(291,54,o),
(349,82,o),
(367,93,q),
(377,97,o),
(383,101,q),
(400,107,o),
(417,123,o),
(417,135,qs),
(417,156,o),
(374,178,o),
(354,178,qs),
(352,178,o),
(349,177,o),
(349,174,q),
(334,126,o),
(280,75,o),
(253,61,qs),
(231,49,o),
(217,32,q),
(219,32,o),
(220,31,o),
(221,31,qs),
(234,31,o)
);
},
{
closed = 1;
nodes = (
(760,56,o),
(783,84,o),
(783,104,qs),
(783,131,o),
(709,172,o),
(670,172,qs),
(662,172,o),
(620,168,o),
(584,162,o),
(578,157,q),
(631,144,o),
(690,99,o),
(695,81,q),
(696,73,o),
(704,56,o),
(712,44,q),
(714,44,o),
(715,44,qs),
(718,43,o),
(719,43,qs),
(730,43,o)
);
}
);
vertWidth = 2048;
width = 1000;
}
);
note = uni7D22;
unicode = 32034;
},
{
glyphname = uni83CA;
lastChange = "2026-02-05 09:00:31 +0000";
layers = (
{
layerId = m01;
shapes = (
{
closed = 1;
nodes = (
(443,520,o),
(474,532,q),
(483,534,o),
(496,539,qs),
(536,554,o),
(619,577,o),
(657,577,qs),
(724,577,o),
(750,574,q),
(765,583,o),
(782,604,o),
(786,616,q),
(785,618,o),
(774,624,o),
(749,627,o),
(724,627,qs),
(691,627,o),
(646,629,o),
(625,625,q),
(620,623,o),
(614,619,q),
(596,613,o),
(576,610,q),
(579,633,o),
(591,655,o),
(598,666,qs),
(603,676,o),
(612,700,o),
(612,714,qs),
(612,741,o),
(594,784,o),
(580,788,q),
(560,779,o),
(527,745,o),
(523,734,q),
(528,725,o),
(535,720,q),
(540,714,o),
(550,703,o),
(550,691,qs),
(550,678,o),
(536,625,o),
(521,591,o),
(514,585,q),
(505,582,o),
(465,567,o),
(429,561,o),
(427,566,q),
(431,587,o),
(434,602,q),
(442,627,o),
(452,676,o),
(452,695,qs),
(452,703,o),
(448,713,o),
(443,713,qs),
(434,713,o),
(421,692,o),
(415,678,qs),
(409,666,o),
(404,655,qs),
(395,639,o),
(389,634,q),
(386,629,o),
(381,623,o),
(381,617,q),
(383,615,o),
(388,612,o),
(393,610,q),
(396,610,o),
(405,605,o),
(405,596,qs),
(405,565,o),
(384,556,o),
(375,556,qs),
(355,556,o),
(335,562,o),
(325,566,qs),
(302,576,o),
(276,576,qs),
(264,576,o),
(244,556,o),
(238,553,q),
(232,545,o),
(230,544,q),
(249,521,o),
(336,504,o),
(364,504,qs),
(386,504,o)
);
},
{
closed = 1;
nodes = (
(391,405,o),
(429,414,qs),
(516,432,o),
(574,435,qs),
(630,436,o),
(639,435,q),
(646,433,o),
(656,430,o),
(657,427,q),
(674,410,o),
(714,357,o),
(714,344,qs),
(714,324,o),
(693,236,o),
(681,210,qs),
(679,206,o),
(662,172,o),
(657,162,qs),
(628,101,o),
(584,47,o),
(576,48,qs),
(569,48,o),
(540,63,o),
(524,72,qs),
(510,81,l),
(472,98,l),
(463,100,o),
(444,104,o),
(439,106,q),
(510,55,o),
(541,26,qs),
(551,17,o),
(558,12,qs),
(581,-8,o),
(609,-26,o),
(626,-28,qs),
(650,-30,o),
(685,15,o),
(708,61,qs),
(721,89,o),
(743,126,q),
(744,130,o),
(746,133,qs),
(774,175,o),
(819,303,o),
(819,328,qs),
(819,341,o),
(806,365,o),
(797,379,qs),
(787,392,o),
(775,411,q),
(775,414,l),
(755,447,o),
(727,491,o),
(669,505,o),
(657,497,qs),
(622,476,o),
(585,469,qs),
(546,461,o),
(455,448,qs),
(389,441,o),
(356,420,q),
(366,399,l)
);
},
{
closed = 1;
nodes = (
(362,366,o),
(406,387,qs),
(426,397,o),
(440,400,qs),
(452,404,o),
(476,421,o),
(476,435,qs),
(476,459,o),
(429,502,o),
(399,502,qs),
(389,502,o),
(383,499,q),
(361,435,o),
(283,375,o),
(244,358,qs),
(209,343,o),
(187,325,q),
(191,324,o),
(193,323,o),
(196,323,qs),
(224,323,o)
);
},
{
closed = 1;
nodes = (
(375,11,qs),
(375,4,o),
(398,-14,o),
(401,-14,qs),
(407,-14,o),
(423,-1,o),
(438,21,o),
(438,34,qs),
(438,44,o),
(434,49,q),
(433,55,o),
(433,65,qs),
(433,89,ls),
(434,98,o),
(434,106,qs),
(437,222,o),
(450,302,o),
(467,315,q),
(458,325,o),
(440,343,o),
(409,351,o),
(399,353,qs),
(383,357,o),
(358,366,q),
(347,354,o),
(347,337,qs),
(347,326,o),
(355,318,o),
(370,293,o),
(381,251,o),
(381,212,qs),
(381,174,o),
(383,155,qs),
(383,135,o),
(383,119,qs),
(383,98,o),
(380,65,o),
(377,34,qs),
(375,16,o)
);
},
{
closed = 1;
nodes = (
(504,216,qs),
(529,221,o),
(556,226,qs),
(580,230,o),
(605,235,q),
(607,239,o),
(613,242,q),
(620,250,o),
(635,267,o),
(635,275,qs),
(635,279,o),
(624,281,o),
(616,281,qs),
(592,280,o),
(535,267,qs),
(525,264,o),
(514,262,qs),
(465,250,o),
(409,239,qs),
(400,237,o),
(393,236,qs),
(369,231,o),
(350,226,q),
(277,214,o),
(208,197,o),
(208,189,qs),
(208,183,o),
(235,175,o),
(249,175,qs),
(327,179,o)
);
},
{
closed = 1;
nodes = (
(246,47,o),
(297,76,o),
(313,87,q),
(320,90,o),
(326,95,q),
(340,103,o),
(356,118,o),
(356,130,qs),
(356,152,o),
(319,175,o),
(302,175,qs),
(299,175,o),
(297,174,o),
(297,173,q),
(282,121,o),
(236,68,o),
(213,54,qs),
(193,42,o),
(181,23,q),
(182,23,o),
(184,22,o),
(185,22,qs),
(196,22,o)
);
},
{
closed = 1;
nodes = (
(585,113,o),
(585,135,qs),
(585,156,o),
(535,185,o),
(508,185,qs),
(502,185,o),
(474,184,o),
(449,178,o),
(444,175,q),
(483,165,o),
(521,133,o),
(525,119,qs),
(527,113,o),
(530,101,o),
(536,93,q),
(538,93,o),
(539,92,q),
(540,92,o),
(541,92,qs),
(552,92,o)
);
},
{
closed = 1;
nodes = (
(330,282,qs),
(327,282,o),
(325,284,q),
(320,287,o),
(311,296,o),
(308,302,q),
(305,303,o),
(304,306,q),
(293,306,o),
(280,308,o),
(271,312,q),
(266,306,o),
(260,302,q),
(254,296,o),
(249,292,q),
(247,287,o),
(246,280,o),
(247,264,o),
(249,262,qs),
(255,255,o),
(275,237,o),
(283,237,qs),
(293,237,o),
(304,244,o),
(309,250,q),
(313,252,o),
(335,261,o),
(340,274,qs),
(354,308,l),
(331,282,o)
);
},
{
closed = 1;
nodes = (
(594,382,o),
(579,398,o),
(563,398,qs),
(539,398,o),
(499,379,o),
(513,362,qs),
(549,321,o),
(455,281,q),
(536,286,o),
(572,326,o),
(590,343,qs),
(602,355,o)
);
}
);
vertWidth = 2048;
width = 1000;
},
{
layerId = m002;
shapes = (
{
closed = 1;
nodes = (
(443,520,o),
(474,532,q),
(483,534,o),
(496,538,qs),
(536,554,o),
(619,577,o),
(657,577,qs),
(724,577,o),
(750,574,q),
(765,583,o),
(782,604,o),
(786,616,q),
(785,618,o),
(774,623,o),
(749,627,o),
(724,627,qs),
(691,627,o),
(646,629,o),
(625,624,q),
(620,622,o),
(614,619,qs),
(596,612,o),
(576,610,q),
(579,632,o),
(591,654,o),
(598,665,qs),
(603,675,o),
(612,699,o),
(612,714,qs),
(612,740,o),
(594,783,o),
(580,788,q),
(560,779,o),
(527,745,o),
(523,734,q),
(528,725,o),
(535,719,qs),
(540,714,o),
(550,703,o),
(550,691,qs),
(550,677,o),
(536,624,o),
(521,590,o),
(514,585,q),
(505,581,o),
(465,567,o),
(429,561,o),
(427,566,q),
(431,587,o),
(434,601,qs),
(442,627,o),
(452,675,o),
(452,695,qs),
(452,703,o),
(448,713,o),
(443,713,qs),
(434,713,o),
(421,692,o),
(415,677,qs),
(409,665,o),
(404,654,qs),
(395,639,o),
(389,633,qs),
(386,629,o),
(381,622,o),
(381,617,q),
(383,615,o),
(388,611,o),
(393,610,qs),
(396,610,o),
(405,605,o),
(405,596,qs),
(405,565,o),
(384,556,o),
(375,556,qs),
(355,556,o),
(335,562,o),
(325,566,qs),
(302,576,o),
(276,576,qs),
(264,576,o),
(244,556,o),
(238,553,q),
(232,545,o),
(230,544,q),
(249,521,o),
(336,503,o),
(364,503,qs),
(386,503,o)
);
},
{
closed = 1;
nodes = (
(391,405,o),
(429,414,qs),
(516,432,o),
(574,435,qs),
(630,436,o),
(639,435,q),
(646,433,o),
(656,429,o),
(657,427,q),
(674,409,o),
(714,357,o),
(714,343,qs),
(714,323,o),
(693,235,o),
(681,210,qs),
(679,206,o),
(662,171,o),
(657,161,qs),
(628,101,o),
(584,47,o),
(576,48,qs),
(569,48,o),
(540,62,o),
(524,72,qs),
(510,81,l),
(472,97,ls),
(463,100,o),
(444,104,o),
(439,105,q),
(510,54,o),
(541,26,qs),
(551,17,o),
(558,11,qs),
(581,-8,o),
(609,-26,o),
(626,-28,qs),
(650,-30,o),
(685,15,o),
(708,61,qs),
(721,89,o),
(743,126,q),
(744,129,o),
(746,133,qs),
(774,175,o),
(819,303,o),
(819,328,qs),
(819,341,o),
(806,364,o),
(797,379,qs),
(787,392,o),
(775,411,q),
(775,414,l),
(755,447,o),
(727,491,o),
(669,504,o),
(657,497,qs),
(622,476,o),
(585,469,qs),
(546,460,o),
(455,448,qs),
(389,440,o),
(356,419,q),
(366,398,l)
);
},
{
closed = 1;
nodes = (
(362,365,o),
(406,386,qs),
(426,396,o),
(440,400,qs),
(452,404,o),
(476,420,o),
(476,435,qs),
(476,459,o),
(429,502,o),
(399,502,qs),
(389,502,o),
(383,499,q),
(361,435,o),
(283,374,o),
(244,358,qs),
(209,342,o),
(187,325,q),
(191,323,o),
(193,322,o),
(196,322,qs),
(224,322,o)
);
},
{
closed = 1;
nodes = (
(375,10,qs),
(375,4,o),
(398,-14,o),
(401,-14,qs),
(407,-14,o),
(423,-2,o),
(438,20,o),
(438,34,qs),
(438,43,o),
(434,49,q),
(433,54,o),
(433,64,qs),
(433,89,l),
(434,97,o),
(434,105,qs),
(437,222,o),
(450,301,o),
(467,315,q),
(458,325,o),
(440,342,o),
(409,351,o),
(399,352,q),
(383,357,o),
(358,365,q),
(347,353,o),
(347,337,qs),
(347,326,o),
(355,318,o),
(370,293,o),
(381,251,o),
(381,212,qs),
(381,174,o),
(383,155,qs),
(383,135,o),
(383,118,qs),
(383,97,o),
(380,64,o),
(377,34,qs),
(375,16,o)
);
},
{
closed = 1;
nodes = (
(504,215,qs),
(529,221,o),
(556,225,qs),
(580,230,o),
(605,234,q),
(607,239,o),
(613,242,q),
(620,250,o),
(635,266,o),
(635,275,qs),
(635,278,o),
(624,280,o),
(616,280,qs),
(592,279,o),
(535,266,qs),
(525,264,o),
(514,262,qs),
(465,250,o),
(409,239,q),
(400,236,o),
(393,235,qs),
(369,231,o),
(350,225,q),
(277,213,o),
(208,197,o),
(208,189,qs),
(208,182,o),
(235,175,o),
(249,175,qs),
(327,179,o)
);
},
{
closed = 1;
nodes = (
(246,47,o),
(297,75,o),
(313,86,qs),
(320,90,o),
(326,94,qs),
(340,103,o),
(356,117,o),
(356,129,qs),
(356,151,o),
(319,175,o),
(302,175,qs),
(299,175,o),
(297,174,o),
(297,172,q),
(282,121,o),
(236,68,o),
(213,53,qs),
(193,41,o),
(181,22,q),
(182,22,o),
(184,21,o),
(185,21,qs),
(196,21,o)
);
},
{
closed = 1;
nodes = (
(585,113,o),
(585,135,qs),
(585,156,o),
(535,185,o),
(508,185,qs),
(502,185,o),
(474,183,o),
(449,178,o),
(444,175,q),
(483,165,o),
(521,133,o),
(525,118,qs),
(527,113,o),
(530,101,o),
(536,93,q),
(538,93,o),
(539,92,q),
(540,92,o),
(541,92,qs),
(552,92,o)
);
},
{
closed = 1;
nodes = (
(330,282,qs),
(327,282,o),
(325,284,q),
(320,287,o),
(311,296,o),
(308,301,q),
(305,303,o),
(304,306,q),
(293,306,o),
(280,308,o),
(271,311,q),
(266,306,o),
(260,301,qs),
(254,296,o),
(249,292,q),
(247,287,o),
(246,279,o),
(247,264,o),
(249,262,qs),
(255,255,o),
(275,236,o),
(283,236,qs),
(293,236,o),
(304,244,o),
(309,250,q),
(313,252,o),
(335,261,o),
(340,274,qs),
(354,308,l),
(331,282,o)
);
},
{
closed = 1;
nodes = (
(594,382,o),
(579,397,o),
(563,397,qs),
(539,397,o),
(499,379,o),
(513,362,qs),
(549,320,o),
(455,280,q),
(536,286,o),
(572,326,o),
(590,342,qs),
(602,354,o)
);
}
);
vertWidth = 2048;
width = 1000;
}
);
note = uni83CA;
unicode = 33738;
},
